<svg width="20" height="22" viewBox="0 0 20 22" fill="none" xmlns="http://www.w3.org/2000/svg">
<path d="M4.64286 0.98645C3.41149 0.98645 2.23057 1.46901 1.35986 2.32796C0.489157 3.18692 0 4.35192 0 5.56667V7.46358C0 7.74391 0.112882 8.01275 0.313814 8.21097C0.514746 8.40919 0.787268 8.52055 1.07143 8.52055C1.35559 8.52055 1.62811 8.40919 1.82904 8.21097C2.02997 8.01275 2.14286 7.74391 2.14286 7.46358V5.56667C2.14286 4.20528 3.26286 3.1004 4.64286 3.1004H6.56571C6.84988 3.1004 7.1224 2.98904 7.32333 2.79082C7.52426 2.59259 7.63714 2.32375 7.63714 2.04342C7.63714 1.7631 7.52426 1.49425 7.32333 1.29603C7.1224 1.09781 6.84988 0.98645 6.56571 0.98645H4.64286ZM13.4343 0.98645C13.1501 0.98645 12.8776 1.09781 12.6767 1.29603C12.4757 1.49425 12.3629 1.7631 12.3629 2.04342C12.3629 2.32375 12.4757 2.59259 12.6767 2.79082C12.8776 2.98904 13.1501 3.1004 13.4343 3.1004H15.3571C16.7371 3.1004 17.8571 4.20528 17.8571 5.56667V7.46358C17.8571 7.74391 17.97 8.01275 18.171 8.21097C18.3719 8.40919 18.6444 8.52055 18.9286 8.52055C19.2127 8.52055 19.4853 8.40919 19.6862 8.21097C19.8871 8.01275 20 7.74391 20 7.46358V5.56667C20 4.35192 19.5108 3.18692 18.6401 2.32796C17.7694 1.46901 16.5885 0.98645 15.3571 0.98645H13.4343ZM2.14286 14.2395C2.14286 13.9592 2.02997 13.6903 1.82904 13.4921C1.62811 13.2939 1.35559 13.1825 1.07143 13.1825C0.787268 13.1825 0.514746 13.2939 0.313814 13.4921C0.112882 13.6903 0 13.9592 0 14.2395V16.1364C0 17.3511 0.489157 18.5161 1.35986 19.3751C2.23057 20.2341 3.41149 20.7166 4.64286 20.7166H6.56571C6.84988 20.7166 7.1224 20.6053 7.32333 20.407C7.52426 20.2088 7.63714 19.94 7.63714 19.6596C7.63714 19.3793 7.52426 19.1105 7.32333 18.9122C7.1224 18.714 6.84988 18.6027 6.56571 18.6027H4.64286C3.97982 18.6027 3.34393 18.3428 2.87509 17.8803C2.40625 17.4178 2.14286 16.7905 2.14286 16.1364V14.2395ZM20 14.2395C20 13.9592 19.8871 13.6903 19.6862 13.4921C19.4853 13.2939 19.2127 13.1825 18.9286 13.1825C18.6444 13.1825 18.3719 13.2939 18.171 13.4921C17.97 13.6903 17.8571 13.9592 17.8571 14.2395V16.1364C17.8571 16.7905 17.5938 17.4178 17.1249 17.8803C16.6561 18.3428 16.0202 18.6027 15.3571 18.6027H13.4343C13.1501 18.6027 12.8776 18.714 12.6767 18.9122C12.4757 19.1105 12.3629 19.3793 12.3629 19.6596C12.3629 19.94 12.4757 20.2088 12.6767 20.407C12.8776 20.6053 13.1501 20.7166 13.4343 20.7166H15.3571C16.5885 20.7166 17.7694 20.2341 18.6401 19.3751C19.5108 18.5161 20 17.3511 20 16.1364V14.2395ZM5.35714 9.79456C5.07298 9.79456 4.80046 9.90592 4.59953 10.1041C4.3986 10.3024 4.28571 10.5712 4.28571 10.8515C4.28571 11.1319 4.3986 11.4007 4.59953 11.5989C4.80046 11.7971 5.07298 11.9085 5.35714 11.9085H14.6429C14.927 11.9085 15.1995 11.7971 15.4005 11.5989C15.6014 11.4007 15.7143 11.1319 15.7143 10.8515C15.7143 10.5712 15.6014 10.3024 15.4005 10.1041C15.1995 9.90592 14.927 9.79456 14.6429 9.79456H5.35714Z" fill="#7E7878"/>
</svg>
