<svg width="30" height="30" viewBox="0 0 30 30" fill="none" xmlns="http://www.w3.org/2000/svg">
<path d="M0.826172 0.9375C0.826172 0.68886 0.921365 0.450403 1.09081 0.274587C1.26026 0.0987721 1.49007 0 1.7297 0L7.1509 0C7.39053 0 7.62035 0.0987721 7.7898 0.274587C7.95924 0.450403 8.05444 0.68886 8.05444 0.9375C8.05444 1.18614 7.95924 1.4246 7.7898 1.60041C7.62035 1.77623 7.39053 1.875 7.1509 1.875H2.63324V6.5625C2.63324 6.81114 2.53804 7.0496 2.3686 7.22541C2.19915 7.40123 1.96934 7.5 1.7297 7.5C1.49007 7.5 1.26026 7.40123 1.09081 7.22541C0.921365 7.0496 0.826172 6.81114 0.826172 6.5625V0.9375ZM22.511 0.9375C22.511 0.68886 22.6062 0.450403 22.7756 0.274587C22.945 0.0987721 23.1749 0 23.4145 0L28.8357 0C29.0753 0 29.3051 0.0987721 29.4746 0.274587C29.644 0.450403 29.7392 0.68886 29.7392 0.9375V6.5625C29.7392 6.81114 29.644 7.0496 29.4746 7.22541C29.3051 7.40123 29.0753 7.5 28.8357 7.5C28.5961 7.5 28.3662 7.40123 28.1968 7.22541C28.0274 7.0496 27.9322 6.81114 27.9322 6.5625V1.875H23.4145C23.1749 1.875 22.945 1.77623 22.7756 1.60041C22.6062 1.4246 22.511 1.18614 22.511 0.9375ZM1.7297 22.5C1.96934 22.5 2.19915 22.5988 2.3686 22.7746C2.53804 22.9504 2.63324 23.1889 2.63324 23.4375V28.125H7.1509C7.39053 28.125 7.62035 28.2238 7.7898 28.3996C7.95924 28.5754 8.05444 28.8139 8.05444 29.0625C8.05444 29.3111 7.95924 29.5496 7.7898 29.7254C7.62035 29.9012 7.39053 30 7.1509 30H1.7297C1.49007 30 1.26026 29.9012 1.09081 29.7254C0.921365 29.5496 0.826172 29.3111 0.826172 29.0625V23.4375C0.826172 23.1889 0.921365 22.9504 1.09081 22.7746C1.26026 22.5988 1.49007 22.5 1.7297 22.5ZM28.8357 22.5C29.0753 22.5 29.3051 22.5988 29.4746 22.7746C29.644 22.9504 29.7392 23.1889 29.7392 23.4375V29.0625C29.7392 29.3111 29.644 29.5496 29.4746 29.7254C29.3051 29.9012 29.0753 30 28.8357 30H23.4145C23.1749 30 22.945 29.9012 22.7756 29.7254C22.6062 29.5496 22.511 29.3111 22.511 29.0625C22.511 28.8139 22.6062 28.5754 22.7756 28.3996C22.945 28.2238 23.1749 28.125 23.4145 28.125H27.9322V23.4375C27.9322 23.1889 28.0274 22.9504 28.1968 22.7746C28.3662 22.5988 28.5961 22.5 28.8357 22.5ZM8.05444 7.5H9.8615V9.375H8.05444V7.5Z" fill="#F05023"/>
<path d="M13.4756 3.75H4.44031V13.125H13.4756V3.75ZM6.24738 5.625H11.6686V11.25H6.24738V5.625ZM9.86151 20.625H8.05444V22.5H9.86151V20.625Z" fill="#F05023"/>
<path d="M13.4756 16.875H4.44031V26.25H13.4756V16.875ZM6.24737 18.75H11.6686V24.375H6.24737V18.75ZM20.7039 7.5H22.511V9.375H20.7039V7.5Z" fill="#F05023"/>
<path d="M17.0898 3.75H26.1251V13.125H17.0898V3.75ZM18.8969 5.625V11.25H24.3181V5.625H18.8969ZM15.2827 15V18.75H17.0898V20.625H15.2827V22.5H18.8969V18.75H20.7039V22.5H22.511V20.625H26.1251V18.75H20.7039V15H15.2827ZM18.8969 18.75H17.0898V16.875H18.8969V18.75ZM26.1251 22.5H24.3181V24.375H20.7039V26.25H26.1251V22.5ZM18.8969 26.25V24.375H15.2827V26.25H18.8969Z" fill="#F05023"/>
<path d="M22.511 16.875H26.1251V15H22.511V16.875Z" fill="#F05023"/>
</svg>
