<svg width="29" height="30" viewBox="0 0 29 30" fill="none" xmlns="http://www.w3.org/2000/svg">
<path d="M12.018 0.839282C12.6631 0.297193 13.4788 0 14.3214 0C15.164 0 15.9796 0.297193 16.6247 0.839282L27.3658 9.8713C27.7656 10.2073 28.0871 10.6266 28.3077 11.1C28.5283 11.5733 28.6426 12.0892 28.6428 12.6115V27.6131C28.6428 28.2461 28.3913 28.8533 27.9437 29.3009C27.496 29.7485 26.8889 30 26.2559 30H19.6919C19.0589 30 18.4517 29.7485 18.0041 29.3009C17.5565 28.8533 17.305 28.2461 17.305 27.6131V19.259H11.3378V27.6131C11.3378 28.2461 11.0863 28.8533 10.6387 29.3009C10.191 29.7485 9.58391 30 8.95086 30H2.3869C1.75385 30 1.14674 29.7485 0.699106 29.3009C0.251476 28.8533 0 28.2461 0 27.6131V12.6103C0.000132067 12.088 0.114506 11.5722 0.335103 11.0988C0.555699 10.6254 0.877176 10.2061 1.27699 9.87011L12.018 0.838089V0.839282Z" fill="#49C2C0"/>
</svg>
