<svg width="32" height="31" viewBox="0 0 32 31" fill="none" xmlns="http://www.w3.org/2000/svg">
<path d="M31.5852 15.8637L17.1867 0.486682C16.5803 -0.162227 15.4156 -0.162227 14.8093 0.486682L0.41074 15.8637C0.203867 16.0846 0.0680348 16.3584 0.0196811 16.652C-0.0286727 16.9455 0.0125239 17.2463 0.138286 17.5178C0.264048 17.7893 0.468986 18.02 0.728301 18.1819C0.987616 18.3438 1.29019 18.43 1.59942 18.4301H4.7991V29.194C4.7991 29.6018 4.96766 29.993 5.26769 30.2813C5.56772 30.5697 5.97464 30.7317 6.39894 30.7317H25.597C26.0213 30.7317 26.4283 30.5697 26.7283 30.2813C27.0283 29.993 27.1969 29.6018 27.1969 29.194V18.4301H30.3966C30.7064 18.4314 31.0099 18.346 31.2701 18.1843C31.5303 18.0226 31.736 17.7917 31.862 17.5196C31.988 17.2476 32.0289 16.9461 31.9798 16.6521C31.9306 16.3581 31.7936 16.0841 31.5852 15.8637ZM15.998 21.5055C14.7251 21.5055 13.5043 21.0195 12.6042 20.1544C11.7041 19.2892 11.1985 18.1159 11.1985 16.8924C11.1985 15.6689 11.7041 14.4956 12.6042 13.6305C13.5043 12.7653 14.7251 12.2793 15.998 12.2793C17.2709 12.2793 18.4917 12.7653 19.3918 13.6305C20.2918 14.4956 20.7975 15.6689 20.7975 16.8924C20.7975 18.1159 20.2918 19.2892 19.3918 20.1544C18.4917 21.0195 17.2709 21.5055 15.998 21.5055Z" fill="#49C2C0"/>
</svg>
