<svg width="32" height="31" viewBox="0 0 32 31" fill="none" xmlns="http://www.w3.org/2000/svg">
<path d="M16.456 1.16942L16.4567 1.17018L30.8553 16.5472L30.8584 16.5505C30.9329 16.6293 30.9777 16.7224 30.9935 16.8169C31.0092 16.9112 30.9965 17.0088 30.9546 17.0993C30.9124 17.1904 30.8407 17.2738 30.7424 17.3349C30.6437 17.3962 30.5249 17.4306 30.4007 17.4301H30.3966H27.1969H26.1969V18.4301V29.194C26.1969 29.3235 26.1437 29.4562 26.0353 29.5604C25.9256 29.6658 25.7686 29.7317 25.597 29.7317H6.39894C6.22735 29.7317 6.07038 29.6658 5.96065 29.5604C5.85227 29.4562 5.7991 29.3235 5.7991 29.194V18.4301V17.4301H4.7991H1.59967C1.59959 17.4301 1.5995 17.4301 1.59942 17.4301C1.4752 17.43 1.35648 17.3952 1.25793 17.3337L0.730008 18.1792L1.25793 17.3337C1.15966 17.2723 1.08792 17.1887 1.04568 17.0975C1.00366 17.0068 0.990817 16.909 1.00639 16.8145C1.02199 16.7197 1.06656 16.6263 1.14066 16.5472L1.14069 16.5472L15.5393 1.17018L15.54 1.16942C15.6243 1.07917 15.7854 1 15.998 1C16.2106 1 16.3717 1.07917 16.456 1.16942ZM28.1969 18.4301H30.3966H3.7991H4.7991V19.4301V29.194C4.7991 29.6018 4.96766 29.993 5.26769 30.2813C5.56772 30.5697 5.97464 30.7317 6.39894 30.7317H25.597C26.0213 30.7317 26.4283 30.5697 26.7283 30.2813C27.0283 29.993 27.1969 29.6018 27.1969 29.194V19.4301V18.4301H28.1969ZM11.9112 20.8753C13.0016 21.9234 14.4724 22.5055 15.998 22.5055C17.5236 22.5055 18.9943 21.9234 20.0847 20.8753C21.1765 19.826 21.7975 18.3942 21.7975 16.8924C21.7975 15.3906 21.1765 13.9588 20.0847 12.9095C18.9943 11.8614 17.5236 11.2793 15.998 11.2793C14.4724 11.2793 13.0016 11.8614 11.9112 12.9095C10.8195 13.9588 10.1985 15.3906 10.1985 16.8924C10.1985 18.3942 10.8195 19.826 11.9112 20.8753Z" stroke="black" stroke-width="2"/>
</svg>
