<svg width="110" height="110" viewBox="0 0 110 110" fill="none" xmlns="http://www.w3.org/2000/svg">
<circle cx="55" cy="55" r="55" fill="#F2F2F2"/>
<path d="M82.2322 42.5168C82.2587 42.3092 82.2587 42.0986 82.2322 41.891V41.6526C82.1854 41.4863 82.1214 41.3263 82.0415 41.1758C82.0062 41.09 81.9603 41.0098 81.9053 40.9374L81.6329 40.55L81.4149 40.3712L81.088 40.103L56.5699 25.203C56.1558 24.9414 55.686 24.8037 55.2078 24.8037C54.7296 24.8037 54.2598 24.9414 53.8457 25.203L29.3276 40.103L29.0824 40.3116L28.7828 40.55C28.7036 40.6474 28.6392 40.7581 28.5921 40.8778C28.5049 40.9633 28.4313 41.064 28.3741 41.1758C28.3034 41.3066 28.2485 41.4468 28.2107 41.593C28.1954 41.6916 28.1954 41.7924 28.2107 41.891C28.0234 42.0677 27.8665 42.2796 27.7476 42.5168V66.3569C27.7511 66.8879 27.8843 67.4082 28.1333 67.864C28.3824 68.3199 28.7383 68.6946 29.1642 68.9495L53.6823 83.8495C53.7948 83.9214 53.9134 83.9812 54.0364 84.0283H54.3088C54.7564 84.1471 55.2234 84.1471 55.6709 84.0283H55.9434L56.3248 83.8495L80.8428 68.9495C81.2636 68.6907 81.614 68.3143 81.8582 67.8588C82.1023 67.4032 82.2314 66.8849 82.2322 66.3569V42.5168ZM54.9899 54.0494L36.0837 42.5168L43.6026 37.9872L62.2091 49.6092L54.9899 54.0494ZM54.9899 31.0438L73.8961 42.5168L67.7938 46.2418L49.1873 34.59L54.9899 31.0438ZM33.196 47.5828L52.2656 59.2645V76.1909L33.196 64.5987V47.5828ZM57.7141 76.1909V59.2645L65.8868 54.258V63.3769L71.3353 60.3969V50.9204L76.7837 47.6126V64.5987L57.7141 76.1909Z" fill="#636363"/>
</svg>
