<svg width="30" height="23" viewBox="0 0 30 23" fill="none" xmlns="http://www.w3.org/2000/svg">
<path d="M28.125 18.75C28.125 19.2473 27.9275 19.7242 27.5758 20.0758C27.2242 20.4275 26.7473 20.625 26.25 20.625H3.75C3.25272 20.625 2.77581 20.4275 2.42417 20.0758C2.07254 19.7242 1.875 19.2473 1.875 18.75V7.5C1.875 7.00272 2.07254 6.52581 2.42417 6.17418C2.77581 5.82254 3.25272 5.625 3.75 5.625H5.9475C7.43857 5.62418 8.86831 5.03138 9.9225 3.97687L11.4788 2.42438C11.8294 2.07364 12.3047 1.8761 12.8006 1.875H17.1956C17.6929 1.87511 18.1697 2.07272 18.5212 2.42438L20.0738 3.97687C20.5962 4.49946 21.2165 4.914 21.8992 5.19679C22.5818 5.47958 23.3136 5.62509 24.0525 5.625H26.25C26.7473 5.625 27.2242 5.82254 27.5758 6.17418C27.9275 6.52581 28.125 7.00272 28.125 7.5V18.75ZM3.75 3.75C2.75544 3.75 1.80161 4.14509 1.09835 4.84835C0.395088 5.55161 0 6.50544 0 7.5L0 18.75C0 19.7446 0.395088 20.6984 1.09835 21.4016C1.80161 22.1049 2.75544 22.5 3.75 22.5H26.25C27.2446 22.5 28.1984 22.1049 28.9016 21.4016C29.6049 20.6984 30 19.7446 30 18.75V7.5C30 6.50544 29.6049 5.55161 28.9016 4.84835C28.1984 4.14509 27.2446 3.75 26.25 3.75H24.0525C23.058 3.74979 22.1043 3.35456 21.4012 2.65125L19.8488 1.09875C19.1457 0.39544 18.192 0.00021239 17.1975 0H12.8025C11.808 0.00021239 10.8543 0.39544 10.1512 1.09875L8.59875 2.65125C7.89565 3.35456 6.94198 3.74979 5.9475 3.75H3.75Z" fill="url(#paint0_linear_1550_1204)"/>
<path d="M15 16.875C13.7568 16.875 12.5645 16.3811 11.6854 15.5021C10.8064 14.623 10.3125 13.4307 10.3125 12.1875C10.3125 10.9443 10.8064 9.75201 11.6854 8.87294C12.5645 7.99386 13.7568 7.5 15 7.5C16.2432 7.5 17.4355 7.99386 18.3146 8.87294C19.1936 9.75201 19.6875 10.9443 19.6875 12.1875C19.6875 13.4307 19.1936 14.623 18.3146 15.5021C17.4355 16.3811 16.2432 16.875 15 16.875ZM15 18.75C16.7405 18.75 18.4097 18.0586 19.6404 16.8279C20.8711 15.5972 21.5625 13.928 21.5625 12.1875C21.5625 10.447 20.8711 8.77782 19.6404 7.54711C18.4097 6.3164 16.7405 5.625 15 5.625C13.2595 5.625 11.5903 6.3164 10.3596 7.54711C9.1289 8.77782 8.4375 10.447 8.4375 12.1875C8.4375 13.928 9.1289 15.5972 10.3596 16.8279C11.5903 18.0586 13.2595 18.75 15 18.75ZM5.625 8.4375C5.625 8.68614 5.52623 8.9246 5.35041 9.10041C5.1746 9.27623 4.93614 9.375 4.6875 9.375C4.43886 9.375 4.2004 9.27623 4.02459 9.10041C3.84877 8.9246 3.75 8.68614 3.75 8.4375C3.75 8.18886 3.84877 7.9504 4.02459 7.77459C4.2004 7.59877 4.43886 7.5 4.6875 7.5C4.93614 7.5 5.1746 7.59877 5.35041 7.77459C5.52623 7.9504 5.625 8.18886 5.625 8.4375Z" fill="url(#paint1_linear_1550_1204)"/>
<defs>
<linearGradient id="paint0_linear_1550_1204" x1="25" y1="-2.25" x2="16.7162" y2="23.0617" gradientUnits="userSpaceOnUse">
<stop stop-color="#AC0EC6"/>
<stop offset="1" stop-color="#DC2BAA"/>
</linearGradient>
<linearGradient id="paint1_linear_1550_1204" x1="18.5938" y1="4.3125" x2="13.8303" y2="19.1275" gradientUnits="userSpaceOnUse">
<stop stop-color="#AC0EC6"/>
<stop offset="1" stop-color="#DC2BAA"/>
</linearGradient>
</defs>
</svg>
