<svg width="50" height="50" viewBox="0 0 50 50" fill="none" xmlns="http://www.w3.org/2000/svg">
<path d="M14.9959 40C12.2466 40 10.0222 42.25 10.0222 45C10.0222 47.75 12.2466 50 14.9959 50C17.7451 50 19.9945 47.75 19.9945 45C19.9945 42.25 17.7451 40 14.9959 40ZM2.49931 5H4.99862L13.9961 23.975L10.6221 30.075C8.79758 33.425 11.1969 37.5 14.9959 37.5H42.4883C43.8629 37.5 44.9876 36.375 44.9876 35C44.9876 33.625 43.8629 32.5 42.4883 32.5H14.9959L17.7451 27.5H36.365C38.2395 27.5 39.889 26.475 40.7388 24.925L49.6863 8.7C49.897 8.32107 50.005 7.89368 49.9998 7.46014C49.9946 7.0266 49.8763 6.60193 49.6567 6.22816C49.437 5.85438 49.1236 5.54446 48.7474 5.32905C48.3713 5.11364 47.9454 5.00022 47.5119 5H10.5221L8.84756 1.425C8.6467 0.998268 8.32845 0.637604 7.93009 0.385236C7.53172 0.132869 7.06972 -0.000757152 6.59818 3.22712e-06H2.49931C1.12469 3.22712e-06 0 1.125 0 2.5C0 3.875 1.12469 5 2.49931 5ZM39.989 40C37.2397 40 35.0154 42.25 35.0154 45C35.0154 47.75 37.2397 50 39.989 50C42.7382 50 44.9876 47.75 44.9876 45C44.9876 42.25 42.7382 40 39.989 40Z" fill="url(#paint0_linear_2483_3199)"/>
<defs>
<linearGradient id="paint0_linear_2483_3199" x1="39.2771" y1="8.93829" x2="30.9467" y2="51.1729" gradientUnits="userSpaceOnUse">
<stop stop-color="#11B4F5"/>
<stop offset="1" stop-color="#7F5FED"/>
</linearGradient>
</defs>
</svg>
