<svg width="50" height="50" viewBox="0 0 50 50" fill="none" xmlns="http://www.w3.org/2000/svg">
<path d="M20.35 0C22.1175 0 23.125 1.76088 23.125 3.52926V14.3672H20.8875C20.4524 13.291 19.6567 12.3997 18.6368 11.8461C17.6169 11.2925 16.4363 11.111 15.2973 11.3327C14.1583 11.5545 13.1319 12.1657 12.3939 13.0615C11.6559 13.9574 11.2524 15.0822 11.2524 16.2431C11.2524 17.404 11.6559 18.5288 12.3939 19.4247C13.1319 20.3206 14.1583 20.9318 15.2973 21.1535C16.4363 21.3753 17.6169 21.1938 18.6368 20.6402C19.6567 20.0865 20.4524 19.1953 20.8875 18.1191H23.125V45.3777C23.125 46.8684 22.495 48.3517 21.1675 49.0295C19.9638 49.6603 18.6264 49.9931 17.2675 50C13.4925 50 10.685 48.089 8.8775 45.8279C7.62571 44.2675 6.75282 42.4378 6.3275 40.4827C5.16004 40.1381 4.0788 39.5499 3.155 38.7569C1.38 37.2286 0 34.7774 0 31.1656C0 29.2771 0.135 27.6313 0.475 26.2481H11C12.695 26.2481 14.1 27.4988 14.3375 29.1271C13.266 29.5706 12.382 30.3728 11.8366 31.3966C11.2912 32.4204 11.1183 33.6019 11.3477 34.7391C11.5771 35.8763 12.1943 36.8984 13.0939 37.6304C13.9934 38.3625 15.1193 38.7589 16.2788 38.752C17.4383 38.7451 18.5593 38.3352 19.4501 37.5924C20.3408 36.8497 20.9458 35.8203 21.1616 34.6805C21.3773 33.5406 21.1904 32.3612 20.6329 31.344C20.0753 30.3269 19.1817 29.5352 18.105 29.1046C17.9737 27.309 17.1681 25.6296 15.8502 24.4038C14.5322 23.178 12.7995 22.4965 11 22.4962H2.6C2.97437 22.1867 3.39109 21.9323 3.8375 21.7409C3.5798 20.8218 3.43045 19.8757 3.3925 18.922C3.31 17.0835 3.585 15.1701 4.13 13.4667C4.67 11.7909 5.525 10.1576 6.725 9.02952C7.47775 8.29566 8.43141 7.80205 9.465 7.61131C9.9625 5.51025 11.23 3.77439 12.8475 2.51626C14.925 0.895448 17.6475 0 20.3475 0H20.35ZM26.875 37.5038H31C32.8897 37.5038 34.7019 36.7527 36.0381 35.4158C37.3743 34.079 38.125 32.2658 38.125 30.3752V25.8854C39.2007 25.4501 40.0915 24.654 40.6448 23.6336C41.1982 22.6132 41.3796 21.432 41.1579 20.2924C40.9363 19.1529 40.3254 18.126 39.43 17.3876C38.5346 16.6493 37.4103 16.2455 36.25 16.2455C35.0897 16.2455 33.9654 16.6493 33.07 17.3876C32.1746 18.126 31.5637 19.1529 31.3421 20.2924C31.1204 21.432 31.3018 22.6132 31.8552 23.6336C32.4085 24.654 33.2993 25.4501 34.375 25.8854V30.3752C34.375 31.2707 34.0194 32.1296 33.3865 32.7629C32.7536 33.3961 31.8951 33.7519 31 33.7519H26.875V3.52926C26.875 1.76088 27.8825 0 29.65 0C32.355 0 35.075 0.895448 37.1525 2.51626C38.77 3.77439 40.0375 5.51276 40.535 7.61131C41.585 7.78639 42.52 8.32166 43.275 9.02952C44.475 10.1576 45.33 11.7884 45.87 13.4667C46.415 15.1701 46.69 17.0835 46.6075 18.922C46.565 19.8624 46.4275 20.8229 46.1625 21.7409L46.3275 21.8159C47.2525 22.2511 48.0025 22.934 48.5625 23.8419C49.625 25.5553 50 28.0215 50 31.1656C50 34.7799 48.62 37.2336 46.845 38.7569C45.9205 39.5502 44.8383 40.1384 43.67 40.4827C43.2453 42.4376 42.3733 44.2672 41.1225 45.8279C39.315 48.089 36.5075 50 32.73 50C31.3713 49.9939 30.034 49.662 28.83 49.032C27.505 48.3517 26.875 46.8684 26.875 45.3777V37.5038ZM15 16.2431C15 15.9114 15.1317 15.5933 15.3661 15.3588C15.6005 15.1243 15.9185 14.9925 16.25 14.9925C16.5815 14.9925 16.8995 15.1243 17.1339 15.3588C17.3683 15.5933 17.5 15.9114 17.5 16.2431C17.5 16.5748 17.3683 16.8929 17.1339 17.1274C16.8995 17.362 16.5815 17.4937 16.25 17.4937C15.9185 17.4937 15.6005 17.362 15.3661 17.1274C15.1317 16.8929 15 16.5748 15 16.2431ZM16.25 32.5013C15.9185 32.5013 15.6005 32.633 15.3661 32.8675C15.1317 33.1021 15 33.4202 15 33.7519C15 34.0836 15.1317 34.4017 15.3661 34.6362C15.6005 34.8707 15.9185 35.0025 16.25 35.0025C16.5815 35.0025 16.8995 34.8707 17.1339 34.6362C17.3683 34.4017 17.5 34.0836 17.5 33.7519C17.5 33.4202 17.3683 33.1021 17.1339 32.8675C16.8995 32.633 16.5815 32.5013 16.25 32.5013ZM35 21.2456C35 21.5773 35.1317 21.8954 35.3661 22.1299C35.6005 22.3645 35.9185 22.4962 36.25 22.4962C36.5815 22.4962 36.8995 22.3645 37.1339 22.1299C37.3683 21.8954 37.5 21.5773 37.5 21.2456C37.5 20.9139 37.3683 20.5958 37.1339 20.3613C36.8995 20.1268 36.5815 19.995 36.25 19.995C35.9185 19.995 35.6005 20.1268 35.3661 20.3613C35.1317 20.5958 35 20.9139 35 21.2456Z" fill="url(#paint0_linear_2483_3186)"/>
<defs>
<linearGradient id="paint0_linear_2483_3186" x1="39.2771" y1="8.93829" x2="30.9467" y2="51.1729" gradientUnits="userSpaceOnUse">
<stop stop-color="#11B4F5"/>
<stop offset="1" stop-color="#7F5FED"/>
</linearGradient>
</defs>
</svg>
