<svg width="30" height="25" viewBox="0 0 30 25" fill="none" xmlns="http://www.w3.org/2000/svg">
<path d="M2.5 5H0V11.25H0.0125L0 22.5C0 23.875 1.125 25 2.5 25H25V22.5H2.5V5ZM8.75 16.25H26.25L21.875 10.625L18.75 14.3875L14.375 8.75L8.75 16.25ZM27.5 2.5H17.5L15 0H7.5C6.125 0 5.0125 1.125 5.0125 2.5L5 17.5C5 18.875 6.125 20 7.5 20H27.5C28.875 20 30 18.875 30 17.5V5C30 3.625 28.875 2.5 27.5 2.5ZM27.5 17.5H7.5V2.5H13.9625L15.725 4.2625L16.4625 5H27.5V17.5Z" fill="url(#paint0_linear_1550_1207)"/>
<defs>
<linearGradient id="paint0_linear_1550_1207" x1="25" y1="-2.5" x2="15" y2="25" gradientUnits="userSpaceOnUse">
<stop stop-color="#B210CC"/>
<stop offset="1" stop-color="#DC2BAA"/>
</linearGradient>
</defs>
</svg>
