<svg width="20" height="20" viewBox="0 0 20 20" fill="none" xmlns="http://www.w3.org/2000/svg">
<path d="M18.996 4.52091C19.0621 4.58797 19.123 4.66055 19.178 4.73811C19.3875 5.03389 19.5 5.38745 19.5 5.74994V5.75V15.75C19.5 16.7446 19.1049 17.6984 18.4016 18.4016C17.6984 19.1049 16.7446 19.5 15.75 19.5H5.75H5.74994C5.38745 19.5 5.03389 19.3875 4.73811 19.178C4.66122 19.1235 4.58922 19.0632 4.52265 18.9977L5.72305 19H5.724H15.75C16.612 19 17.4386 18.6576 18.0481 18.0481C18.6576 17.4386 19 16.612 19 15.75V5.75V5.73042L18.9985 5.71091L18.996 5.67941V4.52091ZM11.1291 5.10419L11.1227 5.11016L11.1165 5.11636L7.63439 8.59671L7.00015 7.7502L7 7.75C6.90151 7.61868 6.77812 7.50804 6.63687 7.42441C6.49562 7.34077 6.33928 7.28578 6.17678 7.26256C6.01427 7.23935 5.84879 7.24837 5.68977 7.28911C5.53076 7.32985 5.38132 7.40151 5.25 7.5C5.11868 7.59849 5.00804 7.72189 4.92441 7.86313C4.84077 8.00438 4.78578 8.16072 4.76256 8.32322C4.73935 8.48573 4.74837 8.65121 4.78911 8.81022C4.82985 8.96924 4.90151 9.11868 5 9.25L6.5 11.25L6.50019 11.2503C6.60769 11.3934 6.74468 11.5118 6.90189 11.5974C7.05911 11.683 7.23288 11.7339 7.41144 11.7465C7.59001 11.7591 7.76921 11.7333 7.93692 11.6707C8.10463 11.6081 8.25693 11.5102 8.38352 11.3836L8.38355 11.3836L12.8836 6.88355L12.8898 6.87732L12.8958 6.87086C13.1166 6.6339 13.2368 6.32049 13.2311 5.99666C13.2254 5.67282 13.0942 5.36385 12.8652 5.13482C12.6362 4.9058 12.3272 4.77462 12.0033 4.7689C11.6795 4.76319 11.3661 4.88339 11.1291 5.10419ZM15.246 0.5C15.7101 0.5 16.1552 0.684374 16.4834 1.01256C16.8116 1.34075 16.996 1.78587 16.996 2.25V15.247C16.996 15.7111 16.8116 16.1562 16.4834 16.4844C16.1552 16.8126 15.7101 16.997 15.246 16.997H2.25C1.78587 16.997 1.34075 16.8126 1.01256 16.4844C0.684374 16.1562 0.5 15.7111 0.5 15.247V2.25C0.5 1.78587 0.684374 1.34075 1.01256 1.01256C1.34075 0.684374 1.78587 0.5 2.25 0.5H15.246Z" stroke="#888888"/>
</svg>
