<svg width="20" height="20" viewBox="0 0 20 20" fill="none" xmlns="http://www.w3.org/2000/svg">
<path d="M18.496 3.627C18.9357 3.78152 19.3166 4.06877 19.586 4.44907C19.8554 4.82937 20.0001 5.28394 20 5.75V15.75C20 16.8772 19.5522 17.9582 18.7552 18.7552C17.9582 19.5522 16.8772 20 15.75 20H5.75C5.28394 20.0001 4.82937 19.8554 4.44907 19.586C4.06877 19.3166 3.78152 18.9357 3.627 18.496L5.724 18.5H15.75C16.4793 18.5 17.1788 18.2103 17.6945 17.6945C18.2103 17.1788 18.5 16.4793 18.5 15.75V5.75L18.496 5.699V3.627ZM15.246 0C15.8427 0 16.415 0.237053 16.837 0.65901C17.2589 1.08097 17.496 1.65326 17.496 2.25V15.247C17.496 15.8437 17.2589 16.416 16.837 16.838C16.415 17.2599 15.8427 17.497 15.246 17.497H2.25C1.65326 17.497 1.08097 17.2599 0.65901 16.838C0.237053 16.416 0 15.8437 0 15.247V2.25C0 1.65326 0.237053 1.08097 0.65901 0.65901C1.08097 0.237053 1.65326 0 2.25 0H15.247H15.246ZM11.47 5.47L7.58 9.358L6.6 8.05C6.54091 7.97121 6.46687 7.90482 6.38212 7.85464C6.29737 7.80446 6.20357 7.77147 6.10607 7.75754C6.00856 7.74361 5.90927 7.74902 5.81386 7.77347C5.71845 7.79791 5.62879 7.8409 5.55 7.9C5.47121 7.95909 5.40483 8.03313 5.35464 8.11788C5.30446 8.20263 5.27147 8.29643 5.25754 8.39393C5.24361 8.49144 5.24902 8.59072 5.27346 8.68614C5.29791 8.78155 5.34091 8.87121 5.4 8.95L6.9 10.95C6.9645 11.0359 7.04669 11.1069 7.14102 11.1583C7.23535 11.2097 7.33961 11.2402 7.44675 11.2478C7.55389 11.2553 7.66141 11.2398 7.76204 11.2023C7.86266 11.1647 7.95404 11.1059 8.03 11.03L12.53 6.53C12.6625 6.38783 12.7346 6.19978 12.7312 6.00548C12.7277 5.81118 12.649 5.62579 12.5116 5.48838C12.3742 5.35097 12.1888 5.27225 11.9945 5.26883C11.8002 5.2654 11.6122 5.33752 11.47 5.47Z" fill="#49C2C0"/>
</svg>
