<svg width="15" height="13" viewBox="0 0 15 13" fill="none" xmlns="http://www.w3.org/2000/svg">
<path d="M13.6111 1.94444H11.25L10.6875 0.368056C10.6486 0.260188 10.5774 0.166948 10.4836 0.101072C10.3897 0.0351969 10.2779 -0.000101149 10.1632 2.17713e-07H4.83681C4.60243 2.17713e-07 4.39236 0.14757 4.31424 0.368056L3.75 1.94444H1.38889C0.621528 1.94444 0 2.56597 0 3.33333V11.25C0 12.0174 0.621528 12.6389 1.38889 12.6389H13.6111C14.3785 12.6389 15 12.0174 15 11.25V3.33333C15 2.56597 14.3785 1.94444 13.6111 1.94444ZM13.75 11.25C13.75 11.3264 13.6875 11.3889 13.6111 11.3889H1.38889C1.3125 11.3889 1.25 11.3264 1.25 11.25V3.33333C1.25 3.25694 1.3125 3.19444 1.38889 3.19444H4.63021L4.92708 2.36458L5.32465 1.25H9.67361L10.0712 2.36458L10.3681 3.19444H13.6111C13.6875 3.19444 13.75 3.25694 13.75 3.33333V11.25ZM7.5 4.30556C5.96528 4.30556 4.72222 5.54861 4.72222 7.08333C4.72222 8.61806 5.96528 9.86111 7.5 9.86111C9.03472 9.86111 10.2778 8.61806 10.2778 7.08333C10.2778 5.54861 9.03472 4.30556 7.5 4.30556ZM7.5 8.75C6.57986 8.75 5.83333 8.00347 5.83333 7.08333C5.83333 6.16319 6.57986 5.41667 7.5 5.41667C8.42014 5.41667 9.16667 6.16319 9.16667 7.08333C9.16667 8.00347 8.42014 8.75 7.5 8.75Z" fill="black"/>
</svg>
