<svg width="40" height="31" viewBox="0 0 40 31" fill="none" xmlns="http://www.w3.org/2000/svg">
<path d="M24.8233 28.2235V28.1073H17.5058V28.2235L17.5071 28.281C17.5071 28.9251 17.2513 29.5428 16.7958 29.9982C16.3404 30.4536 15.7227 30.7095 15.0786 30.7095C14.4345 30.7095 13.8168 30.4536 13.3614 29.9982C12.9059 29.5428 12.6501 28.9251 12.6501 28.281L12.6514 28.2209V28.1073H11.8172C11.4615 28.1073 11.1165 27.9856 10.8395 27.7625C10.5625 27.5395 10.3702 27.2283 10.2944 26.8809L10.2931 26.8706L5.41691 3.78245L1.25099 3.08877C0.85423 3.00863 0.50416 2.77739 0.274741 2.44391C0.0453222 2.11043 -0.0454781 1.70082 0.0215235 1.30163C0.0885252 0.902442 0.308081 0.54493 0.633806 0.304627C0.959531 0.064324 1.36591 -0.0399489 1.7671 0.013838L1.75943 0.0125605L6.9729 0.881258C7.60781 0.989845 8.10603 1.47018 8.23889 2.08594L8.24017 2.09616L9.1242 6.2659L24.3328 7.53318C24.2389 8.03278 24.191 8.53994 24.1897 9.04829V9.0534C24.1897 9.56695 24.2344 10.0703 24.3213 10.5596L24.3136 10.5085C23.8951 10.6404 23.5398 10.9219 23.3157 11.2992C23.0916 11.6765 23.0144 12.1231 23.0987 12.5537L23.0975 12.5422L24.016 19.1724C24.0722 19.5979 24.2664 19.9709 24.55 20.2519C24.808 20.5087 25.1619 20.6697 25.5541 20.6735H25.5554C25.6422 20.6735 25.7278 20.6646 25.8096 20.6492L25.8006 20.6505C26.2362 20.5367 26.6122 20.2615 26.8525 19.8808C27.0928 19.5001 27.1794 19.0423 27.0947 18.6001L27.096 18.6116L26.5952 15.0065C27.39 15.8335 28.3439 16.4911 29.3995 16.9399C30.455 17.3886 31.5905 17.6192 32.7374 17.6177C32.7924 17.6177 32.8473 17.6177 32.901 17.6101L33.0198 17.6037L32.1651 22.5885C32.1446 22.7093 32.0821 22.819 31.9886 22.8983C31.8952 22.9775 31.7767 23.0212 31.6541 23.0215H12.6641L13.0819 24.9978H31.1674C31.5698 25.0138 31.9505 25.1848 32.2297 25.4751C32.5089 25.7654 32.6651 26.1524 32.6654 26.5551C32.6657 26.9579 32.5102 27.3452 32.2315 27.6359C31.9528 27.9267 31.5724 28.0983 31.1699 28.1149H29.6804V28.2312C29.6804 28.8753 29.4245 29.493 28.9691 29.9484C28.5137 30.4038 27.896 30.6597 27.2519 30.6597C26.6078 30.6597 25.9901 30.4038 25.5346 29.9484C25.0792 29.493 24.8233 28.8753 24.8233 28.2312V28.2235ZM26.5582 28.2235C26.5585 28.3188 26.5785 28.4131 26.6171 28.5003C26.6557 28.5875 26.712 28.6657 26.7824 28.73C26.8528 28.7943 26.9357 28.8433 27.026 28.8738C27.1164 28.9044 27.212 28.9159 27.307 28.9075C27.402 28.8992 27.4942 28.8712 27.5778 28.8254C27.6614 28.7795 27.7346 28.7168 27.7927 28.6412C27.8508 28.5656 27.8926 28.4788 27.9154 28.3862C27.9382 28.2937 27.9415 28.1973 27.9251 28.1034V28.1073H26.571C26.5641 28.1456 26.5607 28.1845 26.5607 28.2235H26.5582ZM14.3862 28.2235C14.3865 28.3188 14.4065 28.4131 14.4451 28.5003C14.4837 28.5875 14.54 28.6657 14.6104 28.73C14.6808 28.7943 14.7638 28.8433 14.8541 28.8738C14.9444 28.9044 15.0401 28.9159 15.135 28.9075C15.23 28.8992 15.3222 28.8712 15.4058 28.8254C15.4894 28.7795 15.5626 28.7168 15.6207 28.6412C15.6788 28.5656 15.7206 28.4788 15.7434 28.3862C15.7662 28.2937 15.7695 28.1973 15.7531 28.1034V28.1073H14.3977C14.3913 28.1448 14.3883 28.1829 14.3888 28.2209V28.2235H14.3862ZM19.3263 10.4982C18.8906 10.6118 18.5144 10.8869 18.274 11.2677C18.0337 11.6485 17.9472 12.1064 18.0322 12.5486L18.0309 12.5371L18.9494 19.1673C19.0056 19.5927 19.1998 19.9658 19.4834 20.2468C19.7415 20.5036 20.0953 20.6646 20.4875 20.6684H20.4888C20.5757 20.6684 20.6613 20.6595 20.743 20.6441L20.7341 20.6454C21.1696 20.5316 21.5457 20.2564 21.7859 19.8757C22.0262 19.495 22.1128 19.0372 22.0282 18.595L22.0295 18.6065L21.1109 11.9763C21.058 11.5671 20.8701 11.1872 20.577 10.8968C20.3102 10.6304 19.9499 10.4786 19.5728 10.474H19.5716C19.4834 10.474 19.3978 10.4829 19.3148 10.4995L19.3237 10.4982H19.3263ZM14.2597 10.4982C13.8226 10.6113 13.445 10.887 13.2043 11.269C12.9635 11.651 12.8777 12.1106 12.9644 12.5537L12.9631 12.5422L13.8816 19.1724C13.9378 19.5979 14.132 19.9709 14.4156 20.2519C14.6736 20.5087 15.0275 20.6697 15.4197 20.6735H15.421C15.5078 20.6735 15.5934 20.6646 15.6752 20.6492L15.6663 20.6505C16.1022 20.5372 16.4787 20.2622 16.7193 19.8814C16.9599 19.5006 17.0465 19.0425 16.9616 18.6001L16.9629 18.6116L16.0431 11.9776C15.9901 11.5684 15.8022 11.1885 15.5091 10.8981C15.2427 10.6312 14.8822 10.4794 14.505 10.4753H14.5037C14.4169 10.4753 14.3326 10.4842 14.2508 10.4995L14.2597 10.4982ZM25.4876 9.05723C25.488 7.13277 26.2528 5.28727 27.6138 3.92671C28.2878 3.25303 29.0878 2.71869 29.9682 2.35419C30.8486 1.98969 31.7922 1.80216 32.7451 1.80233C33.698 1.8025 34.6415 1.99035 35.5218 2.35516C36.4021 2.71998 37.2019 3.2546 37.8756 3.92852C38.5493 4.60244 39.0836 5.40245 39.4481 6.28287C39.8126 7.1633 40.0002 8.10689 40 9.05979C39.9995 10.9846 39.2344 12.8303 37.873 14.191C36.5116 15.5517 34.6654 16.3158 32.7406 16.3153C30.8158 16.3148 28.9701 15.5497 27.6094 14.1883C26.2487 12.8269 25.4846 10.9808 25.4851 9.05595L25.4876 9.05723ZM27.5661 9.05723C27.5661 9.73718 27.7001 10.4105 27.9603 11.0386C28.2205 11.6668 28.6018 12.2376 29.0826 12.7184C29.5634 13.1992 30.1342 13.5806 30.7624 13.8408C31.3906 14.101 32.0639 14.2349 32.7438 14.2349C33.4238 14.2349 34.0971 14.101 34.7252 13.8408C35.3534 13.5806 35.9242 13.1992 36.405 12.7184C36.8858 12.2376 37.2672 11.6668 37.5274 11.0386C37.7876 10.4105 37.9215 9.73718 37.9215 9.05723C37.9217 7.68368 37.3762 6.36633 36.4051 5.39496C35.434 4.4236 34.1167 3.87779 32.7432 3.87762C31.3696 3.87746 30.0523 4.42293 29.0809 5.39406C28.1095 6.36518 27.5637 7.68241 27.5636 9.05595L27.5661 9.05723ZM31.7052 11.1281V10.0958H30.673C30.3972 10.0958 30.1327 9.98628 29.9377 9.79126C29.7427 9.59625 29.6331 9.33175 29.6331 9.05595C29.6331 8.78016 29.7427 8.51566 29.9377 8.32065C30.1327 8.12563 30.3972 8.01607 30.673 8.01607H31.7052V6.98386C31.7052 6.70806 31.8148 6.44356 32.0098 6.24855C32.2048 6.05353 32.4693 5.94397 32.7451 5.94397C33.0209 5.94397 33.2854 6.05353 33.4804 6.24855C33.6754 6.44356 33.785 6.70806 33.785 6.98386V8.01607H34.8172C35.093 8.01607 35.3575 8.12563 35.5525 8.32065C35.7475 8.51566 35.8571 8.78016 35.8571 9.05595C35.8571 9.33175 35.7475 9.59625 35.5525 9.79126C35.3575 9.98628 35.093 10.0958 34.8172 10.0958H33.785V11.1268C33.785 11.4026 33.6754 11.6671 33.4804 11.8621C33.2854 12.0571 33.0209 12.1667 32.7451 12.1667C32.4693 12.1667 32.2048 12.0571 32.0098 11.8621C31.8148 11.6671 31.7052 11.4026 31.7052 11.1268V11.1281Z" fill="#FFD200"/>
</svg>
