<svg width="80" height="50" viewBox="0 0 80 50" fill="none" xmlns="http://www.w3.org/2000/svg">
<ellipse cx="46" cy="18.6296" rx="15" ry="14.6296" fill="url(#paint0_linear_2542_2640)"/>
<path d="M70.7883 36.7542C72.2621 37.9443 77.5435 39.414 80 40.0001L0.252708 30.2623V0.372559C2.88463 -1.11516 12.8859 1.86028 16.0443 9.16366C21.9398 5.70132 26.8351 9.25383 28.5459 11.4629C31.3533 11.4629 37.2312 13.4104 38.284 21.2007C44.6006 19.7941 45.7411 25.5737 45.5218 28.6393C46.3991 28.5942 48.259 29.1262 48.6801 31.6147C51.4173 30.8573 52.8035 32.4713 53.1544 33.3729C54.3387 32.832 57.1549 32.5344 58.9446 35.6722C61.4713 34.8066 64.1207 35.7623 65.1296 36.3484C66.4017 35.9877 69.3144 35.564 70.7883 36.7542Z" fill="#CACDD3"/>
<path d="M35.4719 33.8705L71.3074 39.126L0.180949 30.1047L0.218507 28.6306C1.38612 28.5279 15.7214 31.7298 19.0788 31.4178C18.2939 30.2167 6.21236 27.7191 0.269722 26.6205L0.286793 25.9505C1.47557 25.017 22.8109 29.7303 33.33 32.2037C31.0524 32.053 26.5831 31.8075 26.9269 32.0313C27.2707 32.2552 32.7668 33.3507 35.4719 33.8705Z" fill="#B2BCD0"/>
<path d="M33.2968 27.9627L30.9281 24.4463C31.586 24.0405 34.218 24.852 34.876 26.8807C35.4024 28.5037 34.0425 28.2783 33.2968 27.9627Z" fill="#FFAE60"/>
<path d="M44.0877 33.9139L41.719 30.3975C42.3769 29.9917 45.0089 30.8032 45.6669 32.8319C46.1933 34.4549 44.8334 34.2295 44.0877 33.9139Z" fill="#FFAE60"/>
<path d="M11.8242 15.9134C11.0784 14.2904 9.11327 10.801 7.21829 9.82724C7.61307 9.151 13.4033 12.3969 11.8242 15.9134Z" fill="#E99767"/>
<path d="M7.66805 16.2303L5.29932 12.7139C5.56251 12.7139 7.66805 13.9311 8.45763 15.4188C9.08929 16.609 8.19444 16.4557 7.66805 16.2303Z" fill="#E99767"/>
<path d="M0.2527 2.41504C6.40488 1.01726 11.9401 4.55053 13.9387 6.49189C10.4976 0.434862 3.38093 -0.302869 0.2527 0.0853923V2.41504Z" fill="#E99767"/>
<path d="M14.6857 10.2919C21.7392 9.75093 22.8446 15.5665 22.5814 18.542C24.029 17.1895 24.029 13.9436 23.371 11.5091C23.15 10.4271 21.8445 8.96647 22.5814 9.07467C23.3184 9.18286 24.6431 11.2837 25.2133 12.3206L25.7397 10.4271C26.2222 10.6526 27.2662 11.3468 27.5821 12.3206C30.7404 11.7796 33.2846 14.169 34.1619 15.4313H32.3195C33.6794 15.9272 36.5043 18.001 36.9254 22.3289C43.5578 22.3289 44.5141 27.5585 44.1632 30.1733C44.3825 30.3085 45.0054 30.0651 45.7424 28.0093C46.0055 23.0052 45.216 20.706 38.6362 20.706C39.6889 17.46 35.0831 11.3739 28.1085 10.9681C23.7658 4.74676 15.4752 8.66894 14.6857 10.2919Z" fill="#FFA85A"/>
<path d="M25.5192 25.4264C27.3089 24.8854 28.8969 27.1846 29.4671 28.4019C29.4671 28.7265 28.9407 28.7175 28.6775 28.6724L26.0456 26.6437C25.9579 27.6355 25.6245 29.4568 24.9928 28.8076C24.4665 24.9125 21.1765 23.7584 19.5974 23.6682C18.6324 23.8035 16.8339 24.6961 17.3603 27.1846C14.8336 22.9649 6.04299 21.0985 1.9635 20.6928C2.97241 21.8198 5.56924 24.3444 7.88533 25.4264C6.41146 25.4264 2.18283 23.3526 0.252754 22.3157V17.0411C2.7794 18.5558 13.2369 20.5575 18.1498 21.369C20.2992 21.5042 24.7823 22.5051 25.5192 25.4264Z" fill="url(#paint1_linear_2542_2640)"/>
<path d="M65.3928 36.1834C66.3403 35.5342 69.0336 36.1834 70.2619 36.5892C66.4456 36.5892 67.4984 36.9949 65.1296 36.9949C64.2874 35.9129 60.7431 36.2736 59.0762 36.5892C58.9446 35.962 58.2077 34.4888 56.3127 33.6137C57.1549 33.1809 58.8569 34.7859 59.6026 35.6424C60.8747 35.1916 63.8137 34.6686 65.3928 36.1834Z" fill="#FFAE60"/>
<path d="M22.5446 46.6833C16.7221 48.8784 5.09688 48.1798 0.0120443 47.556C0.0810092 46.4575 0.20913 39.8985 0.169878 22.4505C4.96125 18.423 10.8349 23.8701 13.1728 27.0971C15.4159 25.6741 21.3435 24.511 27.1098 31.2423C36.0637 28.4583 40.1255 33.8602 41.0372 36.9091C42.6533 36.4966 46.4393 36.4359 48.6541 39.493C51.797 37.0782 55.6621 40.2133 57.2018 42.0827C58.6816 43.6137 59.4517 45.4951 70.017 46.9818C67.0307 48.1803 54.2517 47.3899 48.2356 46.8448C42.557 49.8523 38.5326 50.3342 32.2109 49.0265C29.0508 48.2458 28.5108 45.3006 22.5446 46.6833Z" fill="#CACDD3"/>
<path d="M47.4015 42.2205C51.2853 40.419 55.3462 42.0168 56.8912 43.041L59.4753 46.6076C58.7306 46.6029 56.8674 46.8324 55.195 46.3271C52.7507 44.7085 33.2496 48.4823 32.104 47.1963C30.0439 45.9145 21.3175 45.3533 19.8266 45.5975C18.7112 45.3369 6.48145 46.0209 0.279084 45.4747C0.25529 39.3881 0.245575 27.1137 0.39706 26.7089C0.586418 26.2029 7.29798 24.7235 11.1756 29.8199C15.0427 30.6557 15.9925 33.5697 15.984 34.9222C17.4145 34.4239 20.6433 34.1399 22.1148 36.9895C23.4679 34.9692 25.5416 34.8132 26.4094 34.9877C26.4141 34.2269 27.1315 32.6591 29.9625 32.474C38.2976 33.338 34.6383 38.928 31.7667 41.615C32.3846 42.0416 34.5548 42.3426 38.2921 40.1344C42.9638 37.3741 44.076 38.142 47.4015 42.2205Z" fill="url(#paint2_linear_2542_2640)"/>
<defs>
<linearGradient id="paint0_linear_2542_2640" x1="50.0741" y1="23.8148" x2="42.8519" y2="8.07407" gradientUnits="userSpaceOnUse">
<stop stop-color="#FFA85A"/>
<stop offset="1" stop-color="#FFC272"/>
</linearGradient>
<linearGradient id="paint1_linear_2542_2640" x1="24.598" y1="21.2338" x2="-3.75278" y2="31.675" gradientUnits="userSpaceOnUse">
<stop stop-color="#FFA85A"/>
<stop offset="1" stop-color="#F1F1F1"/>
</linearGradient>
<linearGradient id="paint2_linear_2542_2640" x1="46.1728" y1="23.9324" x2="-26.8467" y2="60.8111" gradientUnits="userSpaceOnUse">
<stop stop-color="#FFA85A"/>
<stop offset="1" stop-color="#F1F1F1" stop-opacity="0.8"/>
</linearGradient>
</defs>
</svg>
