<svg width="85" height="65" viewBox="0 0 85 65" fill="none" xmlns="http://www.w3.org/2000/svg">
<path d="M77.8413 55.8361C78.3467 54.3932 79.3996 54.159 79.8628 54.2223C79.8628 54.2223 80.5604 54.2855 81 54.2223C89.5 53 81 64 81 64L-1.00002 64C-0.789436 53.4629 -0.368271 31.819 -0.368271 29.5407C0.541435 28.4775 2.53773 29.2242 3.42217 29.7305C4.64354 29.4141 7.3137 29.2939 8.2234 31.3443C12.1655 30.509 14.4145 32.0088 15.0462 32.8632C16.436 32.9265 19.1399 33.8884 18.8367 37.2299C22.8798 40.1917 20.9425 42.3245 19.4684 43.0206C20.3107 43.3371 21.8185 44.1408 21.1109 44.8243C26.1648 44.6344 25.6595 47.7671 26.2912 47.0077C26.9229 46.2482 34.7565 42.6409 40.0632 45.8685C40.4675 44.1218 43.7694 43.6851 45.3698 43.6852C46.2795 41.179 49.6656 41.217 51.9399 41.217C52.5716 41.217 54.5932 41.255 57.1202 42.1663C60.2789 43.3054 60.4052 47.4823 60.0262 49.1911C59.7229 50.558 61.6687 51.7858 62.6795 52.2288C63.1006 52.1655 64.6758 52.6655 67.6071 55.1716C70.8416 54.2603 74.1772 56.5639 75.4407 57.8296C75.6091 57.3233 76.3251 56.2158 77.8413 55.8361Z" fill="#B7C4E2"/>
<path d="M5.22163 59.4024C3.38767 57.9465 0.976357 58.4126 -6.10352e-05 58.8277V64.0001C-6.10352e-05 64.0001 80.2452 64.8622 80.8726 63.617C81.4999 62.3717 82.3584 59.8175 80.8726 59.6898C79.3867 59.562 76.3386 59.594 76.033 60.7434C75.2179 60.4369 73.9952 61.5735 73.4858 62.1802C73.2311 61.6693 72.0848 60.9924 69.5377 62.3717C68.2641 59.3066 60.4952 59.9771 58.7122 61.5097C57.5914 59.7472 55.0188 60.3922 53.8726 60.935C53.7452 60.5518 53.1594 59.8622 51.8348 60.1687C50.7141 59.5557 49.6697 60.2325 49.2877 60.6476C49.0754 60.456 48.3962 60.1495 47.3773 60.456C45.9509 57.8507 39.4811 58.668 36.4245 59.4024C32.8584 58.3807 24.8094 56.8353 21.1414 58.8277C19.9952 58.253 7.76881 56.912 5.22163 59.4024Z" fill="#A2B1D1"/>
<path d="M58.4576 63.3296C60.0877 62.7165 63.5519 63.2018 65.0802 63.5211L18.467 63.5211C19.6896 62.0652 23.0519 62.1482 24.5802 62.3717C25.5566 61.4458 28.5793 59.9388 32.8585 61.3181C37.3415 60.092 40.5849 61.8289 41.6462 62.8506C43.1745 62.4356 46.4349 61.7587 47.25 62.3717C48.0651 62.9847 51.0708 63.0741 52.4717 63.0422C53.2783 62.6591 55.6047 62.1801 58.4576 63.3296Z" fill="#8E9CC0"/>
<path d="M11.7169 63.138C14.1621 59.7663 17.6603 60.1367 19.1036 60.7433C22.6697 58.3487 26.9999 58.4445 25.981 58.7319C24.9621 59.0192 21.5235 60.0729 19.1036 61.797C14.3914 60.7434 14.7735 62.1801 11.7169 63.138Z" fill="#E1F1FF"/>
<path d="M76.033 60.5518C77.2557 59.4023 79.5991 59.4981 80.6179 59.6897H81C81 59.9132 80.9745 60.4368 80.8726 60.7433C78.0198 60.2069 76.6274 60.9668 76.2877 61.4138C75.4811 61.35 73.766 61.4905 73.3585 62.5633C71.8302 61.8928 69.5377 63.0422 69.4104 63.0422C69.3085 63.0422 66.3962 62.0843 64.9528 61.6054L67.1179 61.5096C67.5 61.4458 67.4236 61.069 64.0613 60.0728C65.4623 59.9771 68.3915 60.6476 69.6651 62.3717C70.8877 61.4521 72.467 61.6693 73.1038 61.8928C73.0613 61.2861 73.5877 60.1686 76.033 60.5518Z" fill="#E1F1FF"/>
<path d="M6.24052 45.1302C8.27825 44.7471 10.2311 46.5032 10.9528 47.4291C11.4622 47.659 12.099 48.0357 12.3537 48.1954C12.6084 46.8225 11.8952 44.0958 7.00467 44.1724C7.13202 43.4061 5.22165 39.1916 0.127308 40.6283C2.41976 40.9157 4.71221 42.0651 6.24052 45.1302Z" fill="#E1F1FF"/>
<path d="M4.8396 35.5517C4.43205 34.8621 2.97167 34.7535 2.29243 34.7854C1.57923 34.7854 1.91034 34.4981 1.91034 34.4981C1.91034 34.4981 2.67449 34.0958 4.71223 34.7854C6.74996 35.4751 7.3443 34.4981 7.38675 33.9234C7.30185 33.3167 6.36789 32.2376 3.31129 32.774C2.90374 31.3947 1.01883 31.3691 0.127323 31.5287C0.0848694 31.0179 0.0254364 29.9196 0.127323 29.613C0.254681 29.2299 2.0377 28.751 3.82072 29.9004C6.97921 29.364 8.36318 30.7625 8.66035 31.5287C10.9528 31.2414 12.8632 30.7625 15.5377 33.0613C19.0018 33.5977 19.4434 36.1584 19.2311 37.3717C19.8679 38.1379 23.9434 40.4368 19.7405 43.3104C21.8802 43.8467 21.7358 44.7471 21.3962 45.1303C21.7783 45.0664 22.7717 45.0153 23.6886 45.3218C28.6811 47.0077 25.1745 48.5785 22.7971 49.1533C22.1179 48.802 20.7849 47.9464 20.8867 47.3333C20.9886 46.7203 19.4009 46.1839 18.5943 45.9923C18.5094 45.4176 17.7283 44.3448 15.283 44.6513C14.2641 43.1954 13.0754 43.0869 12.6084 43.2146C12.1415 42.8953 11.2839 42.2376 11.5896 42.1609C11.9717 42.0651 12.6084 40.5326 10.0613 39.0958C11.9717 39.6705 10.9528 37.8506 11.3349 37.3717C12.15 37.3717 12.1839 38.8404 12.099 39.5747C12.5235 39.3193 13.3726 39.5556 13.3726 42.5441C17.3207 44.7471 19.3584 40.9157 16.4292 39.7663C17.8301 39.6705 18.4669 37.0843 17.9575 37.3717C17.5499 37.6015 17.0235 38.0422 16.8113 38.2337C16.7688 37.7548 16.4292 36.7586 15.4103 36.6054C15.7924 36.2222 15.6651 33.636 14.0094 33.636C14.7736 34.2107 14.2641 34.977 13.3726 34.7854C7.3613 34.0192 7.72639 35.1047 8.66035 35.7433C7.55658 35.9668 5.24714 36.2414 4.8396 35.5517Z" fill="#E1F1FF"/>
<path d="M78.1651 56.6284C78.3689 55.6322 79.6934 55.1277 80.3302 55V56.2452C79.9481 56.2452 79.0566 56.4559 78.5472 57.2989C77.834 57.1456 76.5519 57.9374 76 58.3525C76 57.9055 76.433 56.9349 78.1651 56.6284Z" fill="#E1F1FF"/>
<path d="M49.1602 44.3641C56.2923 45.207 59.8584 48.2913 60.7499 49.728C63.5518 44.0767 55.9102 40.2453 52.5989 41.6821C50.9687 41.2223 49.6272 41.6182 49.1602 41.8736C50.8159 42.0013 54.2291 42.5441 54.6367 43.6936C57.0565 43.5978 57.3112 45.7051 57.0565 45.2261C56.8527 44.843 54.5942 44.6195 53.4904 44.5556C52.3442 44.0448 49.8735 43.2913 49.1602 44.3641Z" fill="#E1F1FF"/>
<path d="M51.4485 54.1894C52.6112 53.3465 54.1937 54.349 54.8397 54.9557C53.0569 53.9595 51.9653 54.349 51.6423 54.6683C51.5777 54.7322 51.3129 54.8407 50.7703 54.7641C50.6928 53.7679 49.1877 53.7743 48.4449 53.902L45.0538 54.8599L45.2476 54.4768C45.732 54.0298 46.449 52.9825 45.4413 52.3695C44.4337 51.7564 43.2775 52.3695 42.8253 52.7526C42.3086 52.561 41.2557 52.4461 41.1782 53.5189C40.4806 52.8292 39.0789 52.8484 38.4653 52.9442C38.5299 52.4333 38.2521 51.4116 36.6243 51.4116C35.1516 50.3388 33.3624 50.326 32.6519 50.4538C32.6196 50.5176 32.555 50.3963 32.555 49.4001C33.8727 48.404 36.4629 49.8152 37.5933 50.6453C37.9485 50.0068 39.5504 49.3043 43.116 51.6032C46.604 51.3733 48.1866 52.7845 48.5418 53.5189C48.8325 52.9761 49.8208 52.3503 51.4485 54.1894Z" fill="#E0EFFF"/>
<g filter="url(#filter0_d_1751_994)">
<circle r="7.5" transform="matrix(-1 0 0 1 37.5 32.5)" fill="url(#paint0_linear_1751_994)"/>
</g>
<defs>
<filter id="filter0_d_1751_994" x="5" y="0" width="65" height="65" filterUnits="userSpaceOnUse" color-interpolation-filters="sRGB">
<feFlood flood-opacity="0" result="BackgroundImageFix"/>
<feColorMatrix in="SourceAlpha" type="matrix" values="0 0 0 0 0 0 0 0 0 0 0 0 0 0 0 0 0 0 127 0" result="hardAlpha"/>
<feOffset/>
<feGaussianBlur stdDeviation="12.5"/>
<feComposite in2="hardAlpha" operator="out"/>
<feColorMatrix type="matrix" values="0 0 0 0 0.956863 0 0 0 0 0.745098 0 0 0 0 0.235294 0 0 0 1 0"/>
<feBlend mode="normal" in2="BackgroundImageFix" result="effect1_dropShadow_1751_994"/>
<feBlend mode="normal" in="SourceGraphic" in2="effect1_dropShadow_1751_994" result="shape"/>
</filter>
<linearGradient id="paint0_linear_1751_994" x1="9.53704" y1="10.1582" x2="5.77432" y2="2.15993" gradientUnits="userSpaceOnUse">
<stop stop-color="#F3BD3B"/>
<stop offset="1" stop-color="#FEF2CB"/>
</linearGradient>
</defs>
</svg>
