<svg width="110" height="110" viewBox="0 0 110 110" fill="none" xmlns="http://www.w3.org/2000/svg">
<circle cx="55" cy="55" r="55" fill="#F2F2F2"/>
<path d="M79.975 38.8067V30.16C79.975 28.9652 79.0098 28 77.815 28H32.185C30.9903 28 30.025 28.9652 30.025 30.16V38.8067C28.8978 38.8742 28 39.8125 28 40.96V49.8497C27.9957 51.4835 28.3265 53.1009 28.972 54.6017C29.2623 55.2902 29.62 55.9382 30.025 56.5525V79.84C30.025 81.028 30.9903 82 32.185 82H77.815C79.0098 82 79.975 81.0347 79.975 79.84V56.5525C80.3864 55.9367 80.7389 55.2836 81.028 54.6017C81.6693 53.0965 82 51.4967 82 49.8497V40.96C82 39.8125 81.1023 38.8742 79.975 38.8067ZM34.885 32.86H75.115V38.8H34.885V32.86ZM59.32 77.1467H50.68V70.12H59.32V77.1467ZM75.115 77.1467H63.64V67.96C63.64 66.7652 62.6748 65.8 61.48 65.8H48.52C47.3253 65.8 46.36 66.7652 46.36 67.96V77.1467H34.885V60.7982C35.0808 60.8927 35.2833 60.9872 35.4925 61.0682C36.9978 61.7027 38.5975 62.02 40.2445 62.02C41.8915 62.02 43.4845 61.7027 44.9965 61.0682C45.928 60.6767 46.8055 60.1772 47.6088 59.5765C47.6223 59.5697 47.6358 59.5697 47.6493 59.5765C48.455 60.1798 49.3325 60.6809 50.2615 61.0682C51.7668 61.7027 53.3665 62.02 55.0135 62.02C56.6605 62.02 58.2535 61.7027 59.7655 61.0682C60.697 60.6767 61.5745 60.1772 62.3778 59.5765C62.3913 59.5697 62.4048 59.5697 62.4183 59.5765C63.224 60.1798 64.1015 60.6809 65.0305 61.0682C66.5358 61.7027 68.1355 62.02 69.7825 62.02C71.4295 62.02 73.0225 61.7027 74.5345 61.0682C74.737 60.9805 74.9395 60.8927 75.142 60.7982V77.1467H75.115ZM77.14 49.8497C77.14 53.8862 73.8325 57.16 69.7623 57.16C67.0083 57.16 64.6053 55.6682 63.3363 53.4542C63.1405 53.1167 62.7895 52.9075 62.398 52.9075H62.3575C61.9728 52.9075 61.615 53.1167 61.4193 53.4542C60.7717 54.5836 59.8366 55.5214 58.7091 56.1723C57.5816 56.8232 56.3019 57.164 55 57.16C52.2528 57.16 49.8565 55.675 48.5875 53.4677C48.385 53.1235 48.0205 52.9075 47.6223 52.9075C47.224 52.9075 46.8528 53.1235 46.657 53.4677C46.0057 54.5928 45.0694 55.5264 43.9425 56.1746C42.8156 56.8228 41.5378 57.1626 40.2378 57.16C36.1675 57.16 32.86 53.8862 32.86 49.8497V43.6937C32.86 43.6735 32.8735 43.66 32.8938 43.66H77.1063C77.1265 43.66 77.14 43.6735 77.14 43.6937V49.8497Z" fill="#636363"/>
</svg>
