<svg width="150" height="150" viewBox="0 0 150 150" fill="none" xmlns="http://www.w3.org/2000/svg">
<circle cx="75" cy="75" r="75" fill="#C4C4C4"/>
<path d="M42.6475 88.8906V96H41.4316V88.8906H42.6475ZM44.8789 88.8906V89.8672H39.2197V88.8906H44.8789ZM48.0234 94.9404V92.4209C48.0234 92.2321 47.9893 92.0693 47.9209 91.9326C47.8525 91.7959 47.7484 91.6901 47.6084 91.6152C47.4717 91.5404 47.2992 91.5029 47.0908 91.5029C46.8988 91.5029 46.7327 91.5355 46.5928 91.6006C46.4528 91.6657 46.3438 91.7536 46.2656 91.8643C46.1875 91.9749 46.1484 92.1003 46.1484 92.2402H44.9766C44.9766 92.0319 45.027 91.8301 45.1279 91.6348C45.2288 91.4395 45.3753 91.2653 45.5674 91.1123C45.7594 90.9593 45.9889 90.8389 46.2559 90.751C46.5228 90.6631 46.8223 90.6191 47.1543 90.6191C47.5514 90.6191 47.903 90.6859 48.209 90.8193C48.5182 90.9528 48.7607 91.1546 48.9365 91.4248C49.1156 91.6917 49.2051 92.027 49.2051 92.4307V94.7793C49.2051 95.0202 49.2214 95.2367 49.2539 95.4287C49.2897 95.6175 49.3402 95.7819 49.4053 95.9219V96H48.1992C48.1439 95.873 48.0999 95.7119 48.0674 95.5166C48.0381 95.318 48.0234 95.126 48.0234 94.9404ZM48.1943 92.7871L48.2041 93.5146H47.3594C47.1413 93.5146 46.9492 93.5358 46.7832 93.5781C46.6172 93.6172 46.4788 93.6758 46.3682 93.7539C46.2575 93.832 46.1745 93.9264 46.1191 94.0371C46.0638 94.1478 46.0361 94.2731 46.0361 94.4131C46.0361 94.5531 46.0687 94.6816 46.1338 94.7988C46.1989 94.9128 46.2933 95.0023 46.417 95.0674C46.5439 95.1325 46.6969 95.165 46.876 95.165C47.1169 95.165 47.3268 95.1162 47.5059 95.0186C47.6882 94.9176 47.8314 94.7956 47.9355 94.6523C48.0397 94.5059 48.0951 94.3675 48.1016 94.2373L48.4824 94.7598C48.4434 94.8932 48.3766 95.0365 48.2822 95.1895C48.1878 95.3424 48.0641 95.4889 47.9111 95.6289C47.7614 95.7656 47.5807 95.8779 47.3691 95.9658C47.1608 96.0537 46.9199 96.0977 46.6465 96.0977C46.3014 96.0977 45.9938 96.0293 45.7236 95.8926C45.4535 95.7526 45.2419 95.5654 45.0889 95.3311C44.9359 95.0934 44.8594 94.8249 44.8594 94.5254C44.8594 94.2454 44.9115 93.998 45.0156 93.7832C45.123 93.5651 45.2793 93.3828 45.4844 93.2363C45.6927 93.0898 45.9466 92.9792 46.2461 92.9043C46.5456 92.8262 46.8874 92.7871 47.2715 92.7871H48.1943ZM51.6123 91.791V96H50.4355V90.7168H51.5439L51.6123 91.791ZM51.4219 93.1631L51.0215 93.1582C51.0215 92.7936 51.0671 92.4567 51.1582 92.1475C51.2493 91.8382 51.3828 91.5697 51.5586 91.3418C51.7344 91.1107 51.9525 90.9333 52.2129 90.8096C52.4766 90.6826 52.7809 90.6191 53.126 90.6191C53.3669 90.6191 53.5866 90.6549 53.7852 90.7266C53.987 90.7949 54.1611 90.904 54.3076 91.0537C54.4574 91.2035 54.5713 91.3955 54.6494 91.6299C54.7308 91.8643 54.7715 92.1475 54.7715 92.4795V96H53.5947V92.582C53.5947 92.3249 53.5557 92.123 53.4775 91.9766C53.4027 91.8301 53.2936 91.7259 53.1504 91.6641C53.0104 91.599 52.8428 91.5664 52.6475 91.5664C52.4261 91.5664 52.2373 91.6087 52.0811 91.6934C51.9281 91.778 51.8027 91.8936 51.7051 92.04C51.6074 92.1865 51.5358 92.3558 51.4902 92.5479C51.4447 92.7399 51.4219 92.945 51.4219 93.1631ZM54.6982 92.8506L54.1465 92.9727C54.1465 92.6536 54.1904 92.3525 54.2783 92.0693C54.3695 91.7829 54.5013 91.5322 54.6738 91.3174C54.8496 91.0993 55.0661 90.9284 55.3232 90.8047C55.5804 90.681 55.875 90.6191 56.207 90.6191C56.4772 90.6191 56.7181 90.6566 56.9297 90.7314C57.1445 90.8031 57.3268 90.917 57.4766 91.0732C57.6263 91.2295 57.7402 91.4329 57.8184 91.6836C57.8965 91.931 57.9355 92.2305 57.9355 92.582V96H56.7539V92.5771C56.7539 92.3102 56.7148 92.1035 56.6367 91.957C56.5618 91.8105 56.4544 91.7096 56.3145 91.6543C56.1745 91.5957 56.0068 91.5664 55.8115 91.5664C55.6292 91.5664 55.4681 91.6006 55.3281 91.6689C55.1914 91.734 55.0758 91.8268 54.9814 91.9473C54.887 92.0645 54.8154 92.1995 54.7666 92.3525C54.721 92.5055 54.6982 92.6715 54.6982 92.8506ZM59.1514 88.5H60.3281V94.8721L60.2158 96H59.1514V88.5ZM63.7754 93.3096V93.4121C63.7754 93.8027 63.7314 94.1624 63.6436 94.4912C63.5589 94.8167 63.4287 95.0999 63.2529 95.3408C63.0804 95.5817 62.8656 95.7689 62.6084 95.9023C62.3545 96.0326 62.0599 96.0977 61.7246 96.0977C61.3958 96.0977 61.1094 96.0358 60.8652 95.9121C60.6211 95.7884 60.416 95.6126 60.25 95.3848C60.0872 95.1569 59.9554 94.8851 59.8545 94.5693C59.7536 94.2536 59.682 93.9053 59.6396 93.5244V93.1973C59.682 92.8132 59.7536 92.4648 59.8545 92.1523C59.9554 91.8366 60.0872 91.5648 60.25 91.3369C60.416 91.1058 60.6195 90.9284 60.8604 90.8047C61.1045 90.681 61.3893 90.6191 61.7148 90.6191C62.0534 90.6191 62.3512 90.6842 62.6084 90.8145C62.8688 90.9447 63.0853 91.1302 63.2578 91.3711C63.4303 91.6087 63.5589 91.8919 63.6436 92.2207C63.7314 92.5495 63.7754 92.9124 63.7754 93.3096ZM62.5986 93.4121V93.3096C62.5986 93.0719 62.5791 92.849 62.54 92.6406C62.501 92.429 62.4359 92.2435 62.3447 92.084C62.2568 91.9245 62.1364 91.7992 61.9834 91.708C61.8337 91.6136 61.6465 91.5664 61.4219 91.5664C61.2135 91.5664 61.0345 91.6022 60.8848 91.6738C60.735 91.7454 60.6097 91.8431 60.5088 91.9668C60.4079 92.0905 60.3281 92.2337 60.2695 92.3965C60.2142 92.5592 60.1768 92.735 60.1572 92.9238V93.8076C60.1865 94.0518 60.2484 94.2764 60.3428 94.4814C60.4404 94.6833 60.5771 94.846 60.7529 94.9697C60.9287 95.0902 61.1549 95.1504 61.4316 95.1504C61.6497 95.1504 61.8337 95.1064 61.9834 95.0186C62.1331 94.9307 62.252 94.8086 62.3398 94.6523C62.431 94.4928 62.4961 94.3073 62.5352 94.0957C62.5775 93.8841 62.5986 93.6562 62.5986 93.4121ZM67.75 94.9404V92.4209C67.75 92.2321 67.7158 92.0693 67.6475 91.9326C67.5791 91.7959 67.4749 91.6901 67.335 91.6152C67.1982 91.5404 67.0257 91.5029 66.8174 91.5029C66.6253 91.5029 66.4593 91.5355 66.3193 91.6006C66.1794 91.6657 66.0703 91.7536 65.9922 91.8643C65.9141 91.9749 65.875 92.1003 65.875 92.2402H64.7031C64.7031 92.0319 64.7536 91.8301 64.8545 91.6348C64.9554 91.4395 65.1019 91.2653 65.2939 91.1123C65.486 90.9593 65.7155 90.8389 65.9824 90.751C66.2493 90.6631 66.5488 90.6191 66.8809 90.6191C67.278 90.6191 67.6296 90.6859 67.9355 90.8193C68.2448 90.9528 68.4873 91.1546 68.6631 91.4248C68.8421 91.6917 68.9316 92.027 68.9316 92.4307V94.7793C68.9316 95.0202 68.9479 95.2367 68.9805 95.4287C69.0163 95.6175 69.0667 95.7819 69.1318 95.9219V96H67.9258C67.8704 95.873 67.8265 95.7119 67.7939 95.5166C67.7646 95.318 67.75 95.126 67.75 94.9404ZM67.9209 92.7871L67.9307 93.5146H67.0859C66.8678 93.5146 66.6758 93.5358 66.5098 93.5781C66.3438 93.6172 66.2054 93.6758 66.0947 93.7539C65.984 93.832 65.901 93.9264 65.8457 94.0371C65.7904 94.1478 65.7627 94.2731 65.7627 94.4131C65.7627 94.5531 65.7952 94.6816 65.8604 94.7988C65.9255 94.9128 66.0199 95.0023 66.1436 95.0674C66.2705 95.1325 66.4235 95.165 66.6025 95.165C66.8434 95.165 67.0534 95.1162 67.2324 95.0186C67.4147 94.9176 67.5579 94.7956 67.6621 94.6523C67.7663 94.5059 67.8216 94.3675 67.8281 94.2373L68.209 94.7598C68.1699 94.8932 68.1032 95.0365 68.0088 95.1895C67.9144 95.3424 67.7907 95.4889 67.6377 95.6289C67.488 95.7656 67.3073 95.8779 67.0957 95.9658C66.8874 96.0537 66.6465 96.0977 66.373 96.0977C66.028 96.0977 65.7204 96.0293 65.4502 95.8926C65.18 95.7526 64.9684 95.5654 64.8154 95.3311C64.6624 95.0934 64.5859 94.8249 64.5859 94.5254C64.5859 94.2454 64.638 93.998 64.7422 93.7832C64.8496 93.5651 65.0059 93.3828 65.2109 93.2363C65.4193 93.0898 65.6732 92.9792 65.9727 92.9043C66.2721 92.8262 66.6139 92.7871 66.998 92.7871H67.9209ZM71.3242 88.5V96H70.1523V88.5H71.3242ZM71.1191 93.1631L70.7383 93.1582C70.7415 92.7936 70.792 92.4567 70.8896 92.1475C70.9906 91.8382 71.1305 91.5697 71.3096 91.3418C71.4919 91.1107 71.71 90.9333 71.9639 90.8096C72.2178 90.6826 72.4993 90.6191 72.8086 90.6191C73.069 90.6191 73.3034 90.6549 73.5117 90.7266C73.7233 90.7982 73.9056 90.9137 74.0586 91.0732C74.2116 91.2295 74.3271 91.4346 74.4053 91.6885C74.4867 91.9391 74.5273 92.2451 74.5273 92.6064V96H73.3457V92.5967C73.3457 92.3428 73.3083 92.141 73.2334 91.9912C73.1618 91.8415 73.056 91.734 72.916 91.6689C72.776 91.6006 72.6051 91.5664 72.4033 91.5664C72.1917 91.5664 72.0046 91.6087 71.8418 91.6934C71.6823 91.778 71.5488 91.8936 71.4414 92.04C71.334 92.1865 71.2526 92.3558 71.1973 92.5479C71.1452 92.7399 71.1191 92.945 71.1191 93.1631ZM81.5928 90.7168H82.6621V95.8535C82.6621 96.3288 82.5612 96.7324 82.3594 97.0645C82.1576 97.3965 81.876 97.6488 81.5146 97.8213C81.1533 97.9971 80.735 98.085 80.2598 98.085C80.0579 98.085 79.8333 98.0557 79.5859 97.9971C79.3418 97.9385 79.1042 97.8441 78.873 97.7139C78.6452 97.5869 78.4548 97.4193 78.3018 97.2109L78.8535 96.5176C79.0423 96.7422 79.2507 96.9066 79.4785 97.0107C79.7064 97.1149 79.9456 97.167 80.1963 97.167C80.4665 97.167 80.696 97.1165 80.8848 97.0156C81.0768 96.918 81.2249 96.7731 81.3291 96.5811C81.4333 96.389 81.4854 96.1546 81.4854 95.8779V91.9131L81.5928 90.7168ZM78.0039 93.417V93.3145C78.0039 92.9141 78.0527 92.5495 78.1504 92.2207C78.248 91.8887 78.388 91.6038 78.5703 91.3662C78.7526 91.1253 78.974 90.9414 79.2344 90.8145C79.4948 90.6842 79.7894 90.6191 80.1182 90.6191C80.46 90.6191 80.7513 90.681 80.9922 90.8047C81.2363 90.9284 81.4398 91.1058 81.6025 91.3369C81.7653 91.5648 81.8923 91.8382 81.9834 92.1572C82.0778 92.473 82.1478 92.8245 82.1934 93.2119V93.5391C82.151 93.9167 82.0794 94.2617 81.9785 94.5742C81.8776 94.8867 81.7441 95.1569 81.5781 95.3848C81.4121 95.6126 81.207 95.7884 80.9629 95.9121C80.722 96.0358 80.4372 96.0977 80.1084 96.0977C79.7861 96.0977 79.4948 96.0309 79.2344 95.8975C78.9772 95.764 78.7559 95.5768 78.5703 95.3359C78.388 95.0951 78.248 94.8118 78.1504 94.4863C78.0527 94.1576 78.0039 93.8011 78.0039 93.417ZM79.1807 93.3145V93.417C79.1807 93.6579 79.2035 93.8825 79.249 94.0908C79.2979 94.2992 79.3711 94.4831 79.4688 94.6426C79.5697 94.7988 79.6966 94.9225 79.8496 95.0137C80.0059 95.1016 80.1898 95.1455 80.4014 95.1455C80.6781 95.1455 80.9043 95.0869 81.0801 94.9697C81.2591 94.8525 81.3958 94.6947 81.4902 94.4961C81.5879 94.2943 81.6562 94.0697 81.6953 93.8223V92.9385C81.6758 92.7464 81.6351 92.5674 81.5732 92.4014C81.5146 92.2354 81.4349 92.0905 81.334 91.9668C81.2331 91.8398 81.1061 91.7422 80.9531 91.6738C80.8001 91.6022 80.6195 91.5664 80.4111 91.5664C80.1995 91.5664 80.0156 91.612 79.8594 91.7031C79.7031 91.7943 79.5745 91.9196 79.4736 92.0791C79.376 92.2386 79.3027 92.4242 79.2539 92.6357C79.2051 92.8473 79.1807 93.0736 79.1807 93.3145ZM86.8613 94.9404V92.4209C86.8613 92.2321 86.8271 92.0693 86.7588 91.9326C86.6904 91.7959 86.5863 91.6901 86.4463 91.6152C86.3096 91.5404 86.137 91.5029 85.9287 91.5029C85.7367 91.5029 85.5706 91.5355 85.4307 91.6006C85.2907 91.6657 85.1816 91.7536 85.1035 91.8643C85.0254 91.9749 84.9863 92.1003 84.9863 92.2402H83.8145C83.8145 92.0319 83.8649 91.8301 83.9658 91.6348C84.0667 91.4395 84.2132 91.2653 84.4053 91.1123C84.5973 90.9593 84.8268 90.8389 85.0938 90.751C85.3607 90.6631 85.6602 90.6191 85.9922 90.6191C86.3893 90.6191 86.7409 90.6859 87.0469 90.8193C87.3561 90.9528 87.5986 91.1546 87.7744 91.4248C87.9535 91.6917 88.043 92.027 88.043 92.4307V94.7793C88.043 95.0202 88.0592 95.2367 88.0918 95.4287C88.1276 95.6175 88.1781 95.7819 88.2432 95.9219V96H87.0371C86.9818 95.873 86.9378 95.7119 86.9053 95.5166C86.876 95.318 86.8613 95.126 86.8613 94.9404ZM87.0322 92.7871L87.042 93.5146H86.1973C85.9792 93.5146 85.7871 93.5358 85.6211 93.5781C85.4551 93.6172 85.3167 93.6758 85.2061 93.7539C85.0954 93.832 85.0124 93.9264 84.957 94.0371C84.9017 94.1478 84.874 94.2731 84.874 94.4131C84.874 94.5531 84.9066 94.6816 84.9717 94.7988C85.0368 94.9128 85.1312 95.0023 85.2549 95.0674C85.3818 95.1325 85.5348 95.165 85.7139 95.165C85.9548 95.165 86.1647 95.1162 86.3438 95.0186C86.526 94.9176 86.6693 94.7956 86.7734 94.6523C86.8776 94.5059 86.9329 94.3675 86.9395 94.2373L87.3203 94.7598C87.2812 94.8932 87.2145 95.0365 87.1201 95.1895C87.0257 95.3424 86.902 95.4889 86.749 95.6289C86.5993 95.7656 86.4186 95.8779 86.207 95.9658C85.9987 96.0537 85.7578 96.0977 85.4844 96.0977C85.1393 96.0977 84.8317 96.0293 84.5615 95.8926C84.2913 95.7526 84.0798 95.5654 83.9268 95.3311C83.7738 95.0934 83.6973 94.8249 83.6973 94.5254C83.6973 94.2454 83.7493 93.998 83.8535 93.7832C83.9609 93.5651 84.1172 93.3828 84.3223 93.2363C84.5306 93.0898 84.7845 92.9792 85.084 92.9043C85.3835 92.8262 85.7253 92.7871 86.1094 92.7871H87.0322ZM90.4502 91.791V96H89.2734V90.7168H90.3818L90.4502 91.791ZM90.2598 93.1631L89.8594 93.1582C89.8594 92.7936 89.9049 92.4567 89.9961 92.1475C90.0872 91.8382 90.2207 91.5697 90.3965 91.3418C90.5723 91.1107 90.7904 90.9333 91.0508 90.8096C91.3145 90.6826 91.6188 90.6191 91.9639 90.6191C92.2048 90.6191 92.4245 90.6549 92.623 90.7266C92.8249 90.7949 92.999 90.904 93.1455 91.0537C93.2952 91.2035 93.4092 91.3955 93.4873 91.6299C93.5687 91.8643 93.6094 92.1475 93.6094 92.4795V96H92.4326V92.582C92.4326 92.3249 92.3936 92.123 92.3154 91.9766C92.2406 91.8301 92.1315 91.7259 91.9883 91.6641C91.8483 91.599 91.6807 91.5664 91.4854 91.5664C91.264 91.5664 91.0752 91.6087 90.9189 91.6934C90.766 91.778 90.6406 91.8936 90.543 92.04C90.4453 92.1865 90.3737 92.3558 90.3281 92.5479C90.2826 92.7399 90.2598 92.945 90.2598 93.1631ZM93.5361 92.8506L92.9844 92.9727C92.9844 92.6536 93.0283 92.3525 93.1162 92.0693C93.2074 91.7829 93.3392 91.5322 93.5117 91.3174C93.6875 91.0993 93.904 90.9284 94.1611 90.8047C94.4183 90.681 94.7129 90.6191 95.0449 90.6191C95.3151 90.6191 95.556 90.6566 95.7676 90.7314C95.9824 90.8031 96.1647 90.917 96.3145 91.0732C96.4642 91.2295 96.5781 91.4329 96.6562 91.6836C96.7344 91.931 96.7734 92.2305 96.7734 92.582V96H95.5918V92.5771C95.5918 92.3102 95.5527 92.1035 95.4746 91.957C95.3997 91.8105 95.2923 91.7096 95.1523 91.6543C95.0124 91.5957 94.8447 91.5664 94.6494 91.5664C94.4671 91.5664 94.306 91.6006 94.166 91.6689C94.0293 91.734 93.9137 91.8268 93.8193 91.9473C93.7249 92.0645 93.6533 92.1995 93.6045 92.3525C93.5589 92.5055 93.5361 92.6715 93.5361 92.8506ZM97.9893 88.5H99.166V94.8721L99.0537 96H97.9893V88.5ZM102.613 93.3096V93.4121C102.613 93.8027 102.569 94.1624 102.481 94.4912C102.397 94.8167 102.267 95.0999 102.091 95.3408C101.918 95.5817 101.703 95.7689 101.446 95.9023C101.192 96.0326 100.898 96.0977 100.562 96.0977C100.234 96.0977 99.9473 96.0358 99.7031 95.9121C99.459 95.7884 99.2539 95.6126 99.0879 95.3848C98.9251 95.1569 98.7933 94.8851 98.6924 94.5693C98.5915 94.2536 98.5199 93.9053 98.4775 93.5244V93.1973C98.5199 92.8132 98.5915 92.4648 98.6924 92.1523C98.7933 91.8366 98.9251 91.5648 99.0879 91.3369C99.2539 91.1058 99.4574 90.9284 99.6982 90.8047C99.9424 90.681 100.227 90.6191 100.553 90.6191C100.891 90.6191 101.189 90.6842 101.446 90.8145C101.707 90.9447 101.923 91.1302 102.096 91.3711C102.268 91.6087 102.397 91.8919 102.481 92.2207C102.569 92.5495 102.613 92.9124 102.613 93.3096ZM101.437 93.4121V93.3096C101.437 93.0719 101.417 92.849 101.378 92.6406C101.339 92.429 101.274 92.2435 101.183 92.084C101.095 91.9245 100.974 91.7992 100.821 91.708C100.672 91.6136 100.484 91.5664 100.26 91.5664C100.051 91.5664 99.8724 91.6022 99.7227 91.6738C99.5729 91.7454 99.4476 91.8431 99.3467 91.9668C99.2458 92.0905 99.166 92.2337 99.1074 92.3965C99.0521 92.5592 99.0146 92.735 98.9951 92.9238V93.8076C99.0244 94.0518 99.0863 94.2764 99.1807 94.4814C99.2783 94.6833 99.415 94.846 99.5908 94.9697C99.7666 95.0902 99.9928 95.1504 100.27 95.1504C100.488 95.1504 100.672 95.1064 100.821 95.0186C100.971 94.9307 101.09 94.8086 101.178 94.6523C101.269 94.4928 101.334 94.3073 101.373 94.0957C101.415 93.8841 101.437 93.6562 101.437 93.4121ZM106.588 94.9404V92.4209C106.588 92.2321 106.554 92.0693 106.485 91.9326C106.417 91.7959 106.313 91.6901 106.173 91.6152C106.036 91.5404 105.864 91.5029 105.655 91.5029C105.463 91.5029 105.297 91.5355 105.157 91.6006C105.017 91.6657 104.908 91.7536 104.83 91.8643C104.752 91.9749 104.713 92.1003 104.713 92.2402H103.541C103.541 92.0319 103.591 91.8301 103.692 91.6348C103.793 91.4395 103.94 91.2653 104.132 91.1123C104.324 90.9593 104.553 90.8389 104.82 90.751C105.087 90.6631 105.387 90.6191 105.719 90.6191C106.116 90.6191 106.467 90.6859 106.773 90.8193C107.083 90.9528 107.325 91.1546 107.501 91.4248C107.68 91.6917 107.77 92.027 107.77 92.4307V94.7793C107.77 95.0202 107.786 95.2367 107.818 95.4287C107.854 95.6175 107.905 95.7819 107.97 95.9219V96H106.764C106.708 95.873 106.664 95.7119 106.632 95.5166C106.603 95.318 106.588 95.126 106.588 94.9404ZM106.759 92.7871L106.769 93.5146H105.924C105.706 93.5146 105.514 93.5358 105.348 93.5781C105.182 93.6172 105.043 93.6758 104.933 93.7539C104.822 93.832 104.739 93.9264 104.684 94.0371C104.628 94.1478 104.601 94.2731 104.601 94.4131C104.601 94.5531 104.633 94.6816 104.698 94.7988C104.763 94.9128 104.858 95.0023 104.981 95.0674C105.108 95.1325 105.261 95.165 105.44 95.165C105.681 95.165 105.891 95.1162 106.07 95.0186C106.253 94.9176 106.396 94.7956 106.5 94.6523C106.604 94.5059 106.66 94.3675 106.666 94.2373L107.047 94.7598C107.008 94.8932 106.941 95.0365 106.847 95.1895C106.752 95.3424 106.629 95.4889 106.476 95.6289C106.326 95.7656 106.145 95.8779 105.934 95.9658C105.725 96.0537 105.484 96.0977 105.211 96.0977C104.866 96.0977 104.558 96.0293 104.288 95.8926C104.018 95.7526 103.806 95.5654 103.653 95.3311C103.5 95.0934 103.424 94.8249 103.424 94.5254C103.424 94.2454 103.476 93.998 103.58 93.7832C103.688 93.5651 103.844 93.3828 104.049 93.2363C104.257 93.0898 104.511 92.9792 104.811 92.9043C105.11 92.8262 105.452 92.7871 105.836 92.7871H106.759ZM110.182 91.7227V96H109.005V90.7168H110.128L110.182 91.7227ZM111.798 90.6826L111.788 91.7764C111.716 91.7633 111.638 91.7536 111.554 91.7471C111.472 91.7406 111.391 91.7373 111.31 91.7373C111.108 91.7373 110.93 91.7666 110.777 91.8252C110.624 91.8805 110.496 91.9619 110.392 92.0693C110.291 92.1735 110.213 92.3005 110.157 92.4502C110.102 92.5999 110.069 92.7676 110.06 92.9531L109.791 92.9727C109.791 92.6406 109.824 92.333 109.889 92.0498C109.954 91.7666 110.051 91.5176 110.182 91.3027C110.315 91.0879 110.481 90.9202 110.68 90.7998C110.882 90.6794 111.114 90.6191 111.378 90.6191C111.45 90.6191 111.526 90.6257 111.607 90.6387C111.692 90.6517 111.756 90.6663 111.798 90.6826Z" fill="#313131"/>
<path d="M96 78.5455C96 79.5581 95.5977 80.5293 94.8817 81.2453C94.1656 81.9614 93.1945 82.3636 92.1818 82.3636H57.8182C56.8055 82.3636 55.8344 81.9614 55.1183 81.2453C54.4023 80.5293 54 79.5581 54 78.5455V57.5455C54 56.5328 54.4023 55.5616 55.1183 54.8456C55.8344 54.1295 56.8055 53.7273 57.8182 53.7273H65.4545L69.2727 48H80.7273L84.5455 53.7273H92.1818C93.1945 53.7273 94.1656 54.1295 94.8817 54.8456C95.5977 55.5616 96 56.5328 96 57.5455V78.5455Z" stroke="black" stroke-width="2" stroke-linecap="round" stroke-linejoin="round"/>
<path d="M74.9999 74.7273C79.2174 74.7273 82.6363 71.3084 82.6363 67.091C82.6363 62.8735 79.2174 59.4546 74.9999 59.4546C70.7825 59.4546 67.3636 62.8735 67.3636 67.091C67.3636 71.3084 70.7825 74.7273 74.9999 74.7273Z" stroke="black" stroke-width="2" stroke-linecap="round" stroke-linejoin="round"/>
</svg>
