<svg width="21" height="19" viewBox="0 0 21 19" fill="none" xmlns="http://www.w3.org/2000/svg">
<path d="M6.48497 2.00245C6.14098 2.00245 5.81109 2.10781 5.56785 2.29535C5.32462 2.48288 5.18797 2.73724 5.18797 3.00245C5.18797 3.26767 5.32462 3.52202 5.56785 3.70956C5.81109 3.8971 6.14098 4.00245 6.48497 4.00245C6.82895 4.00245 7.15885 3.8971 7.40208 3.70956C7.64531 3.52202 7.78196 3.26767 7.78196 3.00245C7.78196 2.73724 7.64531 2.48288 7.40208 2.29535C7.15885 2.10781 6.82895 2.00245 6.48497 2.00245ZM2.81448 2.00245C3.08244 1.41692 3.57936 0.909885 4.23676 0.55124C4.89415 0.192596 5.67965 0 6.48497 0C7.29029 0 8.07578 0.192596 8.73318 0.55124C9.39057 0.909885 9.8875 1.41692 10.1555 2.00245H19.4549C19.7989 2.00245 20.1288 2.10781 20.372 2.29535C20.6152 2.48288 20.7519 2.73724 20.7519 3.00245C20.7519 3.26767 20.6152 3.52202 20.372 3.70956C20.1288 3.8971 19.7989 4.00245 19.4549 4.00245H10.1555C9.8875 4.58799 9.39057 5.09502 8.73318 5.45366C8.07578 5.81231 7.29029 6.00491 6.48497 6.00491C5.67965 6.00491 4.89415 5.81231 4.23676 5.45366C3.57936 5.09502 3.08244 4.58799 2.81448 4.00245H1.29699C0.953009 4.00245 0.623114 3.8971 0.379881 3.70956C0.136647 3.52202 0 3.26767 0 3.00245C0 2.73724 0.136647 2.48288 0.379881 2.29535C0.623114 2.10781 0.953009 2.00245 1.29699 2.00245H2.81448ZM14.2669 8.00246C13.9229 8.00246 13.593 8.10781 13.3498 8.29535C13.1066 8.48288 12.9699 8.73724 12.9699 9.00246C12.9699 9.26767 13.1066 9.52203 13.3498 9.70956C13.593 9.8971 13.9229 10.0025 14.2669 10.0025C14.6109 10.0025 14.9408 9.8971 15.184 9.70956C15.4273 9.52203 15.5639 9.26767 15.5639 9.00246C15.5639 8.73724 15.4273 8.48288 15.184 8.29535C14.9408 8.10781 14.6109 8.00246 14.2669 8.00246ZM10.5964 8.00246C10.8644 7.41692 11.3613 6.90989 12.0187 6.55124C12.6761 6.1926 13.4616 6 14.2669 6C15.0722 6 15.8577 6.1926 16.5151 6.55124C17.1725 6.90989 17.6695 7.41692 17.9374 8.00246H19.4549C19.7989 8.00246 20.1288 8.10781 20.372 8.29535C20.6152 8.48288 20.7519 8.73724 20.7519 9.00246C20.7519 9.26767 20.6152 9.52203 20.372 9.70956C20.1288 9.8971 19.7989 10.0025 19.4549 10.0025H17.9374C17.6695 10.588 17.1725 11.095 16.5151 11.4537C15.8577 11.8123 15.0722 12.0049 14.2669 12.0049C13.4616 12.0049 12.6761 11.8123 12.0187 11.4537C11.3613 11.095 10.8644 10.588 10.5964 10.0025H1.29699C0.953009 10.0025 0.623114 9.8971 0.379881 9.70956C0.136647 9.52203 0 9.26767 0 9.00246C0 8.73724 0.136647 8.48288 0.379881 8.29535C0.623114 8.10781 0.953009 8.00246 1.29699 8.00246H10.5964ZM6.48497 14.0025C6.14098 14.0025 5.81109 14.1078 5.56785 14.2954C5.32462 14.4829 5.18797 14.7372 5.18797 15.0025C5.18797 15.2677 5.32462 15.522 5.56785 15.7096C5.81109 15.8971 6.14098 16.0025 6.48497 16.0025C6.82895 16.0025 7.15885 15.8971 7.40208 15.7096C7.64531 15.522 7.78196 15.2677 7.78196 15.0025C7.78196 14.7372 7.64531 14.4829 7.40208 14.2954C7.15885 14.1078 6.82895 14.0025 6.48497 14.0025ZM2.81448 14.0025C3.08244 13.4169 3.57936 12.9099 4.23676 12.5512C4.89415 12.1926 5.67965 12 6.48497 12C7.29029 12 8.07578 12.1926 8.73318 12.5512C9.39057 12.9099 9.8875 13.4169 10.1555 14.0025H19.4549C19.7989 14.0025 20.1288 14.1078 20.372 14.2954C20.6152 14.4829 20.7519 14.7372 20.7519 15.0025C20.7519 15.2677 20.6152 15.522 20.372 15.7096C20.1288 15.8971 19.7989 16.0025 19.4549 16.0025H10.1555C9.8875 16.588 9.39057 17.095 8.73318 17.4537C8.07578 17.8123 7.29029 18.0049 6.48497 18.0049C5.67965 18.0049 4.89415 17.8123 4.23676 17.4537C3.57936 17.095 3.08244 16.588 2.81448 16.0025H1.29699C0.953009 16.0025 0.623114 15.8971 0.379881 15.7096C0.136647 15.522 0 15.2677 0 15.0025C0 14.7372 0.136647 14.4829 0.379881 14.2954C0.623114 14.1078 0.953009 14.0025 1.29699 14.0025H2.81448Z" fill="white"/>
</svg>
