<svg width="38" height="38" viewBox="0 0 38 38" fill="none" xmlns="http://www.w3.org/2000/svg">
<rect x="1.5" y="1.5" width="35" height="35" rx="6.5" fill="#F0F3FD" stroke="white" stroke-width="3"/>
<path d="M27.3077 12.6154H24.1319L23.3753 10.4951C23.323 10.35 23.2272 10.2246 23.101 10.1359C22.9748 10.0473 22.8243 9.99986 22.6701 10H15.5058C15.1905 10 14.908 10.1985 14.8029 10.4951L14.044 12.6154H10.8681C9.83599 12.6154 9 13.4514 9 14.4835V25.1319C9 26.164 9.83599 27 10.8681 27H27.3077C28.3398 27 29.1758 26.164 29.1758 25.1319V14.4835C29.1758 13.4514 28.3398 12.6154 27.3077 12.6154ZM19.0879 23.2637C17.0236 23.2637 15.3516 21.5918 15.3516 19.5275C15.3516 17.4632 17.0236 15.7912 19.0879 15.7912C21.1522 15.7912 22.8242 17.4632 22.8242 19.5275C22.8242 21.5918 21.1522 23.2637 19.0879 23.2637ZM16.8462 19.5275C16.8462 20.122 17.0823 20.6922 17.5027 21.1126C17.9232 21.533 18.4934 21.7692 19.0879 21.7692C19.6825 21.7692 20.2527 21.533 20.6731 21.1126C21.0935 20.6922 21.3297 20.122 21.3297 19.5275C21.3297 18.9329 21.0935 18.3627 20.6731 17.9423C20.2527 17.5219 19.6825 17.2857 19.0879 17.2857C18.4934 17.2857 17.9232 17.5219 17.5027 17.9423C17.0823 18.3627 16.8462 18.9329 16.8462 19.5275Z" fill="#B9C9FF"/>
</svg>
