<svg width="53" height="54" viewBox="0 0 53 54" fill="none" xmlns="http://www.w3.org/2000/svg">
<rect width="53" height="54" rx="26.5" fill="#FFFEFE"/>
<path d="M39 24.6316C39 21.2815 37.7357 18.0686 35.4853 15.6997C33.2348 13.3308 30.1826 12 27 12C23.8174 12 20.7652 13.3308 18.5147 15.6997C16.2643 18.0686 15 21.2815 15 24.6316" stroke="#D8C4FC" stroke-width="1.5" stroke-linecap="round" stroke-linejoin="round"/>
<path d="M39 35.6842V36.4737C39 37.3112 38.6839 38.1144 38.1213 38.7066C37.5587 39.2988 36.7956 39.6316 36 39.6316H30.75M12 31.6389V28.6768C12.0001 27.9726 12.2238 27.2887 12.6356 26.7337C13.0473 26.1786 13.6235 25.7844 14.2725 25.6137L16.8825 24.9252C17.0151 24.8905 17.1535 24.888 17.2872 24.9179C17.4209 24.9478 17.5464 25.0094 17.6541 25.098C17.7618 25.1865 17.8489 25.2998 17.9088 25.4291C17.9688 25.5583 18 25.7003 18 25.8442V34.47C18.0002 34.6141 17.9692 34.7565 17.9093 34.8861C17.8494 35.0158 17.7621 35.1293 17.6542 35.2181C17.5463 35.3068 17.4205 35.3685 17.2865 35.3984C17.1525 35.4283 17.0138 35.4256 16.881 35.3905L14.271 34.7037C13.6223 34.5326 13.0464 34.1382 12.635 33.5833C12.2235 33.0283 12 32.3445 12 31.6405V31.6389ZM42 31.6389V28.6768C41.9999 27.9726 41.7762 27.2887 41.3644 26.7337C40.9527 26.1786 40.3765 25.7844 39.7275 25.6137L37.1175 24.9252C36.9849 24.8905 36.8465 24.888 36.7128 24.9179C36.5791 24.9478 36.4536 25.0094 36.3459 25.098C36.2382 25.1865 36.1511 25.2998 36.0912 25.4291C36.0312 25.5583 36 25.7003 36 25.8442V34.47C35.9998 34.614 36.0308 34.7561 36.0907 34.8856C36.1505 35.0151 36.2376 35.1285 36.3453 35.2173C36.4531 35.306 36.5786 35.3678 36.7124 35.3978C36.8462 35.4278 36.9848 35.4253 37.1175 35.3905L39.7275 34.7037C40.3765 34.5329 40.9527 34.1387 41.3644 33.5837C41.7762 33.0287 41.9999 32.3447 42 31.6405V31.6389Z" stroke="#D8C4FC" stroke-width="1.5"/>
<path d="M29.25 42H24.75C24.1533 42 23.581 41.7505 23.159 41.3063C22.7371 40.8622 22.5 40.2597 22.5 39.6316C22.5 39.0035 22.7371 38.401 23.159 37.9569C23.581 37.5127 24.1533 37.2632 24.75 37.2632H29.25C29.8467 37.2632 30.419 37.5127 30.841 37.9569C31.2629 38.401 31.5 39.0035 31.5 39.6316C31.5 40.2597 31.2629 40.8622 30.841 41.3063C30.419 41.7505 29.8467 42 29.25 42Z" stroke="#D8C4FC" stroke-width="1.5"/>
</svg>
