<svg width="32" height="32" viewBox="0 0 32 32" fill="none" xmlns="http://www.w3.org/2000/svg">
<path d="M28 13.6316C28 10.2815 26.7357 7.06858 24.4853 4.6997C22.2348 2.33082 19.1826 1 16 1C12.8174 1 9.76516 2.33082 7.51472 4.6997C5.26428 7.06858 4 10.2815 4 13.6316" stroke="#D8C4FC" stroke-width="1.5" stroke-linecap="round" stroke-linejoin="round"/>
<path d="M28 24.6842V25.4737C28 26.3112 27.6839 27.1144 27.1213 27.7066C26.5587 28.2988 25.7956 28.6316 25 28.6316H19.75M1 20.6389V17.6768C1.0001 16.9726 1.22381 16.2887 1.63556 15.7337C2.04731 15.1786 2.62348 14.7844 3.2725 14.6137L5.8825 13.9252C6.01512 13.8905 6.15353 13.888 6.28722 13.9179C6.4209 13.9478 6.54636 14.0094 6.65406 14.098C6.76177 14.1865 6.84889 14.2998 6.90883 14.4291C6.96877 14.5583 6.99995 14.7003 7 14.8442V23.47C7.00024 23.6141 6.96921 23.7565 6.90928 23.8861C6.84936 24.0158 6.76211 24.1293 6.65419 24.2181C6.54627 24.3068 6.42053 24.3685 6.28654 24.3984C6.15255 24.4283 6.01385 24.4256 5.881 24.3905L3.271 23.7037C2.62226 23.5326 2.04643 23.1382 1.63497 22.5833C1.22351 22.0283 1.00002 21.3445 1 20.6405V20.6389ZM31 20.6389V17.6768C30.9999 16.9726 30.7762 16.2887 30.3644 15.7337C29.9527 15.1786 29.3765 14.7844 28.7275 14.6137L26.1175 13.9252C25.9849 13.8905 25.8465 13.888 25.7128 13.9179C25.5791 13.9478 25.4536 14.0094 25.3459 14.098C25.2382 14.1865 25.1511 14.2998 25.0912 14.4291C25.0312 14.5583 25 14.7003 25 14.8442V23.47C24.9998 23.614 25.0308 23.7561 25.0907 23.8856C25.1505 24.0151 25.2376 24.1285 25.3453 24.2173C25.4531 24.306 25.5786 24.3678 25.7124 24.3978C25.8462 24.4278 25.9848 24.4253 26.1175 24.3905L28.7275 23.7037C29.3765 23.5329 29.9527 23.1387 30.3644 22.5837C30.7762 22.0287 30.9999 21.3447 31 20.6405V20.6389Z" stroke="#D8C4FC" stroke-width="1.5"/>
<path d="M18.25 31H13.75C13.1533 31 12.581 30.7505 12.159 30.3063C11.7371 29.8622 11.5 29.2597 11.5 28.6316C11.5 28.0035 11.7371 27.401 12.159 26.9569C12.581 26.5127 13.1533 26.2632 13.75 26.2632H18.25C18.8467 26.2632 19.419 26.5127 19.841 26.9569C20.2629 27.401 20.5 28.0035 20.5 28.6316C20.5 29.2597 20.2629 29.8622 19.841 30.3063C19.419 30.7505 18.8467 31 18.25 31Z" stroke="#D8C4FC" stroke-width="1.5"/>
</svg>
