<?xml version="1.0" standalone="no"?>
<!DOCTYPE svg PUBLIC "-//W3C//DTD SVG 20010904//EN"
 "http://www.w3.org/TR/2001/REC-SVG-20010904/DTD/svg10.dtd">
<svg version="1.0" xmlns="http://www.w3.org/2000/svg"
 width="414.000000pt" height="233.000000pt" viewBox="0 0 414.000000 233.000000"
 preserveAspectRatio="xMidYMid meet">

<g transform="translate(0.000000,233.000000) scale(0.100000,-0.100000)"
fill="#000000" stroke="none">
<path d="M2255 2281 c-48 -22 -69 -44 -90 -94 -20 -48 -19 -103 4 -152 22 -48
44 -69 94 -90 78 -32 179 -4 224 64 l23 34 1 -369 c1 -316 3 -361 13 -314 7
30 18 73 25 95 17 50 81 175 91 175 4 0 15 -9 25 -20 19 -21 19 -20 87 47 l68
67 -26 27 -25 26 36 27 c32 25 166 96 180 96 4 0 -3 -12 -14 -26 -48 -61 -7
-170 70 -189 22 -5 27 -3 32 16 4 14 0 30 -9 40 -13 15 -10 50 5 49 3 -1 23
-28 43 -60 35 -57 39 -60 77 -60 41 0 91 17 91 31 0 20 -13 37 -25 33 -11 -5
-12 0 -2 25 16 44 1 49 -37 12 -41 -40 -66 -36 -101 17 -30 45 -24 77 16 98
18 9 29 22 29 36 0 20 3 20 103 16 320 -16 596 -246 658 -547 12 -54 14 -60
19 -35 3 16 6 76 5 133 l0 104 -38 13 c-84 29 -137 99 -137 179 0 80 64 161
143 180 27 7 27 7 27 96 l0 89 -710 0 -710 0 -15 37 c-9 21 -23 46 -33 57 -26
28 -92 56 -137 56 -22 0 -58 -9 -80 -19z"/>
<path d="M720 1663 c-108 -55 -115 -60 -118 -90 -3 -25 -9 -34 -28 -39 -29 -7
-30 -19 -4 -61 25 -42 53 -44 49 -5 -2 15 6 47 16 71 18 39 29 48 107 87 86
43 131 54 143 34 3 -6 16 -8 29 -4 15 3 28 -2 40 -15 23 -25 32 -26 40 -6 9
25 -25 87 -43 79 -18 -8 -42 -8 -86 1 -24 4 -55 -7 -145 -52z"/>
<path d="M70 1444 c-55 -24 -70 -43 -70 -88 l0 -41 19 31 c23 39 59 64 86 63
17 -1 16 -2 -7 -12 -43 -20 -69 -48 -62 -69 4 -14 0 -21 -15 -25 -18 -5 -21
-13 -21 -60 0 -33 4 -52 10 -48 6 3 10 19 10 34 0 19 8 32 25 41 14 7 26 18
26 24 1 6 2 18 3 26 0 8 13 16 29 18 15 2 27 8 27 13 0 5 9 9 20 9 11 0 20 -4
20 -9 0 -5 12 -11 28 -13 20 -2 28 -9 31 -28 5 -39 41 -56 41 -19 0 11 -13 32
-30 46 -34 28 -37 48 -14 81 14 21 14 23 -11 32 -38 14 -104 12 -145 -6z m123
-41 c-7 -2 -21 -2 -30 0 -10 3 -4 5 12 5 17 0 24 -2 18 -5z"/>
<path d="M303 1333 c-14 -10 -23 -26 -23 -43 0 -18 -8 -31 -25 -40 -14 -7 -26
-18 -26 -24 -1 -6 -2 -18 -3 -26 0 -8 -13 -16 -28 -18 -16 -2 -28 -8 -28 -13
0 -5 -9 -9 -20 -9 -11 0 -20 4 -20 9 0 5 -12 11 -27 13 -21 2 -29 9 -32 28 -5
42 -41 55 -41 16 0 -14 10 -30 24 -40 31 -20 40 -49 25 -77 -9 -17 -13 -19
-20 -8 -4 8 -20 15 -34 16 -20 1 -25 -2 -23 -15 2 -10 13 -17 28 -17 14 0 35
-6 47 -13 12 -6 45 -12 73 -12 114 0 200 87 200 203 0 29 -6 60 -12 69 -12 15
-15 15 -35 1z m1 -129 c3 -8 2 -12 -3 -9 -5 3 -12 -4 -16 -14 -9 -29 -63 -71
-88 -70 -19 1 -18 3 8 14 37 16 69 50 60 64 -3 6 -3 16 0 21 9 15 32 12 39 -6z
m-151 -91 c-7 -2 -21 -2 -30 0 -10 3 -4 5 12 5 17 0 24 -2 18 -5z"/>
<path d="M131 1296 c-10 -11 -7 -14 14 -12 14 0 24 5 22 10 -5 16 -23 17 -36
2z"/>
<path d="M1125 1243 c-76 -40 -109 -99 -103 -185 5 -66 39 -117 98 -149 43
-23 129 -25 171 -4 33 18 49 13 49 -16 0 -26 12 -24 43 9 32 33 34 42 8 42
-29 0 -33 13 -16 54 18 41 20 113 4 153 -34 91 -168 142 -254 96z m164 -40
c70 -52 90 -132 50 -203 -54 -96 -180 -106 -252 -21 -64 77 -35 195 58 237 39
18 110 12 144 -13z"/>
<path d="M5 1170 c-4 -6 5 -10 20 -10 15 0 24 4 20 10 -3 6 -12 10 -20 10 -8
0 -17 -4 -20 -10z"/>
<path d="M397 674 c-10 -11 -9 -44 3 -44 5 0 7 6 4 14 -7 18 7 26 34 19 26 -6
29 -33 5 -34 -10 -1 0 -5 22 -9 46 -9 55 -6 55 20 0 10 -3 21 -7 23 -16 9
-109 18 -116 11z"/>
<path d="M442 583 c-24 -10 -34 -53 -18 -79 34 -50 106 -33 106 26 0 47 -41
72 -88 53z m68 -22 c12 -24 -1 -66 -25 -75 -34 -13 -71 26 -58 62 14 36 66 45
83 13z"/>
<path d="M635 520 c-3 -5 1 -10 9 -10 9 0 16 5 16 10 0 6 -4 10 -9 10 -6 0
-13 -4 -16 -10z"/>
<path d="M550 454 c0 -47 1 -49 47 -59 35 -7 33 -9 58 63 6 18 4 27 -5 25 -5
-2 -29 1 -54 6 l-46 8 0 -43z"/>
<path d="M380 450 c0 -5 7 -10 16 -10 8 0 12 5 9 10 -3 6 -10 10 -16 10 -5 0
-9 -4 -9 -10z"/>
<path d="M510 425 c7 -9 15 -13 17 -11 7 7 -7 26 -19 26 -6 0 -6 -6 2 -15z"/>
</g>
</svg>
