<svg width="414" height="180" viewBox="0 0 414 180" fill="none" xmlns="http://www.w3.org/2000/svg">
<g clip-path="url(#clip0_454_1223)">
<rect width="414" height="180" fill="white"/>
<g filter="url(#filter0_d_454_1223)">
<path d="M50.5 88C35.7 70.4 10.6667 75.3333 0 80V150C135.833 151.667 408.2 155 411 155C414.5 155 426 102.5 411 88C396 73.5 331.5 88 292.5 102.5C253.5 117 267 100 220.5 80C174 60 173.5 107 128 88C82.5 69 69 110 50.5 88Z" fill="#41E7F5"/>
</g>
<g filter="url(#filter1_d_454_1223)">
<ellipse cx="112.661" cy="63.4969" rx="10.9886" ry="10.6833" transform="rotate(2.5 112.661 63.4969)" fill="#61F3FF"/>
<ellipse cx="291.46" cy="83.0153" rx="13.6049" ry="13.227" transform="rotate(2.5 291.46 83.0153)" fill="#61F3FF"/>
<path d="M294.035 75.6801C288.284 75.9074 286.656 80.341 286.56 82.5293C286.551 82.7283 285.709 82.8509 282.408 81.7501C281.31 74.0482 290.186 72.5223 294.762 72.7221C294.926 73.5265 295.01 75.2444 294.035 75.6801Z" fill="white"/>
<ellipse cx="42.4019" cy="77.2331" rx="17.791" ry="17.2968" transform="rotate(2.5 42.4019 77.2331)" fill="#61F3FF"/>
<path d="M43.2671 67.1231C37.5167 67.3504 35.888 71.7839 35.7925 73.9723C35.7838 74.1712 34.9413 74.2939 31.6408 73.1931C30.5419 65.4912 39.4185 63.9653 43.9942 64.165C44.1584 64.9695 44.2429 66.6873 43.2671 67.1231Z" fill="white"/>
<ellipse cx="359.466" cy="84.9661" rx="13.6049" ry="13.227" transform="rotate(2.5 359.466 84.9661)" fill="#61F3FF"/>
<path d="M362.129 77.4571C356.379 77.6844 354.75 82.1179 354.655 84.3063C354.646 84.5052 353.804 84.6279 350.503 83.5271C349.404 75.8252 358.281 74.2992 362.857 74.499C363.021 75.3035 363.105 77.0213 362.129 77.4571Z" fill="white"/>
<ellipse cx="323.528" cy="56.4085" rx="6.80243" ry="6.61348" transform="rotate(2.5 323.528 56.4085)" fill="#61F3FF"/>
<path d="M326.035 53.4051C322.11 53.5602 320.999 56.5859 320.934 58.0794C320.928 58.2152 320.353 58.2989 318.1 57.5476C317.35 52.2914 323.408 51.25 326.531 51.3863C326.643 51.9353 326.701 53.1077 326.035 53.4051Z" fill="white"/>
<ellipse cx="298.049" cy="40.0198" rx="6.80243" ry="6.61348" transform="rotate(2.5 298.049 40.0198)" fill="#61F3FF"/>
<path d="M299.425 36.1135C296.622 36.2243 295.828 38.3855 295.781 39.4523C295.777 39.5492 295.366 39.609 293.758 39.0724C293.222 35.3179 297.549 34.5741 299.779 34.6715C299.859 35.0636 299.901 35.901 299.425 36.1135Z" fill="white"/>
<ellipse cx="289.141" cy="124.16" rx="6.80243" ry="6.61348" transform="rotate(2.5 289.141 124.16)" fill="#61F3FF"/>
<path d="M290.859 121.272C287.493 121.458 286.519 124.549 286.452 126.071C286.446 126.209 285.953 126.298 284.027 125.549C283.421 120.199 288.623 119.095 291.299 119.212C291.391 119.77 291.433 120.964 290.859 121.272Z" fill="white"/>
<ellipse cx="327.805" cy="102.425" rx="6.80243" ry="6.61348" transform="rotate(2.5 327.805 102.425)" fill="#61F3FF"/>
<path d="M330.097 99.0667C326.731 99.2525 325.757 102.343 325.69 103.865C325.684 104.004 325.191 104.093 323.265 103.343C322.659 97.9933 327.86 96.8895 330.537 97.0064C330.629 97.565 330.67 98.759 330.097 99.0667Z" fill="white"/>
<ellipse cx="149.19" cy="77.8279" rx="21.4538" ry="20.8579" transform="rotate(2.5 149.19 77.8279)" fill="#61F3FF"/>
<path d="M148.821 59.6423C144.436 58.9001 140.595 61.3484 139.223 62.6654C135.906 66.3757 137.036 70.6015 138.016 72.2507C138.288 72.0331 139.632 71.3574 142.83 70.3956C139.824 66.9599 146.541 63.6733 150.276 62.4595C150.538 62.471 150.615 61.9236 148.821 59.6423Z" fill="white"/>
<ellipse cx="218.43" cy="78.3019" rx="10.9886" ry="10.6833" transform="rotate(2.5 218.43 78.3019)" fill="#61F3FF"/>
<path d="M218.063 69.2279C215.273 68.7556 212.828 70.3137 211.955 71.1517C209.844 73.5129 210.563 76.202 211.187 77.2514C211.36 77.113 212.216 76.683 214.25 76.0709C212.338 73.8846 216.612 71.7932 218.989 71.0207C219.156 71.028 219.204 70.6797 218.063 69.2279Z" fill="white"/>
<rect x="81.3901" y="12.4239" width="7.23449" height="2.4115" rx="1.20575" transform="rotate(42.5 81.3901 12.4239)" fill="#5FF6FF"/>
<rect x="89.4761" y="20.6218" width="7.23449" height="2.4115" rx="1.20575" transform="rotate(42.5 89.4761 20.6218)" fill="#5FF6FF"/>
<rect x="86.5601" y="22.062" width="7.23452" height="2.41151" rx="1.20575" transform="rotate(133 86.5601 22.062)" fill="#5FF6FF"/>
<rect x="94.7559" y="13.9718" width="7.23452" height="2.41151" rx="1.20575" transform="rotate(133 94.7559 13.9718)" fill="#5FF6FF"/>
<rect x="160.122" y="56.962" width="3.33895" height="1.11298" rx="0.556492" transform="rotate(42.5 160.122 56.962)" fill="#5FF6FF"/>
<rect x="163.854" y="60.7454" width="3.33895" height="1.11298" rx="0.556492" transform="rotate(42.5 163.854 60.7454)" fill="#5FF6FF"/>
<rect x="162.514" y="61.4103" width="3.33896" height="1.11299" rx="0.556494" transform="rotate(133 162.514 61.4103)" fill="#5FF6FF"/>
<rect x="166.293" y="57.6762" width="3.33896" height="1.11299" rx="0.556494" transform="rotate(133 166.293 57.6762)" fill="#5FF6FF"/>
<rect x="17.4307" y="27.0919" width="6.67801" height="2.226" rx="1.113" transform="rotate(42.5 17.4307 27.0919)" fill="#5FF6FF"/>
<rect x="24.895" y="34.6592" width="6.67801" height="2.226" rx="1.113" transform="rotate(42.5 24.895 34.6592)" fill="#5FF6FF"/>
<rect x="22.2046" y="35.9887" width="6.67804" height="2.22601" rx="1.11301" transform="rotate(133 22.2046 35.9887)" fill="#5FF6FF"/>
<rect x="29.7729" y="28.5206" width="6.67804" height="2.22601" rx="1.11301" transform="rotate(133 29.7729 28.5206)" fill="#5FF6FF"/>
<rect x="89.54" y="38.4721" width="5.00849" height="1.6695" rx="0.834749" transform="rotate(42.5 89.54 38.4721)" fill="#5FF6FF"/>
<rect x="95.1367" y="44.1475" width="5.00849" height="1.6695" rx="0.834749" transform="rotate(42.5 95.1367 44.1475)" fill="#5FF6FF"/>
<rect x="93.1143" y="45.1446" width="5.00851" height="1.6695" rx="0.834752" transform="rotate(133 93.1143 45.1446)" fill="#5FF6FF"/>
<rect x="98.7944" y="39.5436" width="5.00851" height="1.6695" rx="0.834752" transform="rotate(133 98.7944 39.5436)" fill="#5FF6FF"/>
<rect x="375.218" y="38.9396" width="4.45193" height="1.48398" rx="0.741988" transform="rotate(42.5 375.218 38.9396)" fill="#5FF6FF"/>
<rect x="380.198" y="43.9846" width="4.45193" height="1.48398" rx="0.741988" transform="rotate(42.5 380.198 43.9846)" fill="#5FF6FF"/>
<rect x="378.397" y="44.8708" width="4.45195" height="1.48398" rx="0.741991" transform="rotate(133 378.397 44.8708)" fill="#5FF6FF"/>
<rect x="383.446" y="39.8922" width="4.45195" height="1.48398" rx="0.741991" transform="rotate(133 383.446 39.8922)" fill="#5FF6FF"/>
</g>
<path d="M222.089 20.8925C198.347 18.1729 153.811 46.9848 134.511 61.7307C124.955 68.6204 158.474 134.569 176.428 166.682C186.03 162.63 212.983 151.424 243.972 139.016C279.98 128.61 259.332 88.4391 222.089 20.8925Z" fill="white" stroke="black"/>
<circle cx="201.055" cy="99.6465" r="34.2178" transform="rotate(-15.5 201.055 99.6465)" fill="#C4C4C4" stroke="black"/>
<circle cx="198.202" cy="98.0358" r="34.2178" transform="rotate(-15.5 198.202 98.0358)" fill="white" stroke="black"/>
<circle cx="198.201" cy="98.0358" r="26.1169" transform="rotate(-15.5 198.201 98.0358)" fill="#4184AD" stroke="black"/>
<path d="M210.392 119.875C186.714 112.368 184.837 86.7227 186.859 74.8385C211.095 66.6613 221.118 83.334 223.1 92.6925C225.481 101.279 221.661 116.264 210.392 119.875Z" fill="#60A9D4"/>
<path d="M137.905 84.1336C160.502 67.4588 210.744 34.991 230.937 38.518" stroke="black"/>
<circle cx="142.25" cy="67.3168" r="4.0504" transform="rotate(-15.5 142.25 67.3168)" fill="black"/>
<circle cx="151.355" cy="61.1889" r="4.0504" transform="rotate(-15.5 151.355 61.1889)" fill="black"/>
<path d="M273.902 64.1783C254.691 70.0588 244.742 82.0589 242.169 87.3239C244.978 92.2299 252.651 105.332 252.651 105.332C252.651 105.332 266.808 98.5711 266.583 99.7955L269.381 142.34L330.201 133.792L321.554 92.0697C321.554 92.0697 334.485 94.4932 336.473 93.5512L341.141 73.0167C335.279 65.253 314.667 60.0393 304.312 59.9044C303.178 68.8103 295.374 72.69 291.53 73.6278C288.071 74.4719 280.558 75.3289 273.902 64.1783Z" fill="#ED19F1"/>
<path d="M39.9999 146.794L80.5889 38.5289L141.222 55.9153L118.823 169.396L88.5067 160.703C88.5067 160.703 107.705 99.9924 98.8083 95.6518C97.256 95.3389 96.3703 95.2207 94.7917 95.0966C87.3869 95.9559 69.2142 155.171 69.2142 155.171L39.9999 146.794Z" fill="#D72929"/>
<g filter="url(#filter2_d_454_1223)">
<path d="M40 122.5C25.6 100.9 9.66667 100.5 3.5 103H-6.5V183H413.5C420.167 165.833 429.5 127.9 413.5 113.5C393.5 95.5 335 136.5 310.5 122.5C286 108.5 276.5 127 257 122.5C241.4 118.9 228.5 130.333 224 136.5C221.5 128.833 209.7 116.2 182.5 127C182.5 116.5 134.5 103 97.5 113.5C89.1965 115.856 81 119.5 80 127C73.5 121.167 56.4 112.1 40 122.5Z" fill="url(#paint0_linear_454_1223)"/>
</g>
<ellipse cx="197.821" cy="142.488" rx="13.1891" ry="12.8228" transform="rotate(2.5 197.821 142.488)" fill="white"/>
<ellipse cx="150.708" cy="122.587" rx="10.9373" ry="10.6335" transform="rotate(2.5 150.708 122.587)" fill="white"/>
<ellipse cx="140.376" cy="101.162" rx="8.04217" ry="7.81878" transform="rotate(2.5 140.376 101.162)" fill="white"/>
<ellipse cx="193.9" cy="114.143" rx="6.75543" ry="6.56778" transform="rotate(2.5 193.9 114.143)" fill="white"/>
<ellipse cx="240.386" cy="126.19" rx="6.75543" ry="6.56778" transform="rotate(2.5 240.386 126.19)" fill="white"/>
<ellipse cx="261.655" cy="125.866" rx="2.25181" ry="2.18926" transform="rotate(2.5 261.655 125.866)" fill="white"/>
</g>
<defs>
<filter id="filter0_d_454_1223" x="-20" y="47.9361" width="458.515" height="120.064" filterUnits="userSpaceOnUse" color-interpolation-filters="sRGB">
<feFlood flood-opacity="0" result="BackgroundImageFix"/>
<feColorMatrix in="SourceAlpha" type="matrix" values="0 0 0 0 0 0 0 0 0 0 0 0 0 0 0 0 0 0 127 0" result="hardAlpha"/>
<feOffset dy="-7"/>
<feGaussianBlur stdDeviation="10"/>
<feComposite in2="hardAlpha" operator="out"/>
<feColorMatrix type="matrix" values="0 0 0 0 0 0 0 0 0 0 0 0 0 0 0 0 0 0 0.15 0"/>
<feBlend mode="normal" in2="BackgroundImageFix" result="effect1_dropShadow_454_1223"/>
<feBlend mode="normal" in="SourceGraphic" in2="effect1_dropShadow_454_1223" result="shape"/>
</filter>
<filter id="filter1_d_454_1223" x="-0.61377" y="-3.17447" width="406.788" height="157.949" filterUnits="userSpaceOnUse" color-interpolation-filters="sRGB">
<feFlood flood-opacity="0" result="BackgroundImageFix"/>
<feColorMatrix in="SourceAlpha" type="matrix" values="0 0 0 0 0 0 0 0 0 0 0 0 0 0 0 0 0 0 127 0" result="hardAlpha"/>
<feOffset dx="3" dy="4"/>
<feGaussianBlur stdDeviation="10"/>
<feComposite in2="hardAlpha" operator="out"/>
<feColorMatrix type="matrix" values="0 0 0 0 0 0 0 0 0 0 0 0 0 0 0 0 0 0 0.15 0"/>
<feBlend mode="normal" in2="BackgroundImageFix" result="effect1_dropShadow_454_1223"/>
<feBlend mode="normal" in="SourceGraphic" in2="effect1_dropShadow_454_1223" result="shape"/>
</filter>
<filter id="filter2_d_454_1223" x="-26.5" y="73.9538" width="468.834" height="121.046" filterUnits="userSpaceOnUse" color-interpolation-filters="sRGB">
<feFlood flood-opacity="0" result="BackgroundImageFix"/>
<feColorMatrix in="SourceAlpha" type="matrix" values="0 0 0 0 0 0 0 0 0 0 0 0 0 0 0 0 0 0 127 0" result="hardAlpha"/>
<feOffset dy="-8"/>
<feGaussianBlur stdDeviation="10"/>
<feComposite in2="hardAlpha" operator="out"/>
<feColorMatrix type="matrix" values="0 0 0 0 0 0 0 0 0 0 0 0 0 0 0 0 0 0 0.15 0"/>
<feBlend mode="normal" in2="BackgroundImageFix" result="effect1_dropShadow_454_1223"/>
<feBlend mode="normal" in="SourceGraphic" in2="effect1_dropShadow_454_1223" result="shape"/>
</filter>
<linearGradient id="paint0_linear_454_1223" x1="390.5" y1="102" x2="-71.5" y2="-161" gradientUnits="userSpaceOnUse">
<stop stop-color="#3DC0E9"/>
<stop offset="1" stop-color="white"/>
</linearGradient>
<clipPath id="clip0_454_1223">
<rect width="414" height="180" fill="white"/>
</clipPath>
</defs>
</svg>
