<svg width="20" height="20" viewBox="0 0 20 20" fill="none" xmlns="http://www.w3.org/2000/svg">
<path d="M9.99999 2.50101C11.4834 2.50101 12.9334 2.94087 14.1668 3.76498C15.4001 4.58909 16.3614 5.76043 16.9291 7.13088C17.4967 8.50132 17.6453 10.0093 17.3559 11.4642C17.0665 12.919 16.3522 14.2554 15.3033 15.3043C14.2544 16.3532 12.918 17.0675 11.4632 17.3569C10.0083 17.6463 8.50031 17.4978 7.12987 16.9301C5.75942 16.3624 4.58809 15.4011 3.76398 14.1678C2.93987 12.9344 2.5 11.4844 2.5 10.001C2.5 9.66948 2.3683 9.35154 2.13388 9.11712C1.89946 8.8827 1.58152 8.751 1.25 8.751C0.918479 8.751 0.600536 8.8827 0.366116 9.11712C0.131696 9.35154 6.98627e-09 9.66948 0 10.001C0.000225428 12.2448 0.755062 14.4233 2.14312 16.1862C3.53119 17.9492 5.47181 19.194 7.65293 19.7207C9.83404 20.2473 12.1289 20.0251 14.1684 19.0898C16.208 18.1545 17.8737 16.5604 18.8978 14.5639C19.9218 12.5674 20.2447 10.2846 19.8144 8.0824C19.3841 5.88025 18.2258 3.88679 16.5255 2.42259C14.8253 0.958396 12.6821 0.108547 10.4405 0.00971095C8.19886 -0.0891248 5.98914 0.568796 4.16666 1.87767V1.25101C4.16666 0.919488 4.03497 0.601546 3.80055 0.367126C3.56613 0.132705 3.24819 0.00100947 2.91666 0.00100947C2.58514 0.00100947 2.2672 0.132705 2.03278 0.367126C1.79836 0.601546 1.66667 0.919488 1.66667 1.25101V5.41767C1.66667 6.10767 2.22667 6.66767 2.91666 6.66767H5.41666C5.74818 6.66767 6.06613 6.53598 6.30055 6.30156C6.53497 6.06713 6.66666 5.74919 6.66666 5.41767C6.66666 5.08615 6.53497 4.76821 6.30055 4.53379C6.06613 4.29937 5.74818 4.16767 5.41666 4.16767H5.285C6.61836 3.08666 8.28347 2.49808 9.99999 2.50101ZM10.8333 6.25101C10.8333 5.91948 10.7016 5.60154 10.4672 5.36712C10.2328 5.1327 9.91485 5.00101 9.58333 5.00101C9.25181 5.00101 8.93386 5.1327 8.69944 5.36712C8.46502 5.60154 8.33333 5.91948 8.33333 6.25101V10.4177C8.33333 11.1077 8.89333 11.6677 9.58333 11.6677H12.0833C12.4148 11.6677 12.7328 11.536 12.9672 11.3016C13.2016 11.0671 13.3333 10.7492 13.3333 10.4177C13.3333 10.0861 13.2016 9.76821 12.9672 9.53379C12.7328 9.29937 12.4148 9.16767 12.0833 9.16767H10.8333V6.25101Z" fill="#7E7878"/>
</svg>
