<svg width="29" height="30" viewBox="0 0 29 30" fill="none" xmlns="http://www.w3.org/2000/svg">
<path d="M1.92058 10.6355L11.018 2.98554V2.98579L12.6614 1.60487C13.1263 1.21419 13.7141 1 14.3214 1C14.9285 1 15.5163 1.21411 15.9811 1.60465C15.9812 1.60472 15.9813 1.6048 15.9814 1.60487L26.7222 10.6367L26.7224 10.6369C27.0106 10.879 27.2423 11.1813 27.4013 11.5224C27.5602 11.8635 27.6426 12.2352 27.6428 12.6115C27.6428 12.6115 27.6428 12.6116 27.6428 12.6117V27.6131C27.6428 27.9809 27.4966 28.3337 27.2365 28.5938C26.9765 28.8539 26.6237 29 26.2559 29H19.6919C19.3241 29 18.9713 28.8539 18.7112 28.5938C18.4511 28.3337 18.305 27.9809 18.305 27.6131V19.259V18.259H17.305H11.3378H10.3378V19.259V27.6131C10.3378 27.9809 10.1916 28.3337 9.93155 28.5938C9.67145 28.8539 9.31869 29 8.95086 29H2.3869C2.01907 29 1.66631 28.8539 1.40621 28.5938C1.14612 28.3337 1 27.9809 1 27.6131L1 12.6105C1 12.6104 1 12.6104 1 12.6103C1.00012 12.234 1.08255 11.8623 1.24151 11.5212C1.40049 11.1801 1.63218 10.8778 1.92032 10.6357L1.92058 10.6355Z" stroke="black" stroke-width="2"/>
</svg>
