<svg width="30" height="30" viewBox="0 0 30 30" fill="none" xmlns="http://www.w3.org/2000/svg">
<path d="M1.96355 10.6499L11.5875 2.92334V2.92364L13.2133 1.61928C13.7079 1.22247 14.3403 1 15 1C15.6597 1 16.2921 1.22247 16.7867 1.61928L28.0365 10.6511L28.0367 10.6513C28.3427 10.8968 28.5853 11.2004 28.7504 11.5386C28.9153 11.8766 28.9999 12.2426 29 12.6115C29 12.6115 29 12.6116 29 12.6117V27.6131C29 27.9656 28.8538 28.3136 28.5772 28.5776C28.2991 28.8432 27.9124 29 27.5 29H20.625C20.2126 29 19.8259 28.8432 19.5478 28.5776C19.2712 28.3136 19.125 27.9656 19.125 27.6131V19.259V18.259H18.125H11.875H10.875V19.259V27.6131C10.875 27.9656 10.7288 28.3136 10.4522 28.5776C10.1741 28.8432 9.78738 29 9.375 29H2.5C2.08762 29 1.70092 28.8432 1.42279 28.5776C1.14624 28.3136 1 27.9656 1 27.6131L1 12.6105C1 12.6105 1 12.6104 1 12.6103C1.00013 12.2414 1.08467 11.8754 1.24964 11.5374C1.41474 11.1992 1.65725 10.8956 1.96329 10.6501L1.96355 10.6499Z" stroke="black" stroke-width="2"/>
</svg>
