<svg width="30" height="30" viewBox="0 0 30 30" fill="none" xmlns="http://www.w3.org/2000/svg">
<path d="M29.6112 15.486L16.1125 0.475094C15.5441 -0.158365 14.4522 -0.158365 13.8837 0.475094L0.385069 15.486C0.191125 15.7016 0.0637827 15.9689 0.018451 16.2555C-0.0268806 16.5421 0.0117412 16.8356 0.129643 17.1007C0.247545 17.3658 0.439674 17.5909 0.682782 17.749C0.92589 17.9071 1.20956 17.9912 1.49946 17.9913H4.49916V28.4989C4.49916 28.897 4.65718 29.2788 4.93846 29.5603C5.21973 29.8419 5.60123 30 5.99901 30H23.9972C24.395 30 24.7765 29.8419 25.0578 29.5603C25.3391 29.2788 25.4971 28.897 25.4971 28.4989V17.9913H28.4968C28.7872 17.9925 29.0718 17.9092 29.3157 17.7513C29.5597 17.5935 29.7525 17.3681 29.8706 17.1025C29.9888 16.8369 30.0271 16.5427 29.9811 16.2556C29.935 15.9686 29.8065 15.7012 29.6112 15.486V15.486ZM14.9981 20.9935C13.8048 20.9935 12.6603 20.519 11.8165 19.6745C10.9726 18.83 10.4986 17.6845 10.4986 16.4902C10.4986 15.2959 10.9726 14.1504 11.8165 13.3059C12.6603 12.4614 13.8048 11.9869 14.9981 11.9869C16.1915 11.9869 17.336 12.4614 18.1798 13.3059C19.0236 14.1504 19.4977 15.2959 19.4977 16.4902C19.4977 17.6845 19.0236 18.83 18.1798 19.6745C17.336 20.519 16.1915 20.9935 14.9981 20.9935Z" fill="#49C2C0"/>
</svg>
