<svg width="35" height="50" viewBox="0 0 35 50" fill="none" xmlns="http://www.w3.org/2000/svg">
<path fill-rule="evenodd" clip-rule="evenodd" d="M5.38462 0H29.6154C32.5904 0 35 2.3575 35 5.2625V44.7375C35 47.6425 32.5904 50 29.6154 50H5.38462C2.40962 50 0 47.6425 0 44.7375V5.2625C0 2.3575 2.40962 0 5.38462 0ZM8.07692 5C7.36288 5 6.67808 5.26339 6.17317 5.73223C5.66827 6.20107 5.38462 6.83696 5.38462 7.5V42.5C5.38462 43.163 5.66827 43.7989 6.17317 44.2678C6.67808 44.7366 7.36288 45 8.07692 45H26.9231C27.6371 45 28.3219 44.7366 28.8268 44.2678C29.3317 43.7989 29.6154 43.163 29.6154 42.5V7.5C29.6154 6.83696 29.3317 6.20107 28.8268 5.73223C28.3219 5.26339 27.6371 5 26.9231 5H24.2308V8.75C24.2308 9.08152 24.0889 9.39946 23.8365 9.63388C23.584 9.8683 23.2416 10 22.8846 10H12.1154C11.7584 10 11.416 9.8683 11.1635 9.63388C10.9111 9.39946 10.7692 9.08152 10.7692 8.75V5H8.07692Z" fill="url(#paint0_linear_2483_3197)"/>
<defs>
<linearGradient id="paint0_linear_2483_3197" x1="27.494" y1="8.93829" x2="16.0399" y2="49.5886" gradientUnits="userSpaceOnUse">
<stop stop-color="#11B4F5"/>
<stop offset="1" stop-color="#7F5FED"/>
</linearGradient>
</defs>
</svg>
