<svg width="24" height="27" viewBox="0 0 24 27" fill="none" xmlns="http://www.w3.org/2000/svg">
<path d="M2.00805 10.8C2.05815 10.1735 2.34151 9.58894 2.80172 9.16271C3.26193 8.73648 3.8652 8.49987 4.4914 8.5H19.5086C20.1348 8.49987 20.7381 8.73648 21.1983 9.16271C21.6585 9.58894 21.9419 10.1735 21.9919 10.8L22.992 23.3C23.0195 23.644 22.9758 23.99 22.8635 24.3162C22.7513 24.6424 22.573 24.9417 22.3398 25.1953C22.1066 25.4489 21.8237 25.6514 21.5088 25.7899C21.1938 25.9283 20.8537 25.9999 20.5099 26H3.49009C3.14626 25.9999 2.80617 25.9283 2.49124 25.7899C2.17631 25.6514 1.89336 25.4489 1.6602 25.1953C1.42704 24.9417 1.24872 24.6424 1.13647 24.3162C1.02423 23.99 0.980477 23.644 1.00798 23.3L2.00805 10.8V10.8Z" stroke="#3A3838" stroke-width="2" stroke-linecap="round" stroke-linejoin="round"/>
<path d="M16.9817 12.25V6C16.9817 4.67392 16.4568 3.40215 15.5226 2.46447C14.5883 1.52678 13.3212 1 12 1C10.6788 1 9.41169 1.52678 8.47745 2.46447C7.54321 3.40215 7.01836 4.67392 7.01836 6V12.25" stroke="#3A3838" stroke-width="2" stroke-linecap="round" stroke-linejoin="round"/>
</svg>
