<svg width="20" height="19" viewBox="0 0 20 19" fill="none" xmlns="http://www.w3.org/2000/svg">
<path d="M6.25 2.00245C5.91848 2.00245 5.60054 2.10781 5.36612 2.29534C5.1317 2.48288 5 2.73723 5 3.00245C5 3.26767 5.1317 3.52202 5.36612 3.70956C5.60054 3.89709 5.91848 4.00245 6.25 4.00245C6.58152 4.00245 6.89946 3.89709 7.13388 3.70956C7.3683 3.52202 7.5 3.26767 7.5 3.00245C7.5 2.73723 7.3683 2.48288 7.13388 2.29534C6.89946 2.10781 6.58152 2.00245 6.25 2.00245ZM2.7125 2.00245C2.97075 1.41692 3.44967 0.909884 4.08325 0.55124C4.71683 0.192596 5.47386 0 6.25 0C7.02614 0 7.78317 0.192596 8.41675 0.55124C9.05033 0.909884 9.52925 1.41692 9.7875 2.00245H18.75C19.0815 2.00245 19.3995 2.10781 19.6339 2.29534C19.8683 2.48288 20 2.73723 20 3.00245C20 3.26767 19.8683 3.52202 19.6339 3.70956C19.3995 3.89709 19.0815 4.00245 18.75 4.00245H9.7875C9.52925 4.58798 9.05033 5.09502 8.41675 5.45366C7.78317 5.81231 7.02614 6.0049 6.25 6.0049C5.47386 6.0049 4.71683 5.81231 4.08325 5.45366C3.44967 5.09502 2.97075 4.58798 2.7125 4.00245H1.25C0.918479 4.00245 0.600537 3.89709 0.366117 3.70956C0.131696 3.52202 0 3.26767 0 3.00245C0 2.73723 0.131696 2.48288 0.366117 2.29534C0.600537 2.10781 0.918479 2.00245 1.25 2.00245H2.7125ZM13.75 8.00245C13.4185 8.00245 13.1005 8.10781 12.8661 8.29534C12.6317 8.48288 12.5 8.73723 12.5 9.00245C12.5 9.26767 12.6317 9.52202 12.8661 9.70956C13.1005 9.89709 13.4185 10.0025 13.75 10.0025C14.0815 10.0025 14.3995 9.89709 14.6339 9.70956C14.8683 9.52202 15 9.26767 15 9.00245C15 8.73723 14.8683 8.48288 14.6339 8.29534C14.3995 8.10781 14.0815 8.00245 13.75 8.00245ZM10.2125 8.00245C10.4708 7.41692 10.9497 6.90988 11.5833 6.55124C12.2168 6.1926 12.9739 6 13.75 6C14.5261 6 15.2832 6.1926 15.9167 6.55124C16.5503 6.90988 17.0292 7.41692 17.2875 8.00245H18.75C19.0815 8.00245 19.3995 8.10781 19.6339 8.29534C19.8683 8.48288 20 8.73723 20 9.00245C20 9.26767 19.8683 9.52202 19.6339 9.70956C19.3995 9.89709 19.0815 10.0025 18.75 10.0025H17.2875C17.0292 10.588 16.5503 11.095 15.9167 11.4537C15.2832 11.8123 14.5261 12.0049 13.75 12.0049C12.9739 12.0049 12.2168 11.8123 11.5833 11.4537C10.9497 11.095 10.4708 10.588 10.2125 10.0025H1.25C0.918479 10.0025 0.600537 9.89709 0.366117 9.70956C0.131696 9.52202 0 9.26767 0 9.00245C0 8.73723 0.131696 8.48288 0.366117 8.29534C0.600537 8.10781 0.918479 8.00245 1.25 8.00245H10.2125ZM6.25 14.0025C5.91848 14.0025 5.60054 14.1078 5.36612 14.2953C5.1317 14.4829 5 14.7372 5 15.0025C5 15.2677 5.1317 15.522 5.36612 15.7096C5.60054 15.8971 5.91848 16.0025 6.25 16.0025C6.58152 16.0025 6.89946 15.8971 7.13388 15.7096C7.3683 15.522 7.5 15.2677 7.5 15.0025C7.5 14.7372 7.3683 14.4829 7.13388 14.2953C6.89946 14.1078 6.58152 14.0025 6.25 14.0025ZM2.7125 14.0025C2.97075 13.4169 3.44967 12.9099 4.08325 12.5512C4.71683 12.1926 5.47386 12 6.25 12C7.02614 12 7.78317 12.1926 8.41675 12.5512C9.05033 12.9099 9.52925 13.4169 9.7875 14.0025H18.75C19.0815 14.0025 19.3995 14.1078 19.6339 14.2953C19.8683 14.4829 20 14.7372 20 15.0025C20 15.2677 19.8683 15.522 19.6339 15.7096C19.3995 15.8971 19.0815 16.0025 18.75 16.0025H9.7875C9.52925 16.588 9.05033 17.095 8.41675 17.4537C7.78317 17.8123 7.02614 18.0049 6.25 18.0049C5.47386 18.0049 4.71683 17.8123 4.08325 17.4537C3.44967 17.095 2.97075 16.588 2.7125 16.0025H1.25C0.918479 16.0025 0.600537 15.8971 0.366117 15.7096C0.131696 15.522 0 15.2677 0 15.0025C0 14.7372 0.131696 14.4829 0.366117 14.2953C0.600537 14.1078 0.918479 14.0025 1.25 14.0025H2.7125Z" fill="#888888"/>
</svg>
