<svg width="25" height="25" viewBox="0 0 25 25" fill="none" xmlns="http://www.w3.org/2000/svg">
<path d="M21.435 1.27763C21.2123 0.888846 20.8981 0.56704 20.5228 0.343252C20.1475 0.119464 19.7238 0.00124556 19.2925 0H5.7075C4.835 0 4.01375 0.489474 3.565 1.27763L0.178751 7.21711C0.0615698 7.42159 -0.000243706 7.65593 7.22099e-07 7.89474C0.00499286 9.16476 0.449368 10.3894 1.25 11.3395V22.3684C1.25 23.8197 2.37125 25 3.75 25H21.25C22.6287 25 23.75 23.8197 23.75 22.3684V11.3395C24.5506 10.3894 24.995 9.16476 25 7.89474C25.0002 7.65593 24.9384 7.42159 24.8212 7.21711L21.435 1.27763ZM22.48 8.225C22.4028 8.86029 22.1086 9.44427 21.6522 9.86779C21.1957 10.2913 20.6084 10.5254 20 10.5263C18.6212 10.5263 17.5 9.34605 17.5 7.89474C17.5 7.80526 17.4688 7.72632 17.4513 7.64211L17.4762 7.63684L16.525 2.63158H19.2925L22.48 8.225V8.225ZM11.0238 2.63158H13.975L14.9912 7.98026C14.9475 9.39079 13.85 10.5263 12.5 10.5263C11.15 10.5263 10.0525 9.39079 10.0088 7.98026L11.0238 2.63158ZM5.7075 2.63158H8.475L7.525 7.63684L7.55 7.64211C7.53125 7.72632 7.5 7.80526 7.5 7.89474C7.5 9.34605 6.37875 10.5263 5 10.5263C4.39156 10.5254 3.80426 10.2913 3.34785 9.86779C2.89144 9.44427 2.59716 8.86029 2.52 8.225L5.7075 2.63158ZM10 22.3684V18.4211H15V22.3684H10ZM17.5 22.3684V18.4211C17.5 16.9697 16.3787 15.7895 15 15.7895H10C8.62125 15.7895 7.5 16.9697 7.5 18.4211V22.3684H3.75V12.9711C4.15125 13.0803 4.565 13.1579 5 13.1579C5.70977 13.1583 6.41144 12.9992 7.05813 12.6913C7.70482 12.3834 8.28162 11.9337 8.75 11.3724C9.66625 12.4671 11.0088 13.1579 12.5 13.1579C13.9912 13.1579 15.3337 12.4671 16.25 11.3724C16.7184 11.9337 17.2952 12.3834 17.9419 12.6913C18.5886 12.9992 19.2902 13.1583 20 13.1579C20.435 13.1579 20.8487 13.0803 21.25 12.9711V22.3684H17.5Z" fill="#888888"/>
</svg>
