<svg width="20" height="23" viewBox="0 0 20 23" fill="none" xmlns="http://www.w3.org/2000/svg">
<path d="M16.6667 15.6183C15.8227 15.6183 15.0613 15.9455 14.484 16.4722L6.56667 11.866C6.628 11.6159 6.66667 11.3552 6.66667 11.0892C6.66667 10.8232 6.628 10.5638 6.56667 10.3138L14.4 5.75277C15.0133 6.32922 15.824 6.65037 16.6667 6.6506C18.5053 6.6506 20 5.15954 20 3.3253C20 1.49106 18.5053 0 16.6667 0C14.828 0 13.3333 1.49106 13.3333 3.3253C13.3333 3.59132 13.372 3.85203 13.4333 4.10076L5.6 8.66174C4.98635 8.08587 4.17583 7.76482 3.33333 7.76391C1.49467 7.76391 0 9.25498 0 11.0892C0 12.9235 1.49467 14.4145 3.33333 14.4145C4.17596 14.4143 4.98671 14.0931 5.6 13.5167L13.5173 18.1229C13.459 18.3606 13.429 18.6044 13.428 18.8491C13.4283 19.4878 13.6183 20.112 13.9741 20.6429C14.33 21.1738 14.8356 21.5875 15.4271 21.8318C16.0186 22.076 16.6694 22.1399 17.2972 22.0152C17.9251 21.8906 18.5018 21.583 18.9545 21.1314C19.4071 20.6799 19.7154 20.1045 19.8404 19.4782C19.9654 18.8518 19.9014 18.2026 19.6565 17.6125C19.4116 17.0225 18.9969 16.5181 18.4647 16.1631C17.9326 15.8081 17.3068 15.6185 16.6667 15.6183Z" fill="#888888"/>
</svg>
