<svg width="24" height="32" viewBox="0 0 24 32" fill="none" xmlns="http://www.w3.org/2000/svg">
<path d="M7.79314 25.8091L7.79282 25.8094C7.47454 26.1246 7.04719 26.3047 6.60015 26.3144C6.15311 26.324 5.71844 26.1624 5.38685 25.8614L3.896 24.5116L3.88688 24.5033L3.87803 24.4948C3.55332 24.1808 3.36325 23.7526 3.35008 23.3003C3.33691 22.8479 3.50175 22.4094 3.80788 22.0771C4.11382 21.745 4.53666 21.5451 4.9865 21.5176C5.43631 21.49 5.8803 21.6367 6.22462 21.9285L6.23418 21.9366L6.24347 21.945L6.50603 22.183L8.80869 19.8987L7.79314 25.8091ZM7.79314 25.8091L11.2727 22.3598C11.4355 22.1989 11.565 22.0073 11.6534 21.796L10.9616 21.5064L11.6534 21.796C11.7419 21.5846 11.7875 21.3578 11.7875 21.1286C11.7875 20.8994 11.7419 20.6726 11.6534 20.4612L10.9616 20.7508M7.79314 25.8091L10.9616 20.7508M10.9616 20.7508L11.6534 20.4612M10.9616 20.7508L11.6534 20.4612M11.6534 20.4612C11.565 20.25 11.4356 20.0585 11.273 19.8976M11.6534 20.4612L11.273 19.8976M11.273 19.8976C11.1109 19.7368 10.9188 19.6096 10.7078 19.5228C10.4964 19.4358 10.2699 19.3911 10.0414 19.3911C9.81285 19.3911 9.58641 19.4358 9.37497 19.5228C9.16374 19.6097 8.97142 19.7371 8.80918 19.8982L11.273 19.8976ZM9.04663 1.17859H9.04702L15.0132 1.17859L15.0136 1.17859C15.4771 1.17835 15.9287 1.32066 16.3061 1.58505C16.6834 1.84937 16.9676 2.22241 17.1208 2.65196L17.2984 3.15002H17.8272H20.9794C21.5737 3.15002 22.1424 3.38413 22.5607 3.79879C22.9788 4.21322 23.2124 4.77391 23.2124 5.35716V29.0143C23.2124 29.5975 22.9788 30.1582 22.5607 30.5727C22.1424 30.9873 21.5737 31.2214 20.9794 31.2214H3.08086C2.48651 31.2214 1.9178 30.9873 1.49951 30.5727C1.08144 30.1582 0.847778 29.5975 0.847778 29.0143V5.35716C0.847778 4.77391 1.08144 4.21322 1.49951 3.79879C1.9178 3.38413 2.48651 3.15002 3.08086 3.15002H6.23298H6.76177L6.9394 2.65196C7.0926 2.22241 7.37685 1.84937 7.75415 1.58505C8.13153 1.32066 8.58311 1.17835 9.04663 1.17859ZM7.79282 15.9523L7.79314 15.952L11.2734 12.502C11.4358 12.341 11.565 12.1495 11.6532 11.9383C11.7415 11.7271 11.787 11.5005 11.787 11.2714C11.787 11.0424 11.7415 10.8158 11.6532 10.6046C11.565 10.3934 11.4358 10.2019 11.2734 10.0409C11.111 9.87994 10.9186 9.75259 10.7073 9.66582C10.496 9.57906 10.2697 9.53449 10.0414 9.53449C9.81305 9.53449 9.5868 9.57906 9.3755 9.66582C9.16418 9.75259 8.97176 9.87994 8.80937 10.0409L6.50552 12.3247L6.25075 12.0944C6.08525 11.937 5.89043 11.8138 5.67752 11.7314L5.40693 12.4309L5.67752 11.7314C5.46016 11.6473 5.22818 11.6075 4.99531 11.6142C4.76243 11.6208 4.53309 11.6739 4.32088 11.7703C4.10867 11.8667 3.91773 12.0047 3.75963 12.1763L4.31122 12.6844L3.75962 12.1763C3.60151 12.3479 3.47949 12.5497 3.40117 12.7697C3.32283 12.9898 3.2899 13.2234 3.30444 13.4567C3.31898 13.6899 3.38068 13.9176 3.48564 14.1262C3.58849 14.3306 3.73072 14.5124 3.90386 14.6616L5.38685 16.0042C5.38707 16.0044 5.38728 16.0046 5.3875 16.0048C5.38752 16.0049 5.38753 16.0049 5.38755 16.0049C5.71905 16.3055 6.15342 16.4668 6.60015 16.4572C7.04719 16.4476 7.47454 16.2674 7.79282 15.9523ZM20.2218 14.4725L19.6938 13.9399L20.2218 14.4725C20.5496 14.1475 20.735 13.7053 20.735 13.2429C20.735 12.7804 20.5496 12.3382 20.2218 12.0132L19.6938 12.5459L20.2218 12.0132C19.8941 11.6884 19.4512 11.5072 18.9906 11.5072H14.0188C13.5583 11.5072 13.1153 11.6884 12.7877 12.0132C12.4599 12.3382 12.2745 12.7804 12.2745 13.2429C12.2745 13.7053 12.4599 14.1475 12.7877 14.4725C13.1153 14.7973 13.5583 14.9786 14.0188 14.9786H18.9906C19.4512 14.9786 19.8941 14.7973 20.2218 14.4725ZM7.8159 2.15609C7.48805 2.48108 7.30266 2.92327 7.30266 3.38573C7.30266 3.84819 7.48805 4.29038 7.8159 4.61538C8.14352 4.94015 8.58649 5.12145 9.04702 5.12145H15.0132C15.4737 5.12145 15.9167 4.94015 16.2443 4.61538C16.5722 4.29038 16.7575 3.8482 16.7575 3.38573C16.7575 2.92327 16.5722 2.48108 16.2443 2.15609C15.9167 1.83131 15.4737 1.65002 15.0132 1.65002H9.04702C8.58649 1.65002 8.14352 1.83131 7.8159 2.15609ZM18.9906 21.3643H14.0188C13.5583 21.3643 13.1153 21.5456 12.7877 21.8704C12.4599 22.1954 12.2745 22.6376 12.2745 23.1C12.2745 23.5625 12.4599 24.0047 12.7877 24.3297C13.1153 24.6544 13.5583 24.8357 14.0188 24.8357H18.9906C19.4512 24.8357 19.8941 24.6544 20.2218 24.3297C20.5496 24.0047 20.735 23.5625 20.735 23.1C20.735 22.6376 20.5496 22.1954 20.2218 21.8704C19.8941 21.5456 19.4512 21.3643 18.9906 21.3643Z" stroke="#888888" stroke-width="1.5"/>
</svg>
