<svg width="35" height="25" viewBox="0 0 35 25" fill="none" xmlns="http://www.w3.org/2000/svg">
<path d="M14.0591 0.09201C13.8332 0.153064 12.2995 0.649128 10.6495 1.19862C8.99942 1.7481 7.589 2.19838 7.51369 2.19838C7.43153 2.19838 6.6647 1.99232 5.80202 1.73284C4.39844 1.32072 4.19989 1.28256 3.98764 1.35888C3.84386 1.4123 3.71377 1.53441 3.65215 1.66415C3.44675 2.10679 0.043938 12.2418 0.00970451 12.5089C-0.0176823 12.7226 0.00970451 12.8218 0.132945 12.9821C0.221952 13.0965 0.940856 13.6002 1.73507 14.1116C2.52929 14.6152 3.19342 15.0503 3.22081 15.0808C3.24819 15.1113 3.22081 15.325 3.16603 15.554C2.80316 17.0498 3.95341 18.7593 5.32275 18.7593H5.65139L5.69931 19.1256C5.79517 19.9346 6.34975 20.7588 7.03442 21.1099C7.6027 21.3999 8.34214 21.4228 8.88988 21.1709C8.96519 21.1328 9.04051 21.2091 9.15005 21.4228C9.36915 21.8578 9.93058 22.392 10.3688 22.5675C10.8275 22.7583 11.4574 22.7736 11.9709 22.6057C12.3132 22.4912 12.3406 22.4912 12.4022 22.6286C12.5734 22.9568 13.1143 23.5062 13.4703 23.697C13.8058 23.8802 13.9359 23.9107 14.4699 23.9107C15.004 23.9107 15.1341 23.8802 15.4627 23.7047C15.6681 23.5902 15.8872 23.4528 15.9488 23.407C16.0378 23.3307 16.2638 23.4528 17.1812 24.0481C18.4616 24.8723 18.9203 25.0555 19.5228 24.9868C20.6114 24.8647 21.4057 24.0405 21.6521 22.7889L21.6932 22.5904L22.015 22.7049C23.309 23.1476 24.8016 22.0638 24.9728 20.5528L25.0139 20.1712L25.4931 20.133C26.3147 20.0567 26.9789 19.5835 27.3623 18.7822C27.4787 18.5303 27.5951 18.1869 27.6225 18.019L27.6635 17.7061L27.9169 17.7824C28.0538 17.8282 28.3687 17.8435 28.6152 17.8282C29.7723 17.7366 30.6761 16.7598 30.7856 15.4853L30.8336 14.9816L32.7712 14.165C33.8393 13.7223 34.7704 13.295 34.8457 13.2186C35.1538 12.9134 35.1538 12.9057 33.3668 7.2277C32.4357 4.27421 31.6415 1.80916 31.5935 1.7481C31.5525 1.68705 31.4292 1.59547 31.3128 1.54204C31.1348 1.45809 30.8883 1.49625 29.3067 1.84731L27.5129 2.2518L24.4456 1.22914C20.9401 0.061483 20.4882 -0.0529934 19.8651 0.0156924C19.3037 0.0767465 18.9271 0.244645 18.174 0.733078C17.8454 0.954399 17.5441 1.12993 17.5099 1.12993C17.4756 1.12993 17.1744 0.954399 16.8389 0.74071C16.5034 0.534652 16.0652 0.290436 15.8598 0.198855C15.3942 0.000428898 14.5932 -0.0453617 14.0591 0.09201ZM15.6887 1.78626C15.9009 1.90837 16.0789 2.02285 16.0789 2.04574C16.0789 2.06864 15.5175 2.45022 14.8328 2.88523C14.1413 3.32788 13.4498 3.81631 13.2855 3.98421C13.128 4.14447 12.902 4.50317 12.7788 4.77028C12.5871 5.20529 12.5597 5.35029 12.5597 5.89215C12.5597 6.40347 12.5871 6.58664 12.7377 6.94533C12.9774 7.51771 13.4087 8.02141 13.8811 8.28089C14.2166 8.47168 14.3399 8.49458 14.915 8.49458H15.5654L16.5034 8.01378C17.0238 7.74666 17.6537 7.43376 17.907 7.31929L18.3726 7.11323L19.6666 7.97562C20.3786 8.45642 21.0428 8.86853 21.1455 8.89143C21.3646 8.93722 21.7274 8.74642 21.8301 8.54037C21.9534 8.28089 21.9123 7.86877 21.748 7.67035C21.659 7.5635 20.9127 7.02928 20.0842 6.47216C18.8176 5.62504 18.5506 5.4724 18.3863 5.51056C18.1055 5.57161 17.0854 6.02952 16.1268 6.52558C15.6818 6.75454 15.2025 6.96059 15.0588 6.98349C14.4905 7.06744 14.0044 6.67059 13.9222 6.05241C13.888 5.81583 13.9154 5.66319 14.0386 5.40371C14.2098 5.02213 13.9085 5.23582 17.5441 2.90813C18.5574 2.2518 19.5228 1.67178 19.694 1.61073C19.8925 1.52678 20.1116 1.50389 20.3444 1.54204C20.543 1.56494 22.2204 2.09153 24.0759 2.70207L27.4513 3.82394L29.0329 3.46525C29.9024 3.27445 30.6213 3.12182 30.6282 3.13708C30.7377 3.34314 33.4695 12.2341 33.4285 12.257C33.3942 12.2647 32.689 12.5623 31.8606 12.9134L30.3543 13.5468L30.1078 13.3026C29.9709 13.1652 29.1561 12.5852 28.3003 12.0128C26.6571 10.9215 26.4311 10.8223 26.0956 11.0894C25.8629 11.2725 25.7738 11.6694 25.8971 11.9899C25.9792 12.2189 26.1915 12.3868 27.5061 13.2721C28.3414 13.8292 29.115 14.3939 29.2246 14.5389C29.3958 14.7526 29.43 14.8595 29.43 15.2105C29.43 15.6684 29.2451 15.989 28.8617 16.2103C28.4235 16.4621 28.3071 16.4011 24.5141 13.9589C20.7278 11.5244 20.6525 11.4862 20.2759 11.7762C20.05 11.9518 19.9541 12.3562 20.0705 12.6691C20.1732 12.9363 20.0774 12.8752 24.3977 15.6455C26.1367 16.7674 26.2805 16.9124 26.2805 17.5229C26.2805 18.2098 25.8286 18.6601 25.2124 18.5914C24.9317 18.5532 24.4182 18.2556 21.9055 16.63C18.6601 14.5389 18.6053 14.516 18.2493 14.9053C18.0097 15.18 17.9686 15.4395 18.1124 15.76C18.2219 15.9966 18.489 16.195 20.1869 17.2864C23.802 19.6064 23.6103 19.4462 23.6103 20.2017C23.6103 20.4993 23.5692 20.6291 23.4323 20.8199C23.0694 21.3007 22.6449 21.3922 22.1519 21.1175C21.255 20.6062 17.4688 18.1106 17.3866 17.9732C17.0238 17.3703 16.3322 16.9277 15.6887 16.8666C15.2847 16.8361 15.2505 16.8132 15.2231 16.63C15.1409 16.1721 14.9561 15.6455 14.7575 15.3479C14.3672 14.7374 13.5182 14.2566 12.8336 14.2566H12.5529L12.4639 13.8521C12.3475 13.2873 11.9504 12.6844 11.4711 12.341C10.581 11.6999 9.48554 11.7762 8.65024 12.5318L8.36953 12.7913L8.15043 12.5013C8.02035 12.3257 7.73963 12.0968 7.47261 11.9518C7.05496 11.7228 6.94541 11.6999 6.42507 11.6999C5.93895 11.6999 5.78147 11.7304 5.45968 11.8983C4.93248 12.1807 4.59015 12.547 4.26835 13.1805C4.11773 13.4781 3.9671 13.7223 3.93971 13.7223C3.82332 13.7223 1.56391 12.2341 1.56391 12.1578C1.56391 12.112 2.24173 10.0667 3.07018 7.60929C3.89863 5.1595 4.59015 3.11419 4.61069 3.06076C4.63123 2.99971 4.97356 3.0684 5.78832 3.31261C6.41822 3.49577 7.08235 3.68657 7.25352 3.73999C7.55477 3.81631 7.68486 3.78578 10.9165 2.7097C12.7583 2.09916 14.3399 1.5802 14.4357 1.56494C14.7849 1.48099 15.3052 1.5802 15.6887 1.78626ZM6.82902 13.3026C7.19874 13.5086 7.3836 13.8444 7.3836 14.2795C7.3836 14.6381 7.32883 14.7831 6.80848 15.7829C6.42507 16.5308 6.16489 16.9429 6.01426 17.0574C5.71985 17.2864 5.24743 17.294 4.93248 17.0803C4.64492 16.8819 4.40529 16.3248 4.46691 15.9813C4.50799 15.7676 5.29536 14.1497 5.61031 13.6384C5.86364 13.2339 6.43876 13.0736 6.82902 13.3026ZM10.5536 13.5239C10.8549 13.6613 11.1219 14.0276 11.1767 14.3787C11.2383 14.7374 11.1014 15.0503 9.76626 17.6145C8.69817 19.6522 8.56124 19.8277 8.04089 19.8277C7.30144 19.8277 6.81533 18.9348 7.15082 18.2022C7.45892 17.5382 9.33491 13.9665 9.465 13.8063C9.75256 13.4476 10.1634 13.3407 10.5536 13.5239ZM13.1828 15.8669C13.6757 16.0729 13.9701 16.6911 13.8195 17.1948C13.751 17.4237 12.3475 20.1864 12.0051 20.7664C11.4848 21.6594 10.1017 21.087 10.2181 20.0262C10.2455 19.7285 11.8271 16.5537 12.1352 16.1721C12.4091 15.8287 12.813 15.7066 13.1828 15.8669ZM16.1268 18.7059C16.3391 18.9348 16.3802 19.0417 16.4007 19.3851C16.4281 19.7743 16.4076 19.8277 15.9009 20.8199C15.3326 21.9265 15.1888 22.1478 14.9013 22.3157C14.2508 22.6896 13.4224 22.0562 13.4977 21.2396C13.5251 20.9572 14.1755 19.5683 14.5932 18.889C14.826 18.5151 15.1067 18.3624 15.5175 18.4006C15.8256 18.4235 15.9214 18.4693 16.1268 18.7059ZM18.7491 20.7054C19.9062 21.4457 20.1116 21.6136 20.228 21.9341C20.3581 22.2775 20.3513 22.4683 20.1801 22.8499C20.0089 23.2544 19.557 23.5368 19.1873 23.4681C18.9135 23.4147 16.9005 22.1478 16.9005 22.0257C16.9005 21.9875 17.0648 21.6212 17.2702 21.2167C17.4756 20.8046 17.6674 20.3849 17.6879 20.2704C17.7153 20.1483 17.7564 20.072 17.7837 20.0872C17.8043 20.1025 18.2425 20.3772 18.7491 20.7054Z" fill="#49C2C0"/>
<path d="M23.3086 8.7318C22.5768 9.06193 22.4183 9.88192 23.0037 10.3931C23.833 11.1172 25.2477 10.4783 25.0403 9.4879C24.894 8.78505 24.0281 8.42297 23.3086 8.7318Z" fill="#49C2C0"/>
</svg>
