<svg width="28" height="30" viewBox="0 0 28 30" fill="none" xmlns="http://www.w3.org/2000/svg">
<path d="M27.72 -0.00012207H0.28C0.126 -0.00012207 0 0.153287 0 0.340787V3.06806C0 3.25556 0.126 3.40897 0.28 3.40897H27.72C27.874 3.40897 28 3.25556 28 3.06806V0.340787C28 0.153287 27.874 -0.00012207 27.72 -0.00012207ZM27.72 26.5908H0.28C0.126 26.5908 0 26.7442 0 26.9317V29.659C0 29.8465 0.126 29.9999 0.28 29.9999H27.72C27.874 29.9999 28 29.8465 28 29.659V26.9317C28 26.7442 27.874 26.5908 27.72 26.5908ZM27.72 13.2953H0.28C0.126 13.2953 0 13.4487 0 13.6362V16.3635C0 16.551 0.126 16.7044 0.28 16.7044H27.72C27.874 16.7044 28 16.551 28 16.3635V13.6362C28 13.4487 27.874 13.2953 27.72 13.2953Z" fill="#888888"/>
</svg>
