<svg width="27" height="31" viewBox="0 0 27 31" fill="none" xmlns="http://www.w3.org/2000/svg">
<path d="M20.2143 7.71429C20.2143 11.4229 17.2087 14.4286 13.5 14.4286C9.79135 14.4286 6.78571 11.4229 6.78571 7.71429C6.78571 4.00563 9.79135 1 13.5 1C17.2087 1 20.2143 4.00563 20.2143 7.71429ZM13.5 19.3214C15.1377 19.3214 16.6968 18.9728 18.1072 18.3571H18.9C22.8196 18.3571 26 21.5376 26 25.4571V27.9643C26 29.0091 25.152 29.8571 24.1071 29.8571H2.89286C1.84804 29.8571 1 29.0091 1 27.9643V25.4571C1 21.5376 4.18041 18.3571 8.1 18.3571H8.89361C10.3074 18.9722 11.861 19.3214 13.5 19.3214Z" stroke="#888888" stroke-width="2"/>
</svg>
