<svg width="60" height="60" viewBox="0 0 60 60" fill="none" xmlns="http://www.w3.org/2000/svg">
<g filter="url(#filter0_d_2462_2755)">
<path d="M12 15.9375C12 15.6889 12.0988 15.4504 12.2746 15.2746C12.4504 15.0988 12.6889 15 12.9375 15H18.5625C18.8111 15 19.0496 15.0988 19.2254 15.2746C19.4012 15.4504 19.5 15.6889 19.5 15.9375C19.5 16.1861 19.4012 16.4246 19.2254 16.6004C19.0496 16.7762 18.8111 16.875 18.5625 16.875H13.875V21.5625C13.875 21.8111 13.7762 22.0496 13.6004 22.2254C13.4246 22.4012 13.1861 22.5 12.9375 22.5C12.6889 22.5 12.4504 22.4012 12.2746 22.2254C12.0988 22.0496 12 21.8111 12 21.5625V15.9375ZM34.5 15.9375C34.5 15.6889 34.5988 15.4504 34.7746 15.2746C34.9504 15.0988 35.1889 15 35.4375 15H41.0625C41.3111 15 41.5496 15.0988 41.7254 15.2746C41.9012 15.4504 42 15.6889 42 15.9375V21.5625C42 21.8111 41.9012 22.0496 41.7254 22.2254C41.5496 22.4012 41.3111 22.5 41.0625 22.5C40.8139 22.5 40.5754 22.4012 40.3996 22.2254C40.2238 22.0496 40.125 21.8111 40.125 21.5625V16.875H35.4375C35.1889 16.875 34.9504 16.7762 34.7746 16.6004C34.5988 16.4246 34.5 16.1861 34.5 15.9375ZM12.9375 37.5C13.1861 37.5 13.4246 37.5988 13.6004 37.7746C13.7762 37.9504 13.875 38.1889 13.875 38.4375V43.125H18.5625C18.8111 43.125 19.0496 43.2238 19.2254 43.3996C19.4012 43.5754 19.5 43.8139 19.5 44.0625C19.5 44.3111 19.4012 44.5496 19.2254 44.7254C19.0496 44.9012 18.8111 45 18.5625 45H12.9375C12.6889 45 12.4504 44.9012 12.2746 44.7254C12.0988 44.5496 12 44.3111 12 44.0625V38.4375C12 38.1889 12.0988 37.9504 12.2746 37.7746C12.4504 37.5988 12.6889 37.5 12.9375 37.5ZM41.0625 37.5C41.3111 37.5 41.5496 37.5988 41.7254 37.7746C41.9012 37.9504 42 38.1889 42 38.4375V44.0625C42 44.3111 41.9012 44.5496 41.7254 44.7254C41.5496 44.9012 41.3111 45 41.0625 45H35.4375C35.1889 45 34.9504 44.9012 34.7746 44.7254C34.5988 44.5496 34.5 44.3111 34.5 44.0625C34.5 43.8139 34.5988 43.5754 34.7746 43.3996C34.9504 43.2238 35.1889 43.125 35.4375 43.125H40.125V38.4375C40.125 38.1889 40.2238 37.9504 40.3996 37.7746C40.5754 37.5988 40.8139 37.5 41.0625 37.5ZM19.5 22.5H21.375V24.375H19.5V22.5Z" fill="white"/>
<path d="M25.125 18.75H15.75V28.125H25.125V18.75ZM17.625 20.625H23.25V26.25H17.625V20.625ZM21.375 35.625H19.5V37.5H21.375V35.625Z" fill="white"/>
<path d="M25.125 31.875H15.75V41.25H25.125V31.875ZM17.625 33.75H23.25V39.375H17.625V33.75ZM32.625 22.5H34.5V24.375H32.625V22.5Z" fill="white"/>
<path d="M28.875 18.75H38.25V28.125H28.875V18.75ZM30.75 20.625V26.25H36.375V20.625H30.75ZM27 30V33.75H28.875V35.625H27V37.5H30.75V33.75H32.625V37.5H34.5V35.625H38.25V33.75H32.625V30H27ZM30.75 33.75H28.875V31.875H30.75V33.75ZM38.25 37.5H36.375V39.375H32.625V41.25H38.25V37.5ZM30.75 41.25V39.375H27V41.25H30.75Z" fill="white"/>
<path d="M34.5 31.875H38.25V30H34.5V31.875Z" fill="white"/>
</g>
<defs>
<filter id="filter0_d_2462_2755" x="0" y="0" width="60" height="60" filterUnits="userSpaceOnUse" color-interpolation-filters="sRGB">
<feFlood flood-opacity="0" result="BackgroundImageFix"/>
<feColorMatrix in="SourceAlpha" type="matrix" values="0 0 0 0 0 0 0 0 0 0 0 0 0 0 0 0 0 0 127 0" result="hardAlpha"/>
<feMorphology radius="5" operator="erode" in="SourceAlpha" result="effect1_dropShadow_2462_2755"/>
<feOffset dx="3"/>
<feGaussianBlur stdDeviation="10"/>
<feComposite in2="hardAlpha" operator="out"/>
<feColorMatrix type="matrix" values="0 0 0 0 0 0 0 0 0 0 0 0 0 0 0 0 0 0 0.25 0"/>
<feBlend mode="normal" in2="BackgroundImageFix" result="effect1_dropShadow_2462_2755"/>
<feBlend mode="normal" in="SourceGraphic" in2="effect1_dropShadow_2462_2755" result="shape"/>
</filter>
</defs>
</svg>
