<svg width="33" height="33" viewBox="0 0 33 33" fill="none" xmlns="http://www.w3.org/2000/svg">
<rect width="33" height="33" rx="16.5" fill="#FFFEFE"/>
<path d="M18.9375 20.8438H14.25C13.6284 20.8438 13.0323 21.0907 12.5927 21.5302C12.1532 21.9698 11.9062 22.5659 11.9062 23.1875V24.75H13.4688V23.1875C13.4688 22.9803 13.5511 22.7816 13.6976 22.6351C13.8441 22.4886 14.0428 22.4063 14.25 22.4063H18.9375C19.1447 22.4063 19.3434 22.4886 19.4899 22.6351C19.6364 22.7816 19.7188 22.9803 19.7188 23.1875V24.75H21.2812V23.1875C21.2812 22.5659 21.0343 21.9698 20.5948 21.5302C20.1552 21.0907 19.5591 20.8438 18.9375 20.8438ZM16.5938 20.0625C17.2118 20.0625 17.816 19.8792 18.3299 19.5358C18.8438 19.1925 19.2443 18.7044 19.4809 18.1334C19.7174 17.5624 19.7793 16.934 19.6587 16.3278C19.5381 15.7217 19.2405 15.1648 18.8035 14.7278C18.3664 14.2908 17.8096 13.9931 17.2034 13.8725C16.5972 13.752 15.9689 13.8139 15.3979 14.0504C14.8268 14.2869 14.3388 14.6874 13.9954 15.2013C13.652 15.7152 13.4688 16.3194 13.4688 16.9375C13.4688 17.7663 13.798 18.5612 14.384 19.1472C14.9701 19.7333 15.7649 20.0625 16.5938 20.0625ZM16.5938 15.375C16.9028 15.375 17.2049 15.4666 17.4618 15.6383C17.7188 15.81 17.9191 16.054 18.0373 16.3396C18.1556 16.6251 18.1865 16.9392 18.1262 17.2423C18.0659 17.5454 17.9171 17.8238 17.6986 18.0424C17.4801 18.2609 17.2017 18.4097 16.8986 18.47C16.5955 18.5303 16.2813 18.4993 15.9958 18.3811C15.7103 18.2628 15.4663 18.0625 15.2946 17.8056C15.1229 17.5486 15.0312 17.2465 15.0312 16.9375C15.0312 16.5231 15.1959 16.1257 15.4889 15.8326C15.7819 15.5396 16.1793 15.375 16.5938 15.375Z" fill="#87CFFF"/>
<path d="M23.625 8.34375H21.2812V7.5625C21.2812 7.1481 21.1166 6.75067 20.8236 6.45765C20.5306 6.16462 20.1332 6 19.7188 6H13.4688C13.0543 6 12.6569 6.16462 12.3639 6.45765C12.0709 6.75067 11.9062 7.1481 11.9062 7.5625V8.34375H9.5625C9.1481 8.34375 8.75067 8.50837 8.45765 8.8014C8.16462 9.09442 8 9.49185 8 9.90625V26.3125C8 26.7269 8.16462 27.1243 8.45765 27.4174C8.75067 27.7104 9.1481 27.875 9.5625 27.875H23.625C24.0394 27.875 24.4368 27.7104 24.7299 27.4174C25.0229 27.1243 25.1875 26.7269 25.1875 26.3125V9.90625C25.1875 9.49185 25.0229 9.09442 24.7299 8.8014C24.4368 8.50837 24.0394 8.34375 23.625 8.34375ZM13.4688 7.5625H19.7188V10.6875H13.4688V7.5625ZM23.625 26.3125H9.5625V9.90625H11.9062V12.25H21.2812V9.90625H23.625V26.3125Z" fill="#87CFFF"/>
</svg>
