<svg width="27" height="31" viewBox="0 0 27 31" fill="none" xmlns="http://www.w3.org/2000/svg">
<path d="M13.5 15.4286C17.7609 15.4286 21.2143 11.9752 21.2143 7.71429C21.2143 3.45335 17.7609 0 13.5 0C9.23906 0 5.78571 3.45335 5.78571 7.71429C5.78571 11.9752 9.23906 15.4286 13.5 15.4286ZM18.9 17.3571H17.8935C16.5556 17.9719 15.067 18.3214 13.5 18.3214C11.933 18.3214 10.4504 17.9719 9.10647 17.3571H8.1C3.62812 17.3571 0 20.9853 0 25.4571V27.9643C0 29.5614 1.29576 30.8571 2.89286 30.8571H24.1071C25.7042 30.8571 27 29.5614 27 27.9643V25.4571C27 20.9853 23.3719 17.3571 18.9 17.3571Z" fill="#49C2C0"/>
</svg>
