<svg width="213" height="269" viewBox="0 0 213 269" fill="none" xmlns="http://www.w3.org/2000/svg">
<path d="M95.9307 76.7588V76.0553L155.379 88.8068V89.4223L95.9307 76.7588Z" fill="#DEA140"/>
<path d="M83.1092 57.0597L33.4766 65.126L48.1367 86.2561L95.9148 75.9979L83.1092 57.0597Z" fill="url(#paint0_linear_536_1066)"/>
<path d="M33.4829 65.0614L32.6914 65.5011L47.1138 86.6949L47.9932 86.2552L33.4829 65.0614Z" fill="#DEA140"/>
<path d="M107.44 55.8282L95.832 76.1426L154.665 88.6303L165.921 73.2406L171.11 65.5018L107.44 55.8282Z" fill="url(#paint1_linear_536_1066)"/>
<path d="M171.736 66.0274L171.121 65.5876L154.676 88.7161L155.203 88.98L171.736 66.0274Z" fill="#DEA140"/>
<path d="M96.3403 121.811L95.9443 76.4368L141.098 86.2335L139.686 121.433L96.3403 121.811Z" fill="#F7B86B"/>
<path d="M95.8323 76.0476C90.3846 77.1371 79.1431 79.3931 77.7588 79.7008L79.4892 88.5453H96.2168L95.8323 76.0476Z" fill="#DB9040"/>
<path d="M109.822 103.68L92.4096 82.9137L91.7061 84.2225L109.47 105.251L109.822 103.68Z" fill="#DEA140"/>
<path d="M110.708 104.899L109.652 105.337V164.523L110.708 164.348V104.899Z" fill="#C48B34"/>
<path d="M156.251 140.422L110.697 164.346V104.931L156.251 89.2445V140.422Z" fill="url(#paint2_linear_536_1066)"/>
<path d="M156.258 89.2459L111.057 104.987L131.195 85.2885L178.507 71.5697L156.258 89.2459Z" fill="url(#paint3_linear_536_1066)"/>
<path d="M92.4182 83.0021L91.8026 84.2333L29.0127 69.9868L29.1006 69.3712L92.4182 83.0021Z" fill="#DEA140"/>
<path d="M47.9132 88.1056L28.918 69.8992L91.8838 84.0401L109.472 105.251L47.9132 88.1056Z" fill="url(#paint4_linear_536_1066)"/>
<path d="M47.9189 138.434V88.1895L109.654 105.318V164.522L47.9189 138.434Z" fill="url(#paint5_linear_536_1066)"/>
<path d="M110.964 105.163L110.349 104.02L130.663 84.233L131.279 85.2004L110.964 105.163Z" fill="#DEA140"/>
<path d="M178.5 71.6566L131.188 85.3755L130.572 84.2322L178.148 70.3375L178.5 71.6566Z" fill="#DEA140"/>
<path d="M206 127.66H37.3779C37.3779 132.516 47.7606 195.704 52.9519 226.691C79.4337 217.684 115.883 218.989 154.087 218.989C170.26 218.989 183.12 208.139 186.196 196.301L206 127.66Z" fill="#FAFAFA"/>
<path d="M2 107.856C11.1008 105.613 30.9176 106.433 37.3779 127.66M37.3779 127.66C74.6017 127.66 165.303 127.66 206 127.66L186.196 196.301C183.12 208.139 170.26 218.989 154.087 218.989C115.883 218.989 79.4337 217.684 52.9519 226.691M37.3779 127.66C37.3779 132.516 47.7606 195.704 52.9519 226.691M154.087 242.83C26.2647 248.214 30.9689 235.204 49.2988 228.025C50.4941 227.557 51.7121 227.113 52.9519 226.691" stroke="#454040" stroke-width="10"/>
<circle cx="73.5261" cy="250.822" r="12.3044" stroke="#49C2C0" stroke-width="10"/>
<circle cx="140.451" cy="250.297" r="12.3044" stroke="#49C2C0" stroke-width="10"/>
<path d="M75.6357 189.488C88.0052 180.195 119.704 167.185 147.545 189.488" stroke="#454040" stroke-width="10"/>
<circle cx="87.3722" cy="153.149" r="11.5363" fill="#454040"/>
<circle cx="140.428" cy="153.149" r="11.5363" fill="#454040"/>
<path d="M124.329 68.5723V72H109.212V68.5723H124.329ZM124.109 53.1182L111.16 72H108.069V69.4805L121.121 50.6719H124.109V53.1182ZM122.601 50.6719V54.1143H108.084V50.6719H122.601Z" fill="black"/>
<path d="M149.329 41.5723V45H134.212V41.5723H149.329ZM149.109 26.1182L136.16 45H133.069V42.4805L146.121 23.6719H149.109V26.1182ZM147.601 23.6719V27.1143H133.084V23.6719H147.601Z" fill="black"/>
<path d="M174.329 18.5723V22H159.212V18.5723H174.329ZM174.109 3.11816L161.16 22H158.069V19.4805L171.121 0.671875H174.109V3.11816ZM172.601 0.671875V4.11426H158.084V0.671875H172.601Z" fill="black"/>
<defs>
<linearGradient id="paint0_linear_536_1066" x1="43.1501" y1="68.2282" x2="95.9148" y2="79.7485" gradientUnits="userSpaceOnUse">
<stop stop-color="#C77E2F"/>
<stop offset="1" stop-color="#F8AB59"/>
</linearGradient>
<linearGradient id="paint1_linear_536_1066" x1="167.68" y1="63.9188" x2="113.332" y2="72.1853" gradientUnits="userSpaceOnUse">
<stop stop-color="#FECA81"/>
<stop offset="1" stop-color="#FFE591"/>
</linearGradient>
<linearGradient id="paint2_linear_536_1066" x1="137.168" y1="153.881" x2="134.336" y2="105.969" gradientUnits="userSpaceOnUse">
<stop stop-color="#DC8329"/>
<stop offset="1" stop-color="#87411F"/>
</linearGradient>
<linearGradient id="paint3_linear_536_1066" x1="130.404" y1="86.2559" x2="165.052" y2="105.075" gradientUnits="userSpaceOnUse">
<stop stop-color="#87411F"/>
<stop offset="1" stop-color="#582C23"/>
</linearGradient>
<linearGradient id="paint4_linear_536_1066" x1="128.819" y1="125.137" x2="57.2166" y2="81.4418" gradientUnits="userSpaceOnUse">
<stop stop-color="#87411F"/>
<stop offset="1" stop-color="#C27A2E"/>
</linearGradient>
<linearGradient id="paint5_linear_536_1066" x1="104.824" y1="175.414" x2="42.8929" y2="98.0439" gradientUnits="userSpaceOnUse">
<stop stop-color="#DC8329"/>
<stop offset="1" stop-color="#FDC47A"/>
</linearGradient>
</defs>
</svg>
