<svg width="20" height="21" viewBox="0 0 20 21" fill="none" xmlns="http://www.w3.org/2000/svg">
<path d="M15.0012 6.66758C15.4432 6.66758 15.8672 6.49197 16.1798 6.17938C16.4923 5.8668 16.668 5.44284 16.668 5.00078C16.668 4.55872 16.4923 4.13476 16.1798 3.82218C15.8672 3.50959 15.4432 3.33398 15.0012 3.33398C14.5591 3.33398 14.1351 3.50959 13.8226 3.82218C13.51 4.13476 13.3344 4.55872 13.3344 5.00078C13.3344 5.44284 13.51 5.8668 13.8226 6.17938C14.1351 6.49197 14.5591 6.66758 15.0012 6.66758V6.66758Z" fill="black"/>
<path d="M9.16738 16.668V15.8346H10.8342C11.0552 15.8346 11.2672 15.7468 11.4235 15.5905C11.5798 15.4342 11.6676 15.2222 11.6676 15.0012V13.3344H13.3344C14.7344 13.334 16.0987 12.893 17.234 12.0738C18.3694 11.2546 19.218 10.0988 19.6596 8.77031C20.1012 7.44179 20.1134 6.00795 19.6945 4.6721C19.2756 3.33625 18.4467 2.16618 17.3256 1.32777C16.2044 0.489356 14.8477 0.0251606 13.4479 0.000993887C12.0481 -0.0231728 10.6762 0.393916 9.52677 1.19312C8.3773 1.99233 7.50859 3.1331 7.04379 4.4537C6.579 5.77429 6.54171 7.20769 6.93721 8.55066L0.486705 15.0012C0.17471 15.3139 -0.000347282 15.7378 5.17261e-07 16.1796V18.3348C5.17261e-07 18.7768 0.175609 19.2008 0.488194 19.5134C0.800779 19.8259 1.22473 20.0016 1.6668 20.0016H5.00039C5.44245 20.0016 5.86641 19.8259 6.17899 19.5134C6.49158 19.2008 6.66718 18.7768 6.66718 18.3348V17.5014H8.33398C8.55501 17.5014 8.76699 17.4136 8.92328 17.2573C9.07957 17.101 9.16738 16.889 9.16738 16.668ZM8.33398 6.66718C8.33398 5.6782 8.62725 4.71143 9.1767 3.88912C9.72615 3.06681 10.5071 2.4259 11.4208 2.04743C12.3345 1.66896 13.3399 1.56994 14.3099 1.76288C15.2799 1.95582 16.1709 2.43206 16.8702 3.13138C17.5695 3.83069 18.0457 4.72168 18.2387 5.69166C18.4316 6.66164 18.3326 7.66705 17.9541 8.58075C17.5757 9.49445 16.9347 10.2754 16.1124 10.8249C15.2901 11.3743 14.3234 11.6676 13.3344 11.6676H10.8342C10.6131 11.6676 10.4012 11.7554 10.2449 11.9117C10.0886 12.068 10.0008 12.2799 10.0008 12.501V14.1678H8.33398C8.11295 14.1678 7.90097 14.2556 7.74468 14.4119C7.58839 14.5682 7.50058 14.7801 7.50058 15.0012V15.8346H5.83379C5.61276 15.8346 5.40078 15.9224 5.24449 16.0787C5.08819 16.2349 5.00039 16.4469 5.00039 16.668V18.3348H1.6668V16.1796L8.48233 9.36406C8.59659 9.24991 8.67523 9.10501 8.70867 8.94699C8.74211 8.78898 8.72891 8.62465 8.67067 8.47399C8.45399 7.91395 8.33398 7.30723 8.33398 6.66718Z" fill="black"/>
</svg>
