<svg width="25" height="25" viewBox="0 0 25 25" fill="none" xmlns="http://www.w3.org/2000/svg">
<path d="M6.42668 1.25813C7.46735 0.447724 8.82824 0 10.1804 0C10.9896 0 11.6438 0.277639 12.1404 0.71911C12.2742 0.837919 12.3931 0.966733 12.4994 1.0993C12.6057 0.966733 12.7245 0.837919 12.8584 0.71911C13.3549 0.277639 14.0091 0 14.8184 0C16.1705 0 17.5326 0.447724 18.5708 1.25813C19.3813 1.88719 20.0155 2.75638 20.2644 3.80565C20.7898 3.8932 21.2563 4.16083 21.6341 4.51476C22.2345 5.07879 22.6635 5.8942 22.9324 6.73337C23.2063 7.58504 23.3427 8.54177 23.3014 9.46098C23.2801 9.93122 23.2113 10.4115 23.08 10.8704L23.1613 10.908C23.6241 11.1256 23.9994 11.467 24.2808 11.921C24.8124 12.7776 25 14.0108 25 15.5828C25 17.3899 24.3083 18.6168 23.4202 19.3784C22.9577 19.7751 22.4162 20.0692 21.8317 20.2414C21.6196 21.2187 21.1837 22.1335 20.5584 22.914C19.654 24.0445 18.2481 25 16.3594 25C14.8459 25 13.6539 24.1621 12.8884 23.3617C12.7526 23.2186 12.6232 23.0697 12.5006 22.9152C12.3776 23.0693 12.2478 23.2178 12.1116 23.3604C11.3461 24.1633 10.1541 25 8.64062 25C6.75064 25 5.34472 24.0445 4.44164 22.914C3.81533 22.1338 3.37861 21.2189 3.16581 20.2414C2.58168 20.0691 2.04071 19.775 1.57853 19.3784C0.690449 18.6156 0 17.3899 0 15.5828C0 14.0108 0.187622 12.7776 0.717967 11.921C0.999344 11.4546 1.41905 11.0874 1.91875 10.8704C1.79024 10.4109 1.71593 9.93782 1.69735 9.46098C1.65608 8.54177 1.79241 7.58504 2.06634 6.73337C2.33527 5.89545 2.76305 5.07879 3.36469 4.51476C3.74097 4.14805 4.21764 3.90126 4.73433 3.80565C4.98449 2.75513 5.6174 1.88719 6.42668 1.25813V1.25813ZM7.57993 2.73762C6.89698 3.26913 6.49672 3.97699 6.49672 4.7924C6.49661 4.94094 6.46121 5.08733 6.39345 5.21952C6.32568 5.35171 6.22748 5.46592 6.10694 5.55275C5.98639 5.63957 5.84695 5.69653 5.70008 5.71893C5.55321 5.74133 5.40312 5.72853 5.26217 5.68159C5.09081 5.62406 4.90944 5.63782 4.64927 5.88294C4.35908 6.15433 4.06514 6.64582 3.8525 7.30615C3.6398 7.97505 3.54499 8.67583 3.57232 9.37719C3.60359 10.0725 3.7687 10.6503 4.02887 11.0405C4.07192 11.1052 4.10679 11.1749 4.13269 11.2481H5.48607C6.38661 11.2479 7.25385 11.5885 7.91352 12.2015C8.57319 12.8144 8.9764 13.6543 9.04213 14.5523C9.58096 14.7672 10.0283 15.1628 10.3076 15.6712C10.5869 16.1796 10.6808 16.7692 10.5733 17.3392C10.4657 17.9092 10.1633 18.4241 9.71791 18.7958C9.2725 19.1674 8.71174 19.3728 8.13162 19.3766C7.55149 19.3805 6.98806 19.1826 6.53776 18.8169C6.08746 18.4512 5.77828 17.9403 5.66315 17.3718C5.54802 16.8033 5.63408 16.2124 5.90662 15.7004C6.17916 15.1883 6.62122 14.7869 7.15715 14.5648C7.09774 14.1642 6.89628 13.7982 6.58952 13.5338C6.28275 13.2693 5.89113 13.1239 5.48607 13.1241H2.20268C2.01506 13.5593 1.87622 14.3109 1.87622 15.5828C1.87622 16.8597 2.34027 17.56 2.80057 17.9552C3.30465 18.3867 3.85876 18.4993 4.01886 18.4993C4.26766 18.4993 4.50628 18.5981 4.68221 18.774C4.85814 18.9499 4.95697 19.1885 4.95697 19.4372C4.95697 19.9625 5.24716 20.9167 5.90759 21.7421C6.543 22.5388 7.44859 23.1241 8.64062 23.1241C9.43738 23.1241 10.1704 22.6763 10.7545 22.066C11.0372 21.7684 11.2573 21.4595 11.4024 21.2094C11.4573 21.1158 11.5054 21.0184 11.5463 20.918L11.5538 20.9005V17.8302V17.8139V9.05953H10.433C10.2153 9.59763 9.81722 10.0433 9.30693 10.3201C8.79665 10.5969 8.20597 10.6876 7.63611 10.5768C7.06625 10.4659 6.5527 10.1603 6.18348 9.71235C5.81425 9.26441 5.61234 8.70202 5.61234 8.12156C5.61234 7.5411 5.81425 6.97871 6.18348 6.53077C6.5527 6.08284 7.06625 5.77724 7.63611 5.66637C8.20597 5.55549 8.79665 5.64623 9.30693 5.92304C9.81722 6.19985 10.2153 6.64549 10.433 7.18359H11.5538V4.0095L11.55 3.93822C11.5286 3.55305 11.4528 3.17284 11.3249 2.8089C11.2123 2.50875 11.0659 2.27489 10.8933 2.12106C10.7395 1.98349 10.5268 1.87594 10.1804 1.87594C9.22224 1.87594 8.27288 2.1986 7.57868 2.73887L7.57993 2.73762ZM13.4462 18.7519V20.9005L13.4525 20.918C13.4775 20.9842 13.525 21.083 13.5976 21.2094C13.7414 21.4595 13.9616 21.7684 14.2455 22.066C14.8284 22.6763 15.5626 23.1241 16.3594 23.1241C17.5502 23.1241 18.4557 22.5388 19.0924 21.7421C19.7516 20.9167 20.043 19.9612 20.043 19.4372C20.043 19.1885 20.1419 18.9499 20.3178 18.774C20.4937 18.5981 20.7323 18.4993 20.9811 18.4993C21.1412 18.4993 21.6941 18.3867 22.1994 17.9552C22.6585 17.56 23.1225 16.8597 23.1225 15.5828C23.1225 14.072 22.9249 13.2941 22.686 12.9102C22.6112 12.7774 22.4978 12.6706 22.3608 12.6038C22.2345 12.5438 22.0443 12.4987 21.7504 12.4987C21.5806 12.4987 21.414 12.4527 21.2683 12.3654C21.1227 12.2782 21.0035 12.153 20.9233 12.0034C20.8432 11.8537 20.8052 11.6851 20.8134 11.5155C20.8216 11.3459 20.8757 11.1818 20.9699 11.0405C21.23 10.6491 21.3952 10.0725 21.4277 9.37719C21.4546 8.67575 21.3594 7.97498 21.1462 7.30615C20.9336 6.64582 20.6397 6.15558 20.3507 5.88294C20.0893 5.63782 19.9079 5.62406 19.7378 5.68159C19.5968 5.72878 19.4466 5.74176 19.2995 5.71948C19.1525 5.69719 19.0129 5.64028 18.8922 5.55343C18.7715 5.46658 18.6731 5.35228 18.6053 5.21996C18.5375 5.08764 18.5021 4.94109 18.502 4.7924C18.502 3.97699 18.1018 3.26913 17.4188 2.73762C16.7271 2.1986 15.7765 1.87469 14.8171 1.87469C14.4719 1.87469 14.2605 1.98349 14.1054 2.11981C13.9328 2.27489 13.7865 2.51 13.6751 2.80765C13.5349 3.19341 13.4576 3.59921 13.4462 4.0095V16.8759H14.2418C14.6896 16.8759 15.1191 16.6981 15.4358 16.3814C15.7524 16.0648 15.9304 15.6354 15.9304 15.1876V12.9427C15.3922 12.725 14.9465 12.327 14.6696 11.8168C14.3928 11.3066 14.302 10.716 14.4129 10.1462C14.5238 9.57645 14.8294 9.06298 15.2774 8.69381C15.7254 8.32463 16.2879 8.12275 16.8685 8.12275C17.449 8.12275 18.0115 8.32463 18.4595 8.69381C18.9075 9.06298 19.2131 9.57645 19.324 10.1462C19.4349 10.716 19.3442 11.3066 19.0673 11.8168C18.7905 12.327 18.3448 12.725 17.8066 12.9427V15.1876C17.8066 16.1329 17.431 17.0395 16.7625 17.7079C16.0939 18.3764 15.1872 18.7519 14.2418 18.7519H13.4462V18.7519ZM8.11277 7.49625C7.94691 7.49625 7.78783 7.56213 7.67054 7.6794C7.55326 7.79667 7.48737 7.95572 7.48737 8.12156C7.48737 8.2874 7.55326 8.44646 7.67054 8.56372C7.78783 8.68099 7.94691 8.74687 8.11277 8.74687C8.27864 8.74687 8.43772 8.68099 8.555 8.56372C8.67229 8.44646 8.73818 8.2874 8.73818 8.12156C8.73818 7.95572 8.67229 7.79667 8.555 7.6794C8.43772 7.56213 8.27864 7.49625 8.11277 7.49625ZM7.48737 16.8759C7.48737 17.0418 7.55326 17.2008 7.67054 17.3181C7.78783 17.4354 7.94691 17.5013 8.11277 17.5013C8.27864 17.5013 8.43772 17.4354 8.555 17.3181C8.67229 17.2008 8.73818 17.0418 8.73818 16.8759C8.73818 16.7101 8.67229 16.551 8.555 16.4338C8.43772 16.3165 8.27864 16.2506 8.11277 16.2506C7.94691 16.2506 7.78783 16.3165 7.67054 16.4338C7.55326 16.551 7.48737 16.7101 7.48737 16.8759ZM16.2431 10.6228C16.2431 10.7887 16.3089 10.9477 16.4262 11.065C16.5435 11.1822 16.7026 11.2481 16.8685 11.2481C17.0343 11.2481 17.1934 11.1822 17.3107 11.065C17.428 10.9477 17.4939 10.7887 17.4939 10.6228C17.4939 10.457 17.428 10.2979 17.3107 10.1806C17.1934 10.0634 17.0343 9.9975 16.8685 9.9975C16.7026 9.9975 16.5435 10.0634 16.4262 10.1806C16.3089 10.2979 16.2431 10.457 16.2431 10.6228Z" fill="#49C2C0"/>
</svg>
