<svg width="10" height="13" viewBox="0 0 10 13" fill="none" xmlns="http://www.w3.org/2000/svg">
<path d="M5 0C3.6744 0.00156385 2.40354 0.52885 1.4662 1.46619C0.528855 2.40353 0.00156917 3.67439 5.31949e-06 4.99999C-0.00158236 6.08328 0.352269 7.13717 1.00728 7.99999C1.00728 7.99999 1.14364 8.17954 1.16591 8.20545L5 12.7273L8.83591 8.20317C8.8559 8.17908 8.99272 7.99999 8.99272 7.99999L8.99318 7.99863C9.64786 7.13618 10.0015 6.08278 10 4.99999C9.99843 3.67439 9.47114 2.40353 8.5338 1.46619C7.59646 0.52885 6.3256 0.00156385 5 0ZM5 6.81817C4.6404 6.81817 4.28887 6.71154 3.98987 6.51176C3.69088 6.31197 3.45783 6.02801 3.32022 5.69578C3.18261 5.36355 3.1466 4.99798 3.21676 4.64529C3.28691 4.29259 3.46008 3.96862 3.71435 3.71435C3.96863 3.46007 4.2926 3.28691 4.64529 3.21675C4.99798 3.1466 5.36356 3.1826 5.69579 3.32022C6.02802 3.45783 6.31198 3.69087 6.51176 3.98987C6.71155 4.28887 6.81818 4.64039 6.81818 4.99999C6.81758 5.48202 6.62583 5.94413 6.28498 6.28498C5.94414 6.62582 5.48203 6.81757 5 6.81817Z" fill="#D13535"/>
</svg>
