<svg width="59" height="25" viewBox="0 0 59 25" fill="none" xmlns="http://www.w3.org/2000/svg">
<path d="M2.51953 7.46875V16H0.761719V7.46875H2.51953ZM7.62891 7.46875L4.24805 11.6816L2.29688 13.7793L1.98047 12.1152L3.29883 10.3105L5.47266 7.46875H7.62891ZM5.63086 16L3.11719 12.0566L4.41797 10.9668L7.71094 16H5.63086ZM11.0508 16.1172C10.5586 16.1172 10.1172 16.0391 9.72656 15.8828C9.33594 15.7227 9.00391 15.502 8.73047 15.2207C8.46094 14.9395 8.25391 14.6133 8.10938 14.2422C7.96484 13.8672 7.89258 13.4688 7.89258 13.0469V12.8125C7.89258 12.332 7.96094 11.8926 8.09766 11.4941C8.23438 11.0957 8.42969 10.75 8.68359 10.457C8.94141 10.1641 9.25391 9.93945 9.62109 9.7832C9.98828 9.62305 10.4023 9.54297 10.8633 9.54297C11.3125 9.54297 11.7109 9.61719 12.0586 9.76562C12.4062 9.91406 12.6973 10.125 12.9316 10.3984C13.1699 10.6719 13.3496 11 13.4707 11.3828C13.5918 11.7617 13.6523 12.1836 13.6523 12.6484V13.3516H8.61328V12.2266H11.9941V12.0977C11.9941 11.8633 11.9512 11.6543 11.8652 11.4707C11.7832 11.2832 11.6582 11.1348 11.4902 11.0254C11.3223 10.916 11.1074 10.8613 10.8457 10.8613C10.623 10.8613 10.4316 10.9102 10.2715 11.0078C10.1113 11.1055 9.98047 11.2422 9.87891 11.418C9.78125 11.5938 9.70703 11.8008 9.65625 12.0391C9.60938 12.2734 9.58594 12.5312 9.58594 12.8125V13.0469C9.58594 13.3008 9.62109 13.5352 9.69141 13.75C9.76562 13.9648 9.86914 14.1504 10.002 14.3066C10.1387 14.4629 10.3027 14.584 10.4941 14.6699C10.6895 14.7559 10.9102 14.7988 11.1562 14.7988C11.4609 14.7988 11.7441 14.7402 12.0059 14.623C12.2715 14.502 12.5 14.3203 12.6914 14.0781L13.5117 14.9688C13.3789 15.1602 13.1973 15.3438 12.9668 15.5195C12.7402 15.6953 12.4668 15.8398 12.1465 15.9531C11.8262 16.0625 11.4609 16.1172 11.0508 16.1172ZM16.3945 7V16H14.7012V7H16.3945ZM21.5391 14.4824V9.66016H23.2266V16H21.6387L21.5391 14.4824ZM21.7266 13.1816L22.2246 13.1699C22.2246 13.5918 22.1758 13.9844 22.0781 14.3477C21.9805 14.707 21.834 15.0195 21.6387 15.2852C21.4434 15.5469 21.1973 15.752 20.9004 15.9004C20.6035 16.0449 20.2539 16.1172 19.8516 16.1172C19.543 16.1172 19.2578 16.0742 18.9961 15.9883C18.7383 15.8984 18.5156 15.7598 18.3281 15.5723C18.1445 15.3809 18 15.1367 17.8945 14.8398C17.793 14.5391 17.7422 14.1777 17.7422 13.7559V9.66016H19.4297V13.7676C19.4297 13.9551 19.4512 14.1133 19.4941 14.2422C19.541 14.3711 19.6055 14.4766 19.6875 14.5586C19.7695 14.6406 19.8652 14.6992 19.9746 14.7344C20.0879 14.7695 20.2129 14.7871 20.3496 14.7871C20.6973 14.7871 20.9707 14.7168 21.1699 14.5762C21.373 14.4355 21.5156 14.2441 21.5977 14.002C21.6836 13.7559 21.7266 13.4824 21.7266 13.1816ZM27.9375 14.5703V11.7461C27.9375 11.543 27.9043 11.3691 27.8379 11.2246C27.7715 11.0762 27.668 10.9609 27.5273 10.8789C27.3906 10.7969 27.2129 10.7559 26.9941 10.7559C26.8066 10.7559 26.6445 10.7891 26.5078 10.8555C26.3711 10.918 26.2656 11.0098 26.1914 11.1309C26.1172 11.248 26.0801 11.3867 26.0801 11.5469H24.3926C24.3926 11.2773 24.4551 11.0215 24.5801 10.7793C24.7051 10.5371 24.8867 10.3242 25.125 10.1406C25.3633 9.95312 25.6465 9.80664 25.9746 9.70117C26.3066 9.5957 26.6777 9.54297 27.0879 9.54297C27.5801 9.54297 28.0176 9.625 28.4004 9.78906C28.7832 9.95312 29.084 10.1992 29.3027 10.5273C29.5254 10.8555 29.6367 11.2656 29.6367 11.7578V14.4707C29.6367 14.8184 29.6582 15.1035 29.7012 15.3262C29.7441 15.5449 29.8066 15.7363 29.8887 15.9004V16H28.1836C28.1016 15.8281 28.0391 15.6133 27.9961 15.3555C27.957 15.0938 27.9375 14.832 27.9375 14.5703ZM28.1602 12.1387L28.1719 13.0938H27.2285C27.0059 13.0938 26.8125 13.1191 26.6484 13.1699C26.4844 13.2207 26.3496 13.293 26.2441 13.3867C26.1387 13.4766 26.0605 13.582 26.0098 13.7031C25.9629 13.8242 25.9395 13.957 25.9395 14.1016C25.9395 14.2461 25.9727 14.377 26.0391 14.4941C26.1055 14.6074 26.2012 14.6973 26.3262 14.7637C26.4512 14.8262 26.5977 14.8574 26.7656 14.8574C27.0195 14.8574 27.2402 14.8066 27.4277 14.7051C27.6152 14.6035 27.7598 14.4785 27.8613 14.3301C27.9668 14.1816 28.0215 14.041 28.0254 13.9082L28.4707 14.623C28.4082 14.7832 28.3223 14.9492 28.2129 15.1211C28.1074 15.293 27.9727 15.4551 27.8086 15.6074C27.6445 15.7559 27.4473 15.8789 27.2168 15.9766C26.9863 16.0703 26.7129 16.1172 26.3965 16.1172C25.9941 16.1172 25.6289 16.0371 25.3008 15.877C24.9766 15.7129 24.7188 15.4883 24.5273 15.2031C24.3398 14.9141 24.2461 14.5859 24.2461 14.2188C24.2461 13.8867 24.3086 13.5918 24.4336 13.334C24.5586 13.0762 24.7422 12.8594 24.9844 12.6836C25.2305 12.5039 25.5371 12.3691 25.9043 12.2793C26.2715 12.1855 26.6973 12.1387 27.1816 12.1387H28.1602ZM32.625 11.043V16H30.9375V9.66016H32.5254L32.625 11.043ZM34.5352 9.61914L34.5059 11.1836C34.4238 11.1719 34.3242 11.1621 34.207 11.1543C34.0938 11.1426 33.9902 11.1367 33.8965 11.1367C33.6582 11.1367 33.4512 11.168 33.2754 11.2305C33.1035 11.2891 32.959 11.377 32.8418 11.4941C32.7285 11.6113 32.6426 11.7539 32.584 11.9219C32.5293 12.0898 32.498 12.2812 32.4902 12.4961L32.1504 12.3906C32.1504 11.9805 32.1914 11.6035 32.2734 11.2598C32.3555 10.9121 32.4746 10.6094 32.6309 10.3516C32.791 10.0938 32.9863 9.89453 33.2168 9.75391C33.4473 9.61328 33.7109 9.54297 34.0078 9.54297C34.1016 9.54297 34.1973 9.55078 34.2949 9.56641C34.3926 9.57812 34.4727 9.5957 34.5352 9.61914Z" fill="#313131"/>
<path d="M38.6875 23.4375H48.0625C48.4768 23.4371 48.874 23.2723 49.1669 22.9794C49.4598 22.6865 49.6246 22.2893 49.625 21.875V19.5312H48.0625V21.875H38.6875V3.125H48.0625V5.46875H49.625V3.125C49.6246 2.71073 49.4598 2.31354 49.1669 2.0206C48.874 1.72767 48.4768 1.56291 48.0625 1.5625H38.6875C38.2732 1.56291 37.876 1.72767 37.5831 2.0206C37.2902 2.31354 37.1254 2.71073 37.125 3.125V21.875C37.1254 22.2893 37.2902 22.6865 37.5831 22.9794C37.876 23.2723 38.2732 23.4371 38.6875 23.4375Z" fill="#313131"/>
<path d="M50.0828 16.0828L52.8844 13.2812H41.8125V11.7188H52.8844L50.0828 8.91719L51.1875 7.8125L55.875 12.5L51.1875 17.1875L50.0828 16.0828Z" fill="#313131"/>
</svg>
