<svg width="30" height="30" viewBox="0 0 30 30" fill="none" xmlns="http://www.w3.org/2000/svg">
<path d="M9.61 24.4325L9.60954 24.4328C9.19159 24.7459 8.67365 24.8981 8.17005 24.9063C7.66611 24.9145 7.14486 24.7792 6.7164 24.485L4.84237 23.2013L4.82957 23.1925L4.81705 23.1833C4.38857 22.8698 4.0549 22.3763 4.03159 21.7707C4.00814 21.1613 4.30686 20.6416 4.72269 20.3001C5.13162 19.9643 5.65033 19.794 6.15691 19.7705C6.66451 19.747 7.19274 19.8689 7.63218 20.1506L7.64525 20.159L7.65806 20.1678L8.05871 20.4425L11.014 18.2245C11.0142 18.2244 11.0144 18.2242 11.0145 18.2241C11.0146 18.224 11.0147 18.224 11.0147 18.224C11.2306 18.0618 11.4731 17.9431 11.7238 17.8651C11.9751 17.7869 12.2383 17.7483 12.5 17.7483C12.7617 17.7483 13.0249 17.7869 13.2762 17.8651C13.5272 17.9432 13.77 18.0621 13.986 18.2245M9.61 24.4325L13.385 19.0238M9.61 24.4325L13.984 21.152M9.61 24.4325L13.385 20.3512M13.986 18.2245L13.385 19.0238M13.986 18.2245C13.9853 18.224 13.9847 18.2235 13.984 18.223L13.385 19.0238M13.986 18.2245C14.2017 18.3862 14.393 18.5933 14.5318 18.8441C14.6721 19.0976 14.7522 19.3853 14.7522 19.6875C14.7522 19.9897 14.6721 20.2774 14.5318 20.5309C14.3926 20.7825 14.2005 20.99 13.984 21.152M13.385 19.0238C13.5014 19.1108 13.5938 19.2143 13.6568 19.3282C13.7198 19.4421 13.7522 19.5642 13.7522 19.6875C13.7522 19.8108 13.7198 19.9329 13.6568 20.0468C13.5938 20.1607 13.5014 20.2642 13.385 20.3512M13.984 21.152L13.985 21.1512L13.385 20.3512M13.984 21.152L13.385 20.3512M20.2339 1.34959C20.1709 1.30234 20.1056 1.25875 20.0385 1.21875C20.1823 1.27066 20.3193 1.33108 20.4479 1.39924C20.9265 1.65289 21.2325 1.98222 21.383 2.3014L21.6534 2.875H22.2875H26.25C27.058 2.875 27.7939 3.11793 28.3017 3.49876C28.8039 3.87547 29 4.31486 29 4.6875V27.1875C29 27.5601 28.8039 27.9995 28.3017 28.3762C27.7939 28.7571 27.058 29 26.25 29H3.75C2.94205 29 2.20613 28.7571 1.69835 28.3762C1.19607 27.9995 1 27.5601 1 27.1875V4.6875C1 4.31486 1.19607 3.87547 1.69835 3.49876C2.20613 3.11793 2.94205 2.875 3.75 2.875H7.7125H8.34664L8.61703 2.3014C8.7675 1.98222 9.07354 1.65288 9.55209 1.39924C9.68069 1.33108 9.81772 1.27066 9.96154 1.21876C9.89439 1.25875 9.82911 1.30234 9.76612 1.34959C9.33071 1.67614 9 2.19058 9 2.8125C9 3.43442 9.33071 3.94886 9.76612 4.27541C10.196 4.59784 10.7319 4.75 11.25 4.75H18.75C19.2681 4.75 19.804 4.59784 20.2339 4.27541C20.6693 3.94886 21 3.43442 21 2.8125C21 2.19058 20.6693 1.67614 20.2339 1.34959ZM9.60954 15.0578L9.61 15.0575L13.985 11.7762C14.2011 11.6142 14.3928 11.4066 14.5317 11.1552C14.6716 10.9017 14.7516 10.6143 14.7516 10.3125C14.7516 10.0107 14.6716 9.72325 14.5317 9.46983C14.3928 9.21841 14.2011 9.01083 13.985 8.84875C13.769 8.68677 13.5264 8.56819 13.2756 8.49029C13.0245 8.41228 12.7615 8.37382 12.5 8.37382C12.2385 8.37382 11.9755 8.41228 11.7244 8.49029C11.4736 8.56819 11.231 8.68677 11.015 8.84875L8.05814 11.0664L7.66809 10.7997C7.44989 10.6428 7.20617 10.529 6.95497 10.4555C6.69769 10.3802 6.42868 10.3459 6.16195 10.3517C5.89525 10.3575 5.62773 10.4034 5.37374 10.4907C5.12015 10.5779 4.87602 10.7078 4.66203 10.8836C4.44773 11.0596 4.26199 11.2832 4.13601 11.551C4.00891 11.8212 3.95012 12.1215 3.97543 12.4286C4.00067 12.7348 4.10699 13.0181 4.26838 13.2608C4.42516 13.4965 4.62895 13.6874 4.85309 13.8336L6.7164 15.11C6.7166 15.1101 6.71681 15.1102 6.71701 15.1104C7.14536 15.4043 7.66635 15.5395 8.17005 15.5313C8.67365 15.5231 9.19159 15.3709 9.60954 15.0578ZM23.75 19.625H17.5C16.9819 19.625 16.446 19.7772 16.0161 20.0996C15.5807 20.4261 15.25 20.9406 15.25 21.5625C15.25 22.1844 15.5807 22.6989 16.0161 23.0254C16.446 23.3478 16.9819 23.5 17.5 23.5H23.75C24.2681 23.5 24.804 23.3478 25.2339 23.0254C25.6693 22.6989 26 22.1844 26 21.5625C26 20.9406 25.6693 20.4261 25.2339 20.0996C24.804 19.7772 24.2681 19.625 23.75 19.625ZM16.0161 10.7246C15.5807 11.0511 15.25 11.5656 15.25 12.1875C15.25 12.8094 15.5807 13.3239 16.0161 13.6504C16.446 13.9728 16.9819 14.125 17.5 14.125H23.75C24.2681 14.125 24.804 13.9728 25.2339 13.6504C25.6693 13.3239 26 12.8094 26 12.1875C26 11.5656 25.6693 11.0511 25.2339 10.7246C24.804 10.4022 24.2681 10.25 23.75 10.25H17.5C16.9819 10.25 16.446 10.4022 16.0161 10.7246Z" stroke="#3A3838" stroke-width="2"/>
</svg>
