<svg width="30" height="30" viewBox="0 0 30 30" fill="none" xmlns="http://www.w3.org/2000/svg">
<path d="M11.25 3.86694e-07C10.4742 -0.00030465 9.71734 0.179865 9.08377 0.515678C8.45021 0.851491 7.97111 1.32642 7.7125 1.875H3.75C2.75544 1.875 1.80161 2.17132 1.09835 2.69876C0.395088 3.22621 0 3.94158 0 4.6875V27.1875C0 27.9334 0.395088 28.6488 1.09835 29.1762C1.80161 29.7037 2.75544 30 3.75 30H26.25C27.2446 30 28.1984 29.7037 28.9016 29.1762C29.6049 28.6488 30 27.9334 30 27.1875V4.6875C30 3.94158 29.6049 3.22621 28.9016 2.69876C28.1984 2.17132 27.2446 1.875 26.25 1.875H22.2875C22.0289 1.32642 21.5498 0.851491 20.9162 0.515678C20.2827 0.179865 19.5258 -0.00030465 18.75 3.86694e-07H11.25ZM10 2.8125C10 2.56386 10.1317 2.3254 10.3661 2.14959C10.6005 1.97377 10.9185 1.875 11.25 1.875H18.75C19.0815 1.875 19.3995 1.97377 19.6339 2.14959C19.8683 2.3254 20 2.56386 20 2.8125C20 3.06114 19.8683 3.2996 19.6339 3.47541C19.3995 3.65123 19.0815 3.75 18.75 3.75H11.25C10.9185 3.75 10.6005 3.65123 10.3661 3.47541C10.1317 3.2996 10 3.06114 10 2.8125ZM13.385 10.9762L9.01 14.2575C8.78227 14.4281 8.47557 14.5262 8.15377 14.5315C7.83198 14.5367 7.51989 14.4486 7.2825 14.2856L5.4075 13.0013C5.28009 12.9196 5.17588 12.8195 5.10107 12.707C5.02627 12.5945 4.98239 12.4719 4.97205 12.3464C4.96171 12.221 4.98512 12.0952 5.04088 11.9767C5.09665 11.8581 5.18364 11.7492 5.29667 11.6564C5.4097 11.5636 5.54647 11.4887 5.69883 11.4364C5.8512 11.384 6.01606 11.3551 6.1836 11.3515C6.35114 11.3479 6.51794 11.3695 6.67408 11.4152C6.83022 11.4609 6.97252 11.5297 7.0925 11.6175L8.085 12.2962L11.615 9.64875C11.7312 9.56158 11.8692 9.49244 12.021 9.44527C12.1729 9.3981 12.3356 9.37382 12.5 9.37382C12.6644 9.37382 12.8271 9.3981 12.979 9.44527C13.1308 9.49244 13.2688 9.56158 13.385 9.64875C13.5012 9.73591 13.5934 9.83939 13.6563 9.95328C13.7192 10.0672 13.7516 10.1892 13.7516 10.3125C13.7516 10.4358 13.7192 10.5578 13.6563 10.6717C13.5934 10.7856 13.5012 10.8891 13.385 10.9762ZM13.385 19.0238C13.5014 19.1108 13.5938 19.2143 13.6568 19.3282C13.7198 19.4421 13.7522 19.5642 13.7522 19.6875C13.7522 19.8108 13.7198 19.9329 13.6568 20.0468C13.5938 20.1607 13.5014 20.2642 13.385 20.3512L9.01 23.6325C8.78227 23.8031 8.47557 23.9012 8.15377 23.9065C7.83198 23.9117 7.51989 23.8236 7.2825 23.6606L5.4075 22.3762C5.17528 22.2064 5.04021 21.9754 5.03085 21.7322C5.02149 21.489 5.13857 21.2526 5.35733 21.0729C5.5761 20.8933 5.87943 20.7844 6.20322 20.7694C6.52701 20.7544 6.8459 20.8344 7.0925 20.9925L8.085 21.6731L11.615 19.0238C11.7311 18.9364 11.8691 18.8672 12.0209 18.8199C12.1728 18.7727 12.3356 18.7483 12.5 18.7483C12.6644 18.7483 12.8272 18.7727 12.9791 18.8199C13.1309 18.8672 13.2689 18.9364 13.385 19.0238ZM17.5 20.625H23.75C24.0815 20.625 24.3995 20.7238 24.6339 20.8996C24.8683 21.0754 25 21.3139 25 21.5625C25 21.8111 24.8683 22.0496 24.6339 22.2254C24.3995 22.4012 24.0815 22.5 23.75 22.5H17.5C17.1685 22.5 16.8505 22.4012 16.6161 22.2254C16.3817 22.0496 16.25 21.8111 16.25 21.5625C16.25 21.3139 16.3817 21.0754 16.6161 20.8996C16.8505 20.7238 17.1685 20.625 17.5 20.625ZM16.25 12.1875C16.25 11.9389 16.3817 11.7004 16.6161 11.5246C16.8505 11.3488 17.1685 11.25 17.5 11.25H23.75C24.0815 11.25 24.3995 11.3488 24.6339 11.5246C24.8683 11.7004 25 11.9389 25 12.1875C25 12.4361 24.8683 12.6746 24.6339 12.8504C24.3995 13.0262 24.0815 13.125 23.75 13.125H17.5C17.1685 13.125 16.8505 13.0262 16.6161 12.8504C16.3817 12.6746 16.25 12.4361 16.25 12.1875Z" fill="#49C2C0"/>
</svg>
