<svg width="19" height="22" viewBox="0 0 19 22" fill="none" xmlns="http://www.w3.org/2000/svg">
<path d="M9.5 12C11.2604 12 12.6875 10.6569 12.6875 9C12.6875 7.34315 11.2604 6 9.5 6C7.73959 6 6.3125 7.34315 6.3125 9C6.3125 10.6569 7.73959 12 9.5 12Z" stroke="black" stroke-width="2" stroke-linecap="round" stroke-linejoin="round"/>
<path d="M9.5 1C7.24566 1 5.08365 1.84285 3.48959 3.34315C1.89553 4.84344 1 6.87827 1 9C1 10.892 1.42712 12.13 2.59375 13.5L9.5 21L16.4062 13.5C17.5729 12.13 18 10.892 18 9C18 6.87827 17.1045 4.84344 15.5104 3.34315C13.9163 1.84285 11.7543 1 9.5 1V1Z" stroke="black" stroke-width="2" stroke-linecap="round" stroke-linejoin="round"/>
</svg>
