<svg width="28" height="30" viewBox="0 0 28 30" fill="none" xmlns="http://www.w3.org/2000/svg">
<path d="M27.72 0H0.28C0.126 0 0 0.153409 0 0.340909V3.06818C0 3.25568 0.126 3.40909 0.28 3.40909H27.72C27.874 3.40909 28 3.25568 28 3.06818V0.340909C28 0.153409 27.874 0 27.72 0ZM27.72 26.5909H0.28C0.126 26.5909 0 26.7443 0 26.9318V29.6591C0 29.8466 0.126 30 0.28 30H27.72C27.874 30 28 29.8466 28 29.6591V26.9318C28 26.7443 27.874 26.5909 27.72 26.5909ZM27.72 13.2955H0.28C0.126 13.2955 0 13.4489 0 13.6364V16.3636C0 16.5511 0.126 16.7045 0.28 16.7045H27.72C27.874 16.7045 28 16.5511 28 16.3636V13.6364C28 13.4489 27.874 13.2955 27.72 13.2955Z" fill="#49C2C0"/>
</svg>
