<svg width="30" height="30" viewBox="0 0 30 30" fill="none" xmlns="http://www.w3.org/2000/svg">
<path d="M29.7 0H0.3C0.135 0 0 0.153409 0 0.340909V3.06818C0 3.25568 0.135 3.40909 0.3 3.40909H29.7C29.865 3.40909 30 3.25568 30 3.06818V0.340909C30 0.153409 29.865 0 29.7 0ZM29.7 26.5909H0.3C0.135 26.5909 0 26.7443 0 26.9318V29.6591C0 29.8466 0.135 30 0.3 30H29.7C29.865 30 30 29.8466 30 29.6591V26.9318C30 26.7443 29.865 26.5909 29.7 26.5909ZM29.7 13.2955H0.3C0.135 13.2955 0 13.4489 0 13.6364V16.3636C0 16.5511 0.135 16.7045 0.3 16.7045H29.7C29.865 16.7045 30 16.5511 30 16.3636V13.6364C30 13.4489 29.865 13.2955 29.7 13.2955Z" fill="#3A3838"/>
</svg>
