<svg width="28" height="30" viewBox="0 0 28 30" fill="none" xmlns="http://www.w3.org/2000/svg">
<path d="M27.72 0H0.28C0.126 0 0 0.14984 0 0.332977V2.99679C0 3.17993 0.126 3.32977 0.28 3.32977H27.72C27.874 3.32977 28 3.17993 28 2.99679V0.332977C28 0.14984 27.874 0 27.72 0ZM27.72 25.9722H0.28C0.126 25.9722 0 26.1221 0 26.3052V28.969C0 29.1522 0.126 29.302 0.28 29.302H27.72C27.874 29.302 28 29.1522 28 28.969V26.3052C28 26.1221 27.874 25.9722 27.72 25.9722ZM27.72 12.9861H0.28C0.126 12.9861 0 13.136 0 13.3191V15.9829C0 16.166 0.126 16.3159 0.28 16.3159H27.72C27.874 16.3159 28 16.166 28 15.9829V13.3191C28 13.136 27.874 12.9861 27.72 12.9861Z" fill="#49C2C0"/>
</svg>
