<svg width="25" height="25" viewBox="0 0 25 25" fill="none" xmlns="http://www.w3.org/2000/svg">
<path d="M8.15172 4.36639L8.74993 1.78603H15.8928L14.1071 9.82175H18.7499L16.5267 12.7235L17.8035 14.0003L21.2589 9.47353C21.3527 9.34666 21.4112 9.19719 21.4284 9.04035C21.4457 8.88352 21.4211 8.72491 21.3571 8.58068C21.2887 8.41929 21.1744 8.2816 21.0283 8.18475C20.8822 8.0879 20.7109 8.03618 20.5356 8.03603H16.2946L17.8571 1.0896C17.8866 0.957835 17.8859 0.821076 17.855 0.68962C17.8241 0.558164 17.7637 0.435436 17.6785 0.330676C17.5926 0.224701 17.4835 0.139822 17.3597 0.082555C17.2359 0.0252879 17.1006 -0.00284409 16.9642 0.000319118H8.03564C7.83047 -0.00516604 7.62968 0.0602024 7.46706 0.18542C7.30444 0.310639 7.18992 0.48806 7.14279 0.687819L6.66064 2.87532L8.15172 4.36639Z" fill="black"/>
<path d="M25 23.7411L16.6875 15.4286L15.4196 14.1518L7.67857 6.41964L6.1875 4.92857L1.25893 0L0 1.25893L5.71429 6.98214L4.46429 12.2946C4.43278 12.4277 4.43227 12.5663 4.46279 12.6996C4.49332 12.8329 4.55407 12.9574 4.64034 13.0636C4.72662 13.1697 4.83612 13.2546 4.96041 13.3117C5.08469 13.3688 5.22042 13.3965 5.35714 13.3929H9.66964L8.03571 23.9732C8.00622 24.1693 8.04287 24.3697 8.13987 24.5427C8.23687 24.7157 8.38871 24.8514 8.57143 24.9286C8.68492 24.9746 8.80609 24.9989 8.92857 25C9.06493 24.9997 9.1994 24.9681 9.32166 24.9078C9.44393 24.8474 9.55075 24.7598 9.63393 24.6518L15.5982 16.8571L23.7411 25L25 23.7411ZM6.48214 11.6071L7.20536 8.46429L10.3482 11.6071H6.48214ZM10.3393 20.7857L11.6071 12.8304L14.2857 15.5804L10.3393 20.7857Z" fill="black"/>
</svg>
