<svg width="53" height="54" viewBox="0 0 53 54" fill="none" xmlns="http://www.w3.org/2000/svg">
<rect width="53" height="54" rx="26.5" fill="#FFFEFE"/>
<g clip-path="url(#clip0_3735_4478)">
<path d="M20.9862 8.09842C20.3487 8.30936 19.844 8.77343 19.5651 9.40624C19.3924 9.79296 19.3924 9.79999 19.3725 11.9164L19.3526 14.0398L15.5874 14.0609L11.8221 14.082L11.4768 14.2508C11.2842 14.3422 11.0186 14.5391 10.8858 14.6937C10.421 15.2422 10.4276 15.1859 10.4077 18.2516C10.3878 21.4016 10.401 21.5281 10.8592 22.0766C11.3108 22.625 11.5831 22.7164 12.8182 22.7516L13.8807 22.7797L14.485 23.4055C15.501 24.4601 15.6803 24.4601 16.7096 23.4547L17.3803 22.8008L18.4163 22.7656C19.2729 22.7305 19.512 22.6953 19.7577 22.5828C20.1893 22.3719 20.4549 22.1117 20.6475 21.6969C20.8135 21.3453 20.8202 21.282 20.8202 20.1078V18.8844L20.9729 18.9336C21.0526 18.9617 21.7831 19.0039 22.5932 19.032C23.4366 19.0531 24.094 19.1023 24.1272 19.1445C24.1604 19.1797 24.4526 19.5312 24.7714 19.918C25.4089 20.6914 25.6413 20.8672 26.0132 20.8672C26.3784 20.8672 26.5378 20.7758 26.903 20.368C27.0889 20.157 27.4276 19.7773 27.66 19.5101L28.0784 19.0391H29.3467C30.044 19.0391 30.7214 19.0109 30.8608 18.9758L31.0999 18.9195L31.1264 20.1219C31.1464 21.2539 31.1596 21.3453 31.3257 21.6758C31.5315 22.0906 31.7706 22.3367 32.1756 22.5617C32.4413 22.7094 32.5874 22.7305 33.537 22.7516L34.5995 22.7797L35.2303 23.4336C36.253 24.4742 36.4522 24.4742 37.4749 23.4336L38.119 22.7797L39.1815 22.7516C40.1776 22.7234 40.2639 22.7094 40.5827 22.5406C40.9745 22.3226 41.2335 22.0273 41.4327 21.5703C41.5655 21.268 41.5721 21.1484 41.5721 18.4062C41.5721 15.6641 41.5655 15.5445 41.4327 15.2422C41.2268 14.7711 40.9811 14.4969 40.5561 14.2789L40.1776 14.082L36.4456 14.0609L32.7135 14.0398L32.6936 11.9164L32.6737 9.79296L32.4878 9.39921C32.2753 8.92811 31.7639 8.40077 31.3257 8.18983C31.0268 8.04218 30.9139 8.03514 28.6096 8.01405L26.1991 7.99296L26.0331 8.16874C25.8206 8.39374 25.8206 8.66092 26.0331 8.87889L26.1924 9.05468H28.437C30.4757 9.05468 30.7081 9.06874 30.9471 9.18827C31.2659 9.34296 31.4717 9.56796 31.6112 9.91249C31.6975 10.1375 31.7108 10.6648 31.7108 13.5406C31.7108 16.8875 31.7108 16.9015 31.5581 17.2109C31.4717 17.3937 31.2924 17.6117 31.1264 17.7383L30.8342 17.9492L29.3335 17.9844C27.5139 18.0265 27.5737 18.0055 26.6706 19.0812C26.3319 19.482 26.0464 19.8125 26.0331 19.8125C26.0198 19.8125 25.7342 19.475 25.3889 19.0601C24.5124 17.9984 24.4792 17.9844 22.8124 17.9844C22.1018 17.9844 21.4046 17.9492 21.2717 17.9141C20.953 17.8156 20.6475 17.5414 20.4882 17.2039C20.362 16.9508 20.3553 16.768 20.3553 13.5266C20.3553 11.2906 20.3819 10.0531 20.4284 9.91952C20.528 9.63827 20.8069 9.34296 21.119 9.18827C21.3514 9.07577 21.5639 9.05468 22.7858 9.05468C24.1007 9.05468 24.2003 9.04764 24.3663 8.90702C24.4924 8.80155 24.5389 8.69608 24.5389 8.52733C24.5389 8.35858 24.4924 8.25311 24.3663 8.14764C24.2003 8.00702 24.1073 7.99999 22.7194 8.00702C21.7299 8.00702 21.1655 8.03514 20.9862 8.09842ZM19.3592 16.1984C19.3924 17.225 19.3991 17.2742 19.6116 17.7031L19.8241 18.1461V19.6086C19.8241 20.5648 19.7975 21.1344 19.7444 21.2469C19.585 21.6195 19.419 21.6687 18.1971 21.7109C17.4069 21.732 17.0217 21.7742 16.9022 21.8445C16.8092 21.9008 16.4905 22.1961 16.185 22.5125L15.6405 23.075L15.1557 22.5758C14.3257 21.7039 14.3323 21.7109 13.1237 21.7109C11.935 21.7109 11.7026 21.6406 11.51 21.2187C11.4038 21.0008 11.3905 20.7125 11.3905 18.4203C11.3905 15.7695 11.4104 15.5586 11.6827 15.3195C11.7424 15.2703 11.8885 15.2 12.0081 15.1719C12.121 15.1367 13.821 15.1226 15.7733 15.1226L19.326 15.1367L19.3592 16.1984ZM40.2174 15.2633C40.576 15.5164 40.576 15.5375 40.576 18.4344V21.1133L40.4233 21.3383C40.2174 21.6476 39.9518 21.7109 38.8163 21.7109C37.694 21.7109 37.7405 21.6898 36.9038 22.5195L36.3526 23.068L35.8081 22.5055C35.5092 22.1961 35.1905 21.9008 35.0975 21.8445C34.978 21.7742 34.5928 21.7391 33.7893 21.7109C32.1159 21.6617 32.1159 21.6617 32.1159 19.5805C32.1092 18.2656 32.1092 18.2516 32.2753 18.0195C32.6007 17.5766 32.7069 17.0914 32.7069 16.1C32.7069 15.6008 32.7268 15.1719 32.7534 15.1437C32.7799 15.1156 34.4335 15.1086 36.4256 15.1156C39.746 15.1367 40.0581 15.1437 40.2174 15.2633Z" fill="#8CA8FF"/>
<path d="M14.3126 16.5711C13.8544 16.7187 13.4427 17.0914 13.2103 17.5625C13.011 17.9633 13.0376 18.6945 13.27 19.1867C13.6153 19.932 15.0696 21.1625 15.6075 21.1625C15.9993 21.1625 16.8228 20.6 17.4403 19.9039C17.8653 19.4328 18.0646 19.0601 18.1708 18.5539C18.3103 17.8719 17.9118 17.0562 17.2743 16.6976C16.929 16.5078 16.1786 16.4867 15.8665 16.6625C15.6673 16.775 15.6407 16.775 15.3153 16.6484C14.9634 16.5078 14.6048 16.4797 14.3126 16.5711ZM15.1427 17.7383C15.4681 17.9492 15.8267 17.9633 16.0591 17.7734C16.6235 17.3023 17.3474 17.7945 17.1548 18.5187C17.0751 18.8351 16.3048 19.6789 15.8665 19.932L15.6009 20.0867L15.2356 19.8336C14.1997 19.1094 13.8079 18.3219 14.2263 17.8297C14.4853 17.5273 14.7708 17.4992 15.1427 17.7383Z" fill="#8CA8FF"/>
<path d="M35.0311 16.5711C34.2276 16.8453 33.683 17.7101 33.8026 18.5328C33.9022 19.2218 34.4135 19.9601 35.1971 20.5508C36.1002 21.2258 36.3858 21.282 36.9967 20.8953C38.2717 20.0797 38.8959 19.2289 38.9092 18.2656C38.9159 17.7242 38.7631 17.3656 38.3647 16.9859C37.86 16.5008 37.1163 16.3742 36.5651 16.6765C36.3725 16.782 36.3393 16.782 36.1467 16.6765C35.9077 16.5429 35.2768 16.4867 35.0311 16.5711ZM35.8612 17.7383C36.1998 17.9562 36.5452 17.9633 36.7975 17.7523C37.1959 17.4218 37.8135 17.6258 37.9198 18.125C38.0127 18.5609 37.508 19.2851 36.7377 19.8195L36.3526 20.0867L36.0073 19.8617C35.4827 19.5242 34.9248 18.9054 34.8252 18.5539C34.7455 18.2797 34.7522 18.2234 34.8717 17.9984C35.0975 17.5484 35.4362 17.457 35.8612 17.7383Z" fill="#8CA8FF"/>
<path d="M24.3066 10.6016C23.2839 10.7492 22.4406 11.7266 22.3609 12.8445C22.2679 14.2438 23.2773 15.643 25.2562 16.8313C25.9468 17.2531 26.1327 17.2461 26.8566 16.7891C28.198 15.9313 29.048 15.0313 29.5062 13.9906C29.7585 13.4141 29.7585 12.5633 29.5128 12.0078C28.9484 10.7352 27.5472 10.2219 26.3585 10.8547L26.0066 11.0445L25.7874 10.8969C25.3691 10.6297 24.8445 10.5242 24.3066 10.6016ZM25.4488 11.9305C25.9202 12.282 26.0597 12.282 26.5909 11.9375C27.3347 11.4664 27.8859 11.5297 28.4105 12.1414C29.1941 13.0625 28.4038 14.5391 26.4382 15.8258L26.0464 16.0789L25.7742 15.9313C24.9374 15.4813 23.8417 14.4547 23.5429 13.8289C23.2175 13.1609 23.3238 12.4438 23.8085 11.9797C24.0542 11.7477 24.1472 11.6984 24.5058 11.6352C24.7648 11.593 25.1566 11.7125 25.4488 11.9305Z" fill="#8CA8FF"/>
<path d="M23.2375 21.5703C22.8391 21.7039 22.3875 22.0836 22.1684 22.4773C21.9891 22.8008 21.9027 22.8781 21.584 23.0188C20.8535 23.3281 20.5016 23.6797 20.1695 24.4391C20.0168 24.7836 19.9902 24.9312 19.9902 25.4797C19.9902 26.0703 20.0102 26.1477 20.2426 26.6469C20.4418 27.0828 20.4883 27.2586 20.4883 27.6031C20.4883 28.6016 20.7672 29.3328 21.3582 29.8813C21.7102 30.2117 21.7367 30.2609 21.8098 30.6969C21.8562 30.957 21.9359 31.2383 21.9891 31.3297C22.2016 31.6742 22.673 31.6672 22.8258 31.3086C22.8855 31.175 22.8723 30.9781 22.7793 30.4297C22.6465 29.607 22.6465 29.607 23.2242 29.2977C23.4367 29.1852 23.7289 28.9813 23.8684 28.8477C24.0676 28.6578 24.1805 28.6016 24.3797 28.6016C25.0637 28.5945 25.8008 28.25 26.3586 27.6664L26.7504 27.2586L27.0824 27.4062C27.2617 27.4906 27.5738 27.575 27.7664 27.5961C28.0785 27.6313 28.1383 27.6664 28.2445 27.8633C28.3176 27.9828 28.5301 28.2219 28.7227 28.3977C29.4531 29.0375 29.4133 28.9602 29.3602 29.607C29.1809 32.0539 27.9258 34.0297 26.3785 34.2969C25.4422 34.4586 24.6652 34.0859 23.8219 33.0805C23.5496 32.75 23.3238 32.6867 23.0914 32.8695C22.9652 32.968 22.9055 33.0875 22.8922 33.2563C22.8723 33.4672 22.9254 33.5727 23.2109 33.9383C23.3902 34.1703 23.6027 34.3953 23.6758 34.4375C23.802 34.5078 23.8086 34.5852 23.8086 35.5203V36.5328L22.1684 37.25C20.2227 38.1008 20.0965 38.1641 19.7645 38.4805C19.625 38.6141 19.4789 38.7266 19.4457 38.7266C19.4125 38.7266 18.9676 38.5438 18.4562 38.3188L17.5332 37.9109L17.5133 37.1164L17.4934 36.3219L17.8387 35.907C18.3102 35.3234 18.702 34.6766 18.9211 34.1C19.0473 33.7695 19.1602 33.5867 19.2664 33.5375C19.4789 33.432 19.9172 32.4477 20.0898 31.6953C20.4219 30.2117 20.143 28.9883 19.2797 28.1445C18.8082 27.6805 18.2371 27.4625 17.5863 27.4836L17.168 27.4977L16.8957 27.1672C16.1187 26.2391 14.6645 26.1195 13.2434 26.8859C12.918 27.0547 12.8516 27.1531 12.8516 27.4766C12.8516 27.6664 13.1039 27.9688 13.2699 27.9688C13.3031 27.9688 13.5887 27.8633 13.9074 27.7297C14.6379 27.4203 15.1094 27.357 15.5875 27.5047C16.0988 27.6594 16.2715 27.8773 16.2715 28.3766C16.2715 28.6578 16.225 28.8828 16.1121 29.1219C15.9262 29.5156 15.3684 30.1344 15.0363 30.2961C14.9102 30.3594 14.4918 30.5773 14.1 30.7742C13.6484 30.9992 13.1902 31.3016 12.8582 31.5898C12.4664 31.9273 12.3203 32.0188 12.2937 31.9344C12.2738 31.8781 12.2273 31.5758 12.1875 31.2523C12.1277 30.7039 12.1477 30.2469 12.2937 29.4313C12.327 29.2133 12.307 29.15 12.1676 28.9953C11.8023 28.6086 11.3973 28.8617 11.2512 29.5578C11.125 30.1977 11.1516 31.3438 11.3176 32.082C11.4902 32.8414 11.7625 33.4602 11.975 33.5656C12.0746 33.6219 12.2074 33.8328 12.3469 34.1773C12.6125 34.8172 13.0773 35.5695 13.4426 35.9492L13.7148 36.2234V37.0742V37.918L12.3668 38.5016C10.959 39.1133 10.6402 39.3102 10.3215 39.7672C9.97617 40.2664 9.92969 40.5266 9.92969 41.8766C9.92969 43.0648 9.93633 43.1211 10.0957 43.4094C10.202 43.6063 10.3547 43.7539 10.5473 43.8523L10.8328 44H26H41.1672L41.4527 43.8523C41.6453 43.7539 41.798 43.6063 41.9109 43.4023C42.077 43.1 42.077 43.0789 42.057 41.7711C42.0437 40.6813 42.0172 40.407 41.9242 40.2102C41.8113 39.9922 41.8047 39.6406 41.8047 35.9211C41.8047 33.5094 41.7781 31.6953 41.7383 31.4281C41.373 29.0375 39.7262 27.1883 37.5148 26.6609C36.718 26.4781 35.443 26.5484 34.6859 26.8227C34.3672 26.9422 34.0285 27.0898 33.9355 27.1531C33.557 27.4203 33.5504 27.8914 33.9223 28.0813C34.1348 28.1867 34.1613 28.1867 34.6195 27.9828C35.2969 27.6734 35.7684 27.5961 36.6383 27.6313C37.827 27.6875 38.657 28.0813 39.527 29.0023C39.8988 29.3961 40.0715 29.6562 40.3105 30.1625C40.7953 31.2102 40.8152 31.3789 40.7953 35.4711L40.7754 38.9938L39.5336 38.4594L38.2852 37.918V37.3766C38.2852 36.8492 38.2918 36.8352 38.5707 36.4906C38.9359 36.0336 39.2348 35.4922 39.5137 34.8102C40.1047 33.3547 40.0781 31.7305 39.434 30.3734C38.9027 29.2414 37.6609 28.3414 37.2691 28.7984C37.2094 28.8688 37.1031 29.1008 37.0301 29.3117C36.6383 30.5211 35.9012 31.3648 34.8918 31.7727C34.7059 31.85 34.2145 31.9906 33.8094 32.082C32.9262 32.2859 32.8398 32.3633 32.8398 32.9539C32.8398 34.0578 33.4707 35.6398 34.3074 36.6523C34.4934 36.8773 34.5066 36.9195 34.4867 37.4047L34.4668 37.9109L33.5437 38.3188C33.0324 38.5438 32.5941 38.7266 32.5742 38.7266C32.5477 38.7266 32.4016 38.607 32.2488 38.4594L31.9766 38.1992V34.9227C31.9766 31.9133 31.9898 31.6039 32.1027 31.1188C32.2289 30.5914 32.4746 30.0078 32.7137 29.6422C32.8863 29.3891 32.873 29.1219 32.6738 28.918C32.5012 28.7281 32.3152 28.7 32.1094 28.8125C31.9633 28.8969 31.5516 29.607 31.3656 30.1063C31.027 31.0344 31.0203 31.0484 30.9871 34.4797L30.9473 37.7211L29.6191 37.1445L28.291 36.5609L28.2711 35.5625L28.2512 34.557L28.6098 34.1633C29.4797 33.193 30.0641 31.843 30.2832 30.3242C30.3629 29.7406 30.3961 29.6703 30.6352 29.3891C31.1797 28.7703 31.6445 27.568 31.6445 26.7945C31.6445 26.1266 31.359 25.5359 30.8809 25.2266C30.6816 25.093 30.6617 25.0578 30.6352 24.6078C30.5621 23.5531 29.8648 22.7938 28.8887 22.7164C28.6496 22.6953 28.384 22.7234 28.2246 22.7797L27.959 22.8711L27.7598 22.5898C27.2816 21.9289 26.5777 21.5914 25.8273 21.6617C25.6016 21.6828 25.3027 21.7531 25.1766 21.8094C24.9508 21.9078 24.9242 21.9008 24.632 21.732C24.2934 21.5281 23.6027 21.4508 23.2375 21.5703ZM24.0941 22.618C24.1871 22.6602 24.3531 22.7867 24.466 22.8992C24.6852 23.1242 25.077 23.2016 25.1766 23.0398C25.2496 22.9062 25.7543 22.6953 26 22.6953C26.2789 22.6953 26.7172 22.8992 26.8898 23.1031C26.9562 23.1875 27.0758 23.4547 27.1555 23.6938C27.3746 24.3617 27.6934 24.4602 28.1582 24.0031C28.5102 23.6586 29.0348 23.6797 29.3801 24.0594C29.6391 24.3477 29.7055 24.6852 29.566 25.107C29.4199 25.557 29.5395 25.8242 29.9312 25.9297C30.4094 26.0633 30.6484 26.3516 30.6484 26.8156C30.6484 27.1109 30.4824 27.7016 30.2832 28.1094L30.1703 28.3344L29.9645 28.1305C29.8449 28.018 29.6059 27.807 29.4332 27.6594C29.2207 27.4766 29.0613 27.2656 28.9617 27.0266C28.7492 26.5203 28.6695 26.4711 28.198 26.5273C27.7 26.5906 27.4211 26.4922 27.1223 26.1688C26.6641 25.6555 26.332 25.6977 26.0531 26.3023C25.8141 26.8156 25.6016 27.0617 25.1898 27.3008C24.8711 27.4906 24.7781 27.5117 24.207 27.5117C23.8617 27.5117 23.5363 27.5398 23.4832 27.575C23.4367 27.6102 23.357 27.7367 23.3039 27.8703C23.2309 28.0461 23.1047 28.1586 22.7395 28.3625C22.4805 28.5102 22.1816 28.7141 22.0754 28.8266L21.8895 29.0305L21.7832 28.8547C21.584 28.5383 21.4844 28.025 21.4844 27.3711C21.4844 26.7594 21.4711 26.7102 21.2852 26.457C20.827 25.8453 20.8469 25.0156 21.3316 24.4461C21.6238 24.1086 21.8363 23.982 22.2215 23.9188C22.6332 23.8555 22.7992 23.7219 22.8789 23.3844C22.9852 22.9906 23.1113 22.8008 23.3637 22.6672C23.6094 22.5406 23.8617 22.5266 24.0941 22.618ZM18.1176 28.6086C18.4496 28.707 18.7949 29.0375 19.0141 29.4734C19.1734 29.7969 19.1934 29.9023 19.1934 30.5703C19.1934 31.1117 19.1602 31.4141 19.0672 31.6953C19.0008 31.9062 18.9344 32.0961 18.9211 32.1102C18.9078 32.1242 18.7418 31.9906 18.5559 31.8078C18.3633 31.625 17.9781 31.3086 17.6926 31.0906C17.1945 30.718 16.7695 30.268 16.7695 30.1063C16.7695 30.0641 16.8559 29.8602 16.9621 29.6492C17.0684 29.4383 17.1746 29.157 17.2012 29.0234C17.2809 28.6086 17.3473 28.5312 17.6195 28.5312C17.7523 28.5312 17.9781 28.5664 18.1176 28.6086ZM38.1855 30.2961C38.8164 31.0414 39.102 32.4406 38.8496 33.5797C38.4645 35.3094 37.1164 36.9547 36.2199 36.793C35.6156 36.6875 34.7855 35.7734 34.2941 34.6836C34.0152 34.0648 33.7895 33.2563 33.8824 33.1719C33.909 33.1438 34.1281 33.0805 34.3672 33.0383C34.925 32.9258 35.5559 32.6586 36.0738 32.3141C36.6516 31.9273 37.3687 31.0977 37.6344 30.5C37.7539 30.2328 37.8734 30.0148 37.8934 30.0148C37.9199 30.0078 38.0527 30.1414 38.1855 30.2961ZM16.3113 31.2383C16.4641 31.4141 16.7828 31.7023 17.0285 31.8852C17.2676 32.068 17.6395 32.3703 17.852 32.5602C18.3102 32.975 18.3102 33.0031 17.8652 33.9875C17.3074 35.2109 16.1852 36.2164 15.5012 36.0969C15.0695 36.0266 14.7109 35.7875 14.1996 35.2461C13.8211 34.8313 13.6617 34.5922 13.3961 34.0086C12.9379 33.0031 12.9312 32.9609 13.2367 32.6445C13.6285 32.2297 14.2062 31.85 14.9102 31.5195C15.2687 31.3578 15.6473 31.1539 15.7535 31.0766C15.8531 30.9922 15.9594 30.9219 15.9859 30.9219C16.0125 30.9219 16.1586 31.0625 16.3113 31.2383ZM26.0332 35.3586C26.3652 35.3586 26.7703 35.3164 26.9496 35.2602L27.2617 35.1547V35.907C27.2617 36.7648 27.2551 36.7859 26.6973 37.0461C26.2457 37.257 25.5484 37.2148 25.1102 36.9406L24.8047 36.7508V35.9563V35.1547L25.1234 35.2602C25.3027 35.3164 25.6879 35.3656 26.0332 35.3586ZM15.9328 37.1305C16.1187 37.0883 16.3246 37.032 16.391 37.0039C16.4973 36.9547 16.5105 36.9969 16.4906 37.4961C16.4707 38.0023 16.4574 38.0586 16.2914 38.1852C16.0059 38.4102 15.4215 38.4242 15.043 38.2203L14.7441 38.0586L14.7242 37.6086C14.6977 36.9688 14.691 36.9688 15.1824 37.0953C15.5078 37.1797 15.6605 37.1867 15.9328 37.1305ZM24.3598 37.6719C25.223 38.3891 26.7039 38.4172 27.6004 37.7281L27.8793 37.5172L28.2977 37.707C28.5699 37.8266 28.7027 37.925 28.6762 37.9813C28.6496 38.0234 28.4969 38.2766 28.3375 38.5367C27.627 39.7109 27.1355 41.1242 26.8965 42.6781L26.8566 42.9453H26H25.1434L25.1035 42.6781C25.0105 42.0664 24.7781 41.0469 24.6254 40.5898C24.4129 39.9641 23.9414 38.9656 23.5762 38.368L23.2906 37.9039L23.7023 37.7211C24.2004 37.4961 24.1539 37.5031 24.3598 37.6719ZM36.0672 37.8266C36.3926 37.8969 36.6449 37.8688 37.1363 37.707L37.2824 37.6578L37.2492 38.7688C37.2094 40.1609 37.123 40.9062 36.9504 41.4828C36.7977 41.982 36.4324 42.6781 36.3461 42.6219C36.2398 42.5516 35.8348 41.6234 35.7352 41.2156C35.6023 40.6672 35.4961 39.4508 35.4961 38.4523C35.4961 37.7211 35.5027 37.6578 35.6156 37.707C35.6754 37.7281 35.8812 37.7844 36.0672 37.8266ZM22.5934 38.7055C22.9918 39.3102 23.4434 40.2313 23.6625 40.9062C23.8285 41.4195 23.9148 41.7641 24.1141 42.7836L24.1406 42.9453H22.0488H19.957V41.5672C19.957 40.6742 19.9836 40.0836 20.0367 39.8938C20.1762 39.4016 20.548 39.0922 21.4844 38.6773C21.9426 38.4805 22.3145 38.3117 22.3211 38.3117C22.3277 38.3047 22.4473 38.4875 22.5934 38.7055ZM30.9008 38.8461C31.5781 39.1555 31.9301 39.5352 32.0363 40.0695C32.0762 40.2664 32.1094 40.9906 32.1094 41.6797V42.9453H29.991H27.866L27.9059 42.6852C27.9855 42.1508 28.2512 41.1242 28.457 40.5828C28.6961 39.943 28.8687 39.6055 29.3402 38.8531L29.6789 38.3188L30.0109 38.4594C30.1969 38.5367 30.5953 38.7125 30.9008 38.8461ZM14.3723 39.05C15.0895 39.5492 16.1586 39.5492 16.8625 39.043L17.1082 38.8672L18.018 39.268C18.516 39.4789 18.9477 39.6828 18.9742 39.7039C19.0008 39.732 19.0074 39.8656 18.9875 40.0063C18.9543 40.2031 18.7152 40.5477 17.852 41.6023L16.7629 42.9453H15.6207L14.4785 42.9383L13.4027 41.4055C12.8117 40.5688 12.3203 39.8375 12.307 39.7812C12.2937 39.718 12.5926 39.5492 13.1836 39.282C13.675 39.057 14.0867 38.8742 14.1 38.8742C14.1066 38.8672 14.2328 38.9516 14.3723 39.05ZM34.5266 39.6547C34.6328 40.9977 34.8121 41.8484 35.1375 42.5375C35.2238 42.7203 35.2969 42.8891 35.2969 42.9102C35.2969 42.9312 34.8055 42.9453 34.2078 42.9453H33.1187L33.0922 41.4195C33.0789 40.5758 33.0523 39.8445 33.0324 39.7953C33.0125 39.732 33.2316 39.5984 33.7031 39.3945C34.0883 39.2188 34.4203 39.0852 34.4402 39.0781C34.4668 39.0781 34.5066 39.3383 34.5266 39.6547ZM39.4473 39.5633C40.5629 40.0555 40.8617 40.2594 41.0078 40.618C41.0477 40.7305 41.0742 41.2086 41.0609 41.8555L41.041 42.9102L39.2348 42.9312L37.4285 42.9453L37.6543 42.4391C38.0129 41.6375 38.2121 40.6109 38.2187 39.5844C38.2187 39.3102 38.2453 39.0781 38.2785 39.0781C38.3117 39.0781 38.8363 39.2961 39.4473 39.5633ZM12.3469 41.6656L13.25 42.9453L12.1012 42.9312L10.959 42.9102L10.9391 41.8906C10.9191 40.7516 10.9324 40.6602 11.1316 40.3859C11.2512 40.2242 11.291 40.2102 11.3641 40.2875C11.4105 40.3367 11.8555 40.9555 12.3469 41.6656ZM18.941 42.9242C18.9211 42.9383 18.7285 42.9453 18.5094 42.9312L18.1109 42.9102L18.5227 42.3969L18.9277 41.8836L18.9477 42.3898C18.9609 42.6641 18.9543 42.9031 18.941 42.9242Z" fill="#8CA8FF"/>
</g>
<defs>
<clipPath id="clip0_3735_4478">
<rect width="34" height="36" fill="white" transform="translate(9 8)"/>
</clipPath>
</defs>
</svg>
