<svg width="20" height="20" viewBox="0 0 20 20" fill="none" xmlns="http://www.w3.org/2000/svg">
<path d="M2.66667 6.66732C4.13943 6.66732 5.33333 5.47341 5.33333 4.00065C5.33333 2.52789 4.13943 1.33398 2.66667 1.33398C1.19391 1.33398 0 2.52789 0 4.00065C0 5.47341 1.19391 6.66732 2.66667 6.66732Z" fill="black"/>
<path d="M9.33333 6.66732C10.8061 6.66732 12 5.47341 12 4.00065C12 2.52789 10.8061 1.33398 9.33333 1.33398C7.86057 1.33398 6.66667 2.52789 6.66667 4.00065C6.66667 5.47341 7.86057 6.66732 9.33333 6.66732Z" fill="black"/>
<path d="M17.3333 5.33333C18.8061 5.33333 20 4.13943 20 2.66667C20 1.19391 18.8061 0 17.3333 0C15.8606 0 14.6667 1.19391 14.6667 2.66667C14.6667 4.13943 15.8606 5.33333 17.3333 5.33333Z" fill="black"/>
<path d="M2.66667 13.3333C4.13943 13.3333 5.33333 12.1394 5.33333 10.6667C5.33333 9.19391 4.13943 8 2.66667 8C1.19391 8 0 9.19391 0 10.6667C0 12.1394 1.19391 13.3333 2.66667 13.3333Z" fill="black"/>
<path d="M9.33333 13.3333C10.8061 13.3333 12 12.1394 12 10.6667C12 9.19391 10.8061 8 9.33333 8C7.86057 8 6.66667 9.19391 6.66667 10.6667C6.66667 12.1394 7.86057 13.3333 9.33333 13.3333Z" fill="black"/>
<path d="M16 13.3333C17.4728 13.3333 18.6667 12.1394 18.6667 10.6667C18.6667 9.19391 17.4728 8 16 8C14.5272 8 13.3333 9.19391 13.3333 10.6667C13.3333 12.1394 14.5272 13.3333 16 13.3333Z" fill="black"/>
<path d="M2.66667 19.9993C4.13943 19.9993 5.33333 18.8054 5.33333 17.3327C5.33333 15.8599 4.13943 14.666 2.66667 14.666C1.19391 14.666 0 15.8599 0 17.3327C0 18.8054 1.19391 19.9993 2.66667 19.9993Z" fill="black"/>
<path d="M9.33333 19.9993C10.8061 19.9993 12 18.8054 12 17.3327C12 15.8599 10.8061 14.666 9.33333 14.666C7.86057 14.666 6.66667 15.8599 6.66667 17.3327C6.66667 18.8054 7.86057 19.9993 9.33333 19.9993Z" fill="black"/>
<path d="M16 19.9993C17.4728 19.9993 18.6667 18.8054 18.6667 17.3327C18.6667 15.8599 17.4728 14.666 16 14.666C14.5272 14.666 13.3333 15.8599 13.3333 17.3327C13.3333 18.8054 14.5272 19.9993 16 19.9993Z" fill="black"/>
</svg>
