<svg width="25" height="21" viewBox="0 0 25 21" fill="none" xmlns="http://www.w3.org/2000/svg">
<path d="M21.8691 1.41311e-06C21.4568 -0.000154122 21.0487 0.0875594 20.6685 0.258014C20.2883 0.428468 19.9437 0.678243 19.6548 0.992736L19.1986 1.49101L18.7379 0.991782C18.4488 0.677773 18.1041 0.428398 17.724 0.258179C17.3438 0.0879603 16.9358 0.000298409 16.5237 0.000298409C16.1115 0.000298409 15.7035 0.0879603 15.3234 0.258179C14.9432 0.428398 14.5986 0.677773 14.3095 0.991782C13.7224 1.63232 13.3936 2.49334 13.3936 3.3901C13.3936 4.28685 13.7224 5.14788 14.3095 5.78841L19.1986 11.0795L24.0842 5.78841C24.6712 5.14788 25 4.28685 25 3.3901C25 2.49334 24.6712 1.63232 24.0842 0.991782C23.7952 0.677347 23.4504 0.427682 23.0701 0.257389C22.6897 0.0870962 22.2814 -0.000405558 21.8691 1.41311e-06V1.41311e-06Z" fill="black"/>
<path d="M12.4997 21.0006H10.714V16.2278C10.7133 15.4686 10.4309 14.7406 9.9287 14.2038C9.42654 13.6669 8.74566 13.3649 8.0355 13.3642H4.46417C3.754 13.3649 3.07313 13.6669 2.57096 14.2038C2.0688 14.7406 1.78638 15.4686 1.78567 16.2278V21.0006H0V16.2278C0.00141769 14.9625 0.472203 13.7494 1.30909 12.8547C2.14598 11.9599 3.28063 11.4566 4.46417 11.4551H8.0355C9.21903 11.4566 10.3537 11.9599 11.1906 12.8547C12.0275 13.7494 12.4982 14.9625 12.4997 16.2278V21.0006Z" fill="black"/>
<path d="M6.24984 1.90911C6.7796 1.90911 7.29746 2.07706 7.73794 2.39172C8.17841 2.70638 8.52172 3.15363 8.72445 3.67689C8.92718 4.20016 8.98023 4.77594 8.87688 5.33144C8.77352 5.88693 8.51842 6.39719 8.14383 6.79768C7.76923 7.19817 7.29197 7.47091 6.77239 7.5814C6.25281 7.6919 5.71426 7.63519 5.22482 7.41844C4.73539 7.2017 4.31707 6.83466 4.02275 6.36373C3.72843 5.8928 3.57134 5.33914 3.57134 4.77277C3.57134 4.01328 3.85354 3.28489 4.35586 2.74785C4.85817 2.21081 5.53946 1.90911 6.24984 1.90911V1.90911ZM6.24984 0C5.36691 0 4.50381 0.279918 3.76968 0.804356C3.03556 1.32879 2.46337 2.0742 2.12549 2.94631C1.78761 3.81842 1.6992 4.77806 1.87145 5.70389C2.04371 6.62971 2.46888 7.48014 3.0932 8.14762C3.71753 8.8151 4.51296 9.26967 5.37893 9.45382C6.24489 9.63798 7.14248 9.54347 7.9582 9.18223C8.77392 8.82099 9.47113 8.20925 9.96166 7.42437C10.4522 6.63949 10.714 5.71673 10.714 4.77277C10.714 4.146 10.5985 3.52537 10.3742 2.94631C10.1498 2.36725 9.82102 1.8411 9.40648 1.39791C8.99195 0.954718 8.49982 0.603159 7.9582 0.363305C7.41659 0.123451 6.83608 0 6.24984 0V0Z" fill="black"/>
</svg>
