<svg width="20" height="16" viewBox="0 0 20 16" fill="none" xmlns="http://www.w3.org/2000/svg">
<path d="M17.4778 1.05634e-06C17.1483 -0.00011521 16.8221 0.0654528 16.5182 0.192872C16.2144 0.320291 15.939 0.507004 15.7081 0.742095L15.3435 1.11457L14.9753 0.741382C14.7443 0.506652 14.4688 0.320238 14.165 0.192995C13.8612 0.0657525 13.5351 0.000223068 13.2057 0.000223068C12.8763 0.000223068 12.5503 0.0657525 12.2464 0.192995C11.9426 0.320238 11.6672 0.506652 11.4361 0.741382C10.967 1.2202 10.7042 1.86383 10.7042 2.53418C10.7042 3.20453 10.967 3.84817 11.4361 4.32698L15.3435 8.2822L19.2481 4.32698C19.7172 3.84817 19.98 3.20453 19.98 2.53418C19.98 1.86383 19.7172 1.2202 19.2481 0.741382C19.0171 0.506333 18.7416 0.319703 18.4376 0.192405C18.1336 0.0651066 17.8073 -0.000303165 17.4778 1.05634e-06V1.05634e-06Z" fill="black"/>
<path d="M9.98973 15.698H8.56263V12.1303C8.56206 11.5627 8.33634 11.0185 7.93502 10.6172C7.53369 10.2159 6.98953 9.99017 6.42197 9.9896H3.56776C3.0002 9.99017 2.45604 10.2159 2.05471 10.6172C1.65339 11.0185 1.42767 11.5627 1.4271 12.1303V15.698H0V12.1303C0.00113302 11.1844 0.377385 10.2776 1.04622 9.60872C1.71506 8.93988 2.62188 8.56363 3.56776 8.5625H6.42197C7.36785 8.56363 8.27467 8.93988 8.94351 9.60872C9.61234 10.2776 9.9886 11.1844 9.98973 12.1303V15.698Z" fill="black"/>
<path d="M4.99487 1.4271C5.41825 1.4271 5.83213 1.55265 6.18416 1.78787C6.53619 2.02309 6.81056 2.35741 6.97258 2.74857C7.1346 3.13972 7.17699 3.57014 7.0944 3.98538C7.0118 4.40063 6.80792 4.78206 6.50854 5.08143C6.20917 5.38081 5.82774 5.58469 5.41249 5.66729C4.99725 5.74988 4.56683 5.70749 4.17568 5.54547C3.78452 5.38345 3.4502 5.10907 3.21498 4.75705C2.97976 4.40502 2.85421 3.99114 2.85421 3.56776C2.85421 3.00002 3.07975 2.45554 3.4812 2.05409C3.88265 1.65264 4.42713 1.4271 4.99487 1.4271V1.4271ZM4.99487 0C4.28923 0 3.59944 0.209246 3.01273 0.601276C2.42601 0.993307 1.96873 1.55051 1.69869 2.20244C1.42865 2.85436 1.358 3.57172 1.49566 4.2638C1.63333 4.95587 1.97312 5.59159 2.47208 6.09055C2.97104 6.58951 3.60676 6.92931 4.29884 7.06697C4.99091 7.20463 5.70827 7.13398 6.36019 6.86394C7.01212 6.59391 7.56932 6.13662 7.96136 5.5499C8.35339 4.96319 8.56263 4.2734 8.56263 3.56776C8.56263 3.09924 8.47035 2.6353 8.29105 2.20244C8.11176 1.76958 7.84896 1.37627 7.51766 1.04497C7.18636 0.713676 6.79305 0.450876 6.36019 0.271579C5.92733 0.0922825 5.4634 0 4.99487 0V0Z" fill="black"/>
</svg>
