<svg width="20" height="22" viewBox="0 0 20 22" fill="none" xmlns="http://www.w3.org/2000/svg">
<path d="M19.1961 17.2592C18.695 16.072 17.9676 14.9937 17.0547 14.0842C16.1445 13.1721 15.0663 12.4449 13.8797 11.9428C13.8691 11.9374 13.8584 11.9348 13.8478 11.9295C15.5031 10.7339 16.5791 8.78636 16.5791 6.58911C16.5791 2.94916 13.6299 0 9.99 0C6.35005 0 3.40089 2.94916 3.40089 6.58911C3.40089 8.78636 4.47694 10.7339 6.13218 11.9321C6.12156 11.9374 6.11093 11.9401 6.1003 11.9454C4.91001 12.4476 3.84194 13.1676 2.92531 14.0869C2.01322 14.997 1.28602 16.0752 0.783851 17.2619C0.290524 18.4236 0.0244619 19.6691 6.64384e-05 20.931C-0.000642701 20.9594 0.00433108 20.9876 0.0146949 21.014C0.0250586 21.0404 0.0406026 21.0645 0.060411 21.0848C0.0802193 21.1051 0.103891 21.1212 0.130032 21.1322C0.156172 21.1432 0.184253 21.1489 0.212618 21.1489H1.80676C1.92366 21.1489 2.01665 21.0559 2.01931 20.9417C2.07245 18.8905 2.89608 16.9696 4.35206 15.5136C5.85852 14.0072 7.85917 13.1782 9.99 13.1782C12.1208 13.1782 14.1215 14.0072 15.6279 15.5136C17.0839 16.9696 17.9076 18.8905 17.9607 20.9417C17.9633 21.0586 18.0563 21.1489 18.1732 21.1489H19.7674C19.7957 21.1489 19.8238 21.1432 19.85 21.1322C19.8761 21.1212 19.8998 21.1051 19.9196 21.0848C19.9394 21.0645 19.9549 21.0404 19.9653 21.014C19.9757 20.9876 19.9806 20.9594 19.9799 20.931C19.9534 19.661 19.6903 18.4256 19.1961 17.2592ZM9.99 11.159C8.77048 11.159 7.6227 10.6834 6.75921 9.81989C5.89572 8.9564 5.42014 7.80862 5.42014 6.58911C5.42014 5.36959 5.89572 4.22181 6.75921 3.35832C7.6227 2.49483 8.77048 2.01924 9.99 2.01924C11.2095 2.01924 12.3573 2.49483 13.2208 3.35832C14.0843 4.22181 14.5599 5.36959 14.5599 6.58911C14.5599 7.80862 14.0843 8.9564 13.2208 9.81989C12.3573 10.6834 11.2095 11.159 9.99 11.159Z" fill="black"/>
</svg>
