<svg width="24" height="32" viewBox="0 0 24 32" fill="none" xmlns="http://www.w3.org/2000/svg">
<path d="M9.04699 0.428467C8.42984 0.428146 7.82778 0.617582 7.32378 0.970665C6.81979 1.32375 6.43867 1.8231 6.23295 2.3999H3.08083C2.28967 2.3999 1.53091 2.71145 0.971472 3.26602C0.412035 3.82059 0.0977478 4.57276 0.0977478 5.35704V29.0142C0.0977478 29.7985 0.412035 30.5506 0.971472 31.1052C1.53091 31.6598 2.28967 31.9713 3.08083 31.9713H20.9793C21.7705 31.9713 22.5292 31.6598 23.0887 31.1052C23.6481 30.5506 23.9624 29.7985 23.9624 29.0142V5.35704C23.9624 4.57276 23.6481 3.82059 23.0887 3.26602C22.5292 2.71145 21.7705 2.3999 20.9793 2.3999H17.8272C17.6215 1.8231 17.2404 1.32375 16.7364 0.970665C16.2324 0.617582 15.6303 0.428146 15.0132 0.428467H9.04699ZM8.05263 3.38561C8.05263 3.12418 8.15739 2.87346 8.34387 2.68861C8.53035 2.50375 8.78327 2.3999 9.04699 2.3999H15.0132C15.2769 2.3999 15.5298 2.50375 15.7163 2.68861C15.9028 2.87346 16.0075 3.12418 16.0075 3.38561C16.0075 3.64704 15.9028 3.89776 15.7163 4.08262C15.5298 4.26747 15.2769 4.37132 15.0132 4.37132H9.04699C8.78327 4.37132 8.53035 4.26747 8.34387 4.08262C8.15739 3.89776 8.05263 3.64704 8.05263 3.38561ZM10.7454 11.9692L7.2651 15.4192C7.08394 15.5986 6.83996 15.7018 6.58398 15.7073C6.328 15.7128 6.07973 15.6202 5.89089 15.4488L4.39935 14.0984C4.298 14.0125 4.2151 13.9073 4.15559 13.789C4.09609 13.6707 4.06118 13.5418 4.05295 13.4099C4.04473 13.2779 4.06335 13.1457 4.10771 13.0211C4.15208 12.8964 4.22127 12.7819 4.31119 12.6843C4.4011 12.5867 4.5099 12.508 4.6311 12.453C4.75231 12.3979 4.88345 12.3676 5.01673 12.3637C5.15 12.3599 5.28269 12.3827 5.4069 12.4308C5.53111 12.4788 5.64431 12.5511 5.73975 12.6434L6.52927 13.3571L9.33735 10.5734C9.4298 10.4818 9.53955 10.4091 9.66035 10.3595C9.78114 10.3099 9.91061 10.2844 10.0414 10.2844C10.1721 10.2844 10.3016 10.3099 10.4224 10.3595C10.5432 10.4091 10.6529 10.4818 10.7454 10.5734C10.8378 10.6651 10.9111 10.7739 10.9612 10.8936C11.0112 11.0134 11.037 11.1417 11.037 11.2713C11.037 11.4009 11.0112 11.5293 10.9612 11.649C10.9111 11.7688 10.8378 11.8776 10.7454 11.9692ZM10.7454 20.4306C10.838 20.5221 10.9114 20.6309 10.9616 20.7507C11.0117 20.8704 11.0375 20.9988 11.0375 21.1285C11.0375 21.2581 11.0117 21.3865 10.9616 21.5063C10.9114 21.626 10.838 21.7348 10.7454 21.8264L7.2651 25.2764C7.08394 25.4557 6.83996 25.5589 6.58398 25.5644C6.328 25.5699 6.07973 25.4773 5.89089 25.3059L4.39935 23.9555C4.21462 23.7769 4.10718 23.534 4.09973 23.2783C4.09229 23.0226 4.18542 22.774 4.35945 22.5852C4.53347 22.3963 4.77477 22.2818 5.03234 22.266C5.28991 22.2503 5.54358 22.3344 5.73975 22.5006L6.52927 23.2162L9.33735 20.4306C9.42971 20.3388 9.53944 20.266 9.66025 20.2163C9.78105 20.1666 9.91056 20.141 10.0414 20.141C10.1721 20.141 10.3017 20.1666 10.4225 20.2163C10.5433 20.266 10.653 20.3388 10.7454 20.4306ZM14.0188 22.1142H18.9906C19.2543 22.1142 19.5072 22.218 19.6937 22.4029C19.8802 22.5877 19.985 22.8385 19.985 23.0999C19.985 23.3613 19.8802 23.612 19.6937 23.7969C19.5072 23.9818 19.2543 24.0856 18.9906 24.0856H14.0188C13.7551 24.0856 13.5022 23.9818 13.3157 23.7969C13.1292 23.612 13.0244 23.3613 13.0244 23.0999C13.0244 22.8385 13.1292 22.5877 13.3157 22.4029C13.5022 22.218 13.7551 22.1142 14.0188 22.1142ZM13.0244 13.2428C13.0244 12.9813 13.1292 12.7306 13.3157 12.5457C13.5022 12.3609 13.7551 12.257 14.0188 12.257H18.9906C19.2543 12.257 19.5072 12.3609 19.6937 12.5457C19.8802 12.7306 19.985 12.9813 19.985 13.2428C19.985 13.5042 19.8802 13.7549 19.6937 13.9398C19.5072 14.1246 19.2543 14.2285 18.9906 14.2285H14.0188C13.7551 14.2285 13.5022 14.1246 13.3157 13.9398C13.1292 13.7549 13.0244 13.5042 13.0244 13.2428Z" fill="#49C2C0"/>
</svg>
