<svg width="25" height="30" viewBox="0 0 25 30" fill="none" xmlns="http://www.w3.org/2000/svg">
<path d="M8.01006 24.19L8.00973 24.1903C7.67876 24.4878 7.24766 24.6478 6.80946 24.6563C6.37159 24.6649 5.93522 24.5221 5.5925 24.24L8.01006 24.19ZM8.01006 24.19L11.6552 20.9093L8.01006 24.19ZM11.3807 19.3282L12.0617 19.0142C12.1589 19.2248 12.2102 19.4539 12.2102 19.6875C12.2102 19.9211 12.1589 20.1502 12.0617 20.3608L11.3807 20.0468L12.0617 20.3608C11.9649 20.5709 11.8255 20.7563 11.6559 20.9087L11.3807 19.3282ZM11.3807 19.3282L12.0617 19.0142C11.965 18.8044 11.8259 18.6193 11.6566 18.4669M11.3807 19.3282L11.6566 18.4669M11.6566 18.4669C11.4871 18.314 11.29 18.1964 11.0783 18.1173C10.8666 18.0382 10.642 17.9983 10.4167 17.9983C10.1914 17.9983 9.96674 18.0382 9.75504 18.1173C9.54352 18.1963 9.34658 18.3138 9.17725 18.4665L11.6566 18.4669ZM9.37465 0.75H9.375L15.625 0.75L15.6254 0.75C16.1342 0.74976 16.6243 0.891927 17.0277 1.14852C17.4304 1.40468 17.7211 1.75785 17.8748 2.14923L18.0617 2.625H18.5729H21.875C22.5289 2.625 23.1422 2.85951 23.583 3.25623L24.0847 2.69876L23.583 3.25623C24.0212 3.65061 24.25 4.16752 24.25 4.6875V27.1875C24.25 27.7075 24.0212 28.2244 23.583 28.6188C23.1422 29.0155 22.5289 29.25 21.875 29.25H3.125C2.4711 29.25 1.85782 29.0155 1.41701 28.6188C0.978815 28.2244 0.75 27.7075 0.75 27.1875V4.6875C0.75 4.16752 0.978816 3.65061 1.41701 3.25623C1.85782 2.85951 2.4711 2.625 3.125 2.625H6.42708H6.93825L7.12515 2.14923C7.2789 1.75785 7.56958 1.40468 7.97232 1.14852C8.37574 0.891927 8.86583 0.74976 9.37465 0.75ZM8.00973 14.8153L8.01006 14.815L11.6559 11.5337C11.8255 11.3811 11.9648 11.1955 12.0616 10.9853L11.3803 10.6717L12.0616 10.9853C12.1584 10.7748 12.2096 10.5459 12.2096 10.3125C12.2096 10.0791 12.1584 9.85022 12.0616 9.63972L11.3803 9.95328C11.3278 9.83939 11.251 9.73592 11.1542 9.64875L11.6559 9.09128C11.6559 9.09128 11.6559 9.09128 11.6559 9.09128C11.4864 8.93875 11.2894 8.82139 11.0778 8.74251C10.8662 8.66364 10.6418 8.62382 10.4167 8.62382C10.1916 8.62382 9.96711 8.66364 9.75555 8.74251C9.54395 8.8214 9.34692 8.93875 9.17744 9.09128L6.71495 11.3075L6.39449 11.0445C6.22219 10.8957 6.02313 10.7824 5.81026 10.7076C5.59299 10.6313 5.3631 10.5958 5.13352 10.6017C4.90393 10.6077 4.67609 10.6551 4.46302 10.743C4.2499 10.8309 4.05341 10.9586 3.88746 11.1222C3.72132 11.2859 3.58882 11.4827 3.50248 11.7029L4.20074 11.9767L3.50248 11.7029C3.41601 11.9235 3.37882 12.1602 3.39514 12.3978C3.41145 12.6354 3.48057 12.8643 3.59489 13.0706C3.70678 13.2725 3.85875 13.4471 4.03808 13.5873L5.59178 14.8644C5.59192 14.8645 5.59206 14.8646 5.5922 14.8648C5.93497 15.1471 6.37146 15.2899 6.80946 15.2813C7.24766 15.2728 7.67876 15.1128 8.00973 14.8153ZM4.03 22.9556L5.59178 24.2394L9.17674 18.4669L6.71543 20.6837L6.38699 20.4134L6.37747 20.4056L6.36771 20.398C6.01332 20.1254 5.56868 19.9961 5.1277 20.0206C4.68663 20.0451 4.25809 20.2233 3.93801 20.5387C3.61543 20.8566 3.42787 21.2921 3.44276 21.7562C3.45764 22.22 3.67222 22.6421 4.01145 22.9399L4.02059 22.9479L4.03 22.9556ZM13.345 22.7829L13.8468 22.2254L13.345 22.7829C13.6856 23.0894 14.1322 23.25 14.5833 23.25H19.7917C20.2428 23.25 20.6894 23.0894 21.03 22.7829L20.5282 22.2254L21.03 22.7829C21.3732 22.474 21.5833 22.0371 21.5833 21.5625C21.5833 21.0879 21.3732 20.651 21.03 20.3421L20.5282 20.8996L21.03 20.3421C20.6894 20.0356 20.2428 19.875 19.7917 19.875H14.5833C14.1322 19.875 13.6856 20.0356 13.345 20.3421L13.8468 20.8996L13.345 20.3421C13.0018 20.651 12.7917 21.0879 12.7917 21.5625C12.7917 22.0371 13.0018 22.474 13.345 22.7829ZM8.13671 1.59212C7.7935 1.901 7.58333 2.33792 7.58333 2.8125C7.58333 3.28708 7.7935 3.724 8.13671 4.03288C8.4773 4.33942 8.92383 4.5 9.375 4.5H15.625C16.0762 4.5 16.5227 4.33942 16.8633 4.03288C17.2065 3.724 17.4167 3.28708 17.4167 2.8125C17.4167 2.33792 17.2065 1.901 16.8633 1.59212C16.5227 1.28558 16.0762 1.125 15.625 1.125H9.375C8.92383 1.125 8.4773 1.28558 8.13671 1.59212ZM13.345 10.9671C13.0018 11.276 12.7917 11.7129 12.7917 12.1875C12.7917 12.6621 13.0018 13.099 13.345 13.4079C13.6856 13.7144 14.1322 13.875 14.5833 13.875H19.7917C20.2428 13.875 20.6894 13.7144 21.03 13.4079C21.3732 13.099 21.5833 12.6621 21.5833 12.1875C21.5833 11.7129 21.3732 11.276 21.03 10.9671C20.6894 10.6606 20.2428 10.5 19.7917 10.5H14.5833C14.1322 10.5 13.6856 10.6606 13.345 10.9671Z" stroke="#49C2C0" stroke-width="1.5"/>
</svg>
