<svg width="120" height="43" viewBox="0 0 120 43" fill="none" xmlns="http://www.w3.org/2000/svg">
<g filter="url(#filter0_d_2551_2639)">
<path d="M7.49474 32.5616V4.34488H112.716L98.5684 18.8941L112.716 32.5616H7.49474Z" fill="url(#paint0_linear_2551_2639)"/>
</g>
<path d="M24.7917 19.4642H21.6789V17.6712H24.7917C25.3008 17.6712 25.7131 17.5882 26.0285 17.4222C26.3495 17.2507 26.5847 17.0182 26.7341 16.7249C26.8835 16.4261 26.9582 16.0858 26.9582 15.7039C26.9582 15.3332 26.8835 14.9873 26.7341 14.6664C26.5847 14.3454 26.3495 14.0853 26.0285 13.8861C25.7131 13.6869 25.3008 13.5872 24.7917 13.5872H22.426V23.8719H20.1433V11.786H24.7917C25.7325 11.786 26.5349 11.9548 27.1989 12.2923C27.8685 12.6244 28.3777 13.0864 28.7263 13.6786C29.0805 14.2651 29.2575 14.9347 29.2575 15.6873C29.2575 16.4676 29.0805 17.14 28.7263 17.7044C28.3777 18.2689 27.8685 18.7033 27.1989 19.0077C26.5349 19.312 25.7325 19.4642 24.7917 19.4642ZM35.7321 21.9627V17.8206C35.7321 17.5163 35.6796 17.2534 35.5744 17.0321C35.4693 16.8107 35.3088 16.6392 35.093 16.5174C34.8772 16.3957 34.6032 16.3348 34.2712 16.3348C33.9779 16.3348 33.7206 16.3846 33.4992 16.4842C33.2834 16.5838 33.1174 16.7249 33.0012 16.9076C32.885 17.0846 32.8269 17.2894 32.8269 17.5218H30.6272C30.6272 17.1511 30.7157 16.7997 30.8928 16.4676C31.0699 16.1301 31.3217 15.8312 31.6482 15.5711C31.9802 15.3055 32.3759 15.098 32.8352 14.9486C33.3 14.7992 33.8202 14.7245 34.3957 14.7245C35.0764 14.7245 35.6823 14.8407 36.2136 15.0731C36.7504 15.3 37.1709 15.6431 37.4753 16.1024C37.7852 16.5617 37.9402 17.14 37.9402 17.8372V21.7552C37.9402 22.2035 37.9678 22.5881 38.0232 22.909C38.084 23.2245 38.1726 23.4984 38.2888 23.7308V23.8719H36.0559C35.9507 23.645 35.8705 23.3573 35.8152 23.0086C35.7598 22.6545 35.7321 22.3058 35.7321 21.9627ZM36.0393 18.4017L36.0559 19.7049H34.6696C34.3265 19.7049 34.025 19.7409 33.7649 19.8128C33.5048 19.8792 33.2917 19.9789 33.1257 20.1117C32.9597 20.2389 32.8352 20.3939 32.7522 20.5765C32.6692 20.7536 32.6277 20.9556 32.6277 21.1825C32.6277 21.4038 32.6775 21.603 32.7771 21.7801C32.8822 21.9572 33.0316 22.0983 33.2253 22.2035C33.4245 22.3031 33.657 22.3529 33.9226 22.3529C34.3099 22.3529 34.6475 22.2754 34.9353 22.1205C35.223 21.96 35.4472 21.7663 35.6076 21.5394C35.7681 21.3125 35.8539 21.0967 35.865 20.8919L36.4958 21.8382C36.4183 22.0651 36.3021 22.3058 36.1472 22.5604C35.9922 22.815 35.793 23.0529 35.5495 23.2743C35.306 23.4956 35.0127 23.6782 34.6696 23.8221C34.3265 23.966 33.9281 24.0379 33.4743 24.0379C32.8933 24.0379 32.3731 23.9217 31.9138 23.6893C31.4545 23.4569 31.092 23.1387 30.8264 22.7347C30.5608 22.3307 30.4279 21.8714 30.4279 21.3568C30.4279 20.8809 30.5165 20.4603 30.6936 20.0951C30.8707 19.7298 31.1335 19.4227 31.4821 19.1737C31.8308 18.9191 32.2624 18.7282 32.7771 18.6009C33.2973 18.4681 33.8921 18.4017 34.5617 18.4017H36.0393ZM42.1071 11.1136V23.8719H39.9157V11.1136H42.1071ZM47.7351 14.8905L43.8254 19.2816L41.7087 21.4315L41.0114 19.7298L42.6467 17.6712L45.0871 14.8905H47.7351ZM45.4939 23.8719L42.7131 19.6883L44.174 18.2689L48.0339 23.8719H45.4939ZM52.7654 24.0379C52.0847 24.0379 51.4732 23.9273 50.9309 23.7059C50.3886 23.4845 49.9265 23.1774 49.5446 22.7845C49.1683 22.3861 48.8778 21.924 48.6731 21.3983C48.4738 20.867 48.3742 20.297 48.3742 19.6883V19.3563C48.3742 18.6646 48.4738 18.0365 48.6731 17.472C48.8723 16.902 49.1545 16.4123 49.5197 16.0028C49.885 15.5933 50.3222 15.2778 50.8313 15.0565C51.3404 14.8351 51.9021 14.7245 52.5163 14.7245C53.1527 14.7245 53.7144 14.8324 54.2014 15.0482C54.6884 15.2585 55.0951 15.5573 55.4216 15.9447C55.7481 16.332 55.9944 16.7969 56.1604 17.3392C56.3264 17.876 56.4094 18.4709 56.4094 19.1239V20.0453H49.3703V18.5345H54.2512V18.3685C54.2401 18.0199 54.1737 17.7017 54.052 17.4139C53.9302 17.1206 53.7421 16.8882 53.4875 16.7166C53.233 16.5396 52.9037 16.451 52.4997 16.451C52.1732 16.451 51.8882 16.523 51.6447 16.6668C51.4068 16.8052 51.2076 17.0044 51.0471 17.2645C50.8921 17.5191 50.7759 17.8234 50.6985 18.1776C50.621 18.5317 50.5822 18.9247 50.5822 19.3563V19.6883C50.5822 20.0646 50.632 20.4133 50.7317 20.7342C50.8368 21.0552 50.989 21.3346 51.1882 21.5726C51.393 21.805 51.6364 21.9876 51.9187 22.1205C52.2064 22.2477 52.5329 22.3114 52.8982 22.3114C53.3575 22.3114 53.7725 22.2228 54.1433 22.0457C54.5196 21.8631 54.8461 21.5947 55.1228 21.2406L56.2268 22.3861C56.0386 22.6628 55.7841 22.9284 55.4631 23.183C55.1477 23.4375 54.7658 23.645 54.3176 23.8055C53.8694 23.9605 53.3519 24.0379 52.7654 24.0379ZM62.1286 14.8905V16.4676H56.9821V14.8905H62.1286ZM58.3601 12.6825H60.5598V21.2821C60.5598 21.5477 60.5958 21.7525 60.6677 21.8963C60.7396 22.0402 60.8475 22.1371 60.9914 22.1869C61.1353 22.2367 61.3069 22.2616 61.5061 22.2616C61.65 22.2616 61.7828 22.2533 61.9045 22.2367C62.0263 22.2201 62.1286 22.2035 62.2116 22.1869L62.2199 23.8304C62.0373 23.8913 61.8298 23.9411 61.5974 23.9798C61.3705 24.0186 61.1132 24.0379 60.8254 24.0379C60.3329 24.0379 59.9013 23.9549 59.5305 23.7889C59.1597 23.6174 58.872 23.3434 58.6672 22.9671C58.4625 22.5853 58.3601 22.0817 58.3601 21.4564V12.6825Z" fill="white"/>
<defs>
<filter id="filter0_d_2551_2639" x="0.494736" y="0.344879" width="119.221" height="42.2167" filterUnits="userSpaceOnUse" color-interpolation-filters="sRGB">
<feFlood flood-opacity="0" result="BackgroundImageFix"/>
<feColorMatrix in="SourceAlpha" type="matrix" values="0 0 0 0 0 0 0 0 0 0 0 0 0 0 0 0 0 0 127 0" result="hardAlpha"/>
<feOffset dy="3"/>
<feGaussianBlur stdDeviation="3.5"/>
<feComposite in2="hardAlpha" operator="out"/>
<feColorMatrix type="matrix" values="0 0 0 0 0.320833 0 0 0 0 0.263885 0 0 0 0 0.263885 0 0 0 0.25 0"/>
<feBlend mode="normal" in2="BackgroundImageFix" result="effect1_dropShadow_2551_2639"/>
<feBlend mode="normal" in="SourceGraphic" in2="effect1_dropShadow_2551_2639" result="shape"/>
</filter>
<linearGradient id="paint0_linear_2551_2639" x1="-4.20842" y1="30.6651" x2="91.3325" y2="-38.8026" gradientUnits="userSpaceOnUse">
<stop stop-color="#FFCC70"/>
<stop offset="0.471875" stop-color="#C850C0"/>
<stop offset="1" stop-color="#4158D0"/>
</linearGradient>
</defs>
</svg>
