<svg width="53" height="54" viewBox="0 0 53 54" fill="none" xmlns="http://www.w3.org/2000/svg">
<rect width="53" height="54" rx="26.5" fill="#FFFEFE"/>
<path d="M43.9876 19.7508C44.0041 19.6248 44.0041 19.497 43.9876 19.371V19.2263C43.9584 19.1253 43.9185 19.0283 43.8687 18.9369C43.8466 18.8848 43.818 18.8361 43.7837 18.7922L43.6138 18.5571L43.4778 18.4486L43.2739 18.2858L27.9794 9.24232C27.7211 9.08357 27.4281 9 27.1298 9C26.8315 9 26.5384 9.08357 26.2801 9.24232L10.9856 18.2858L10.8327 18.4124L10.6458 18.5571C10.5964 18.6162 10.5562 18.6834 10.5268 18.756C10.4724 18.8079 10.4265 18.8691 10.3909 18.9369C10.3467 19.0163 10.3125 19.1014 10.2889 19.1901C10.2794 19.25 10.2794 19.3111 10.2889 19.371C10.1721 19.4782 10.0742 19.6069 10 19.7508V34.2204C10.0022 34.5427 10.0853 34.8585 10.2407 35.1351C10.396 35.4118 10.618 35.6392 10.8837 35.7939L26.1781 44.8374C26.2483 44.881 26.3223 44.9173 26.399 44.9459H26.569C26.8481 45.018 27.1395 45.018 27.4187 44.9459H27.5886L27.8265 44.8374L43.1209 35.7939C43.3834 35.6369 43.602 35.4084 43.7543 35.1319C43.9066 34.8555 43.9871 34.5409 43.9876 34.2204V19.7508ZM26.9938 26.7505L15.2001 19.7508L19.8904 17.0016L31.4972 24.0555L26.9938 26.7505ZM26.9938 12.7874L38.7875 19.7508L34.9809 22.0117L23.3741 14.9397L26.9938 12.7874ZM13.3988 22.8256L25.2944 29.9157V40.189L13.3988 33.1532V22.8256ZM28.6932 40.189V29.9157L33.7913 26.8771V32.4117L37.1901 30.603V24.8513L40.5889 22.8437V33.1532L28.6932 40.189Z" fill="#D8C4FC"/>
</svg>
