<svg width="25" height="25" viewBox="0 0 25 25" fill="none" xmlns="http://www.w3.org/2000/svg">
<path d="M24.5861 3.50357L21.4492 0.396661C21.1796 0.142043 20.8214 0 20.4488 0C20.0763 0 19.718 0.142043 19.4484 0.396661L16.6592 3.16769H1.69559C1.24589 3.16769 0.814611 3.34462 0.496627 3.65957C0.178642 3.97452 0 4.40169 0 4.84709V23.3206C0 23.766 0.178642 24.1932 0.496627 24.5081C0.814611 24.8231 1.24589 25 1.69559 25H20.3471C20.7968 25 21.2281 24.8231 21.546 24.5081C21.864 24.1932 22.0427 23.766 22.0427 23.3206V8.00438L24.5861 5.48527C24.8511 5.22235 25 4.86598 25 4.49442C25 4.12286 24.8511 3.76649 24.5861 3.50357ZM12.5728 15.0327L9.02054 15.8136L9.86833 12.3289L17.9648 4.29289L20.7032 7.00513L12.5728 15.0327ZM21.6188 6.04787L18.8804 3.33563L20.4488 1.78217L23.1872 4.49442L21.6188 6.04787Z" fill="#49C2C0"/>
</svg>
