<svg width="53" height="54" viewBox="0 0 53 54" fill="none" xmlns="http://www.w3.org/2000/svg">
<rect width="53" height="54" rx="26.5" fill="#FFFEFE"/>
<path d="M20.0922 14.6461C16.6723 16.7414 13.8168 18.5203 13.7371 18.5906L13.5977 18.7242V26.5078C13.5977 33.8273 13.6043 34.3055 13.7172 34.4391C13.8699 34.6359 26.3676 42.2578 26.527 42.2578C26.5934 42.2578 28.1473 41.3508 29.9668 40.2328L33.2871 38.2148L33.3203 39.9375C33.3535 41.6391 33.3535 41.6672 33.5328 42.0187C33.732 42.4125 34.0441 42.7359 34.4691 42.975L34.748 43.1367L39.7352 43.1578C44.616 43.1719 44.7355 43.1719 45.0875 43.0312C45.5789 42.8414 45.9574 42.4758 46.1832 41.9906L46.3691 41.5898V33.9609V26.332L46.2297 26.0086C46.0438 25.5867 45.6121 25.1297 45.2137 24.9398C44.948 24.8063 44.7621 24.7852 43.8391 24.7641L42.7699 24.7359L42.6703 24.5109C42.5109 24.1664 42.2254 23.843 41.9266 23.6742C41.6809 23.5406 41.5348 23.5195 40.5453 23.4984L39.4297 23.4703V21.1008C39.4297 18.7313 39.4297 18.7242 39.2836 18.5836C39.1973 18.4992 36.3352 16.7203 32.9086 14.632C28.4926 11.932 26.6398 10.8281 26.5004 10.8352C26.3809 10.8352 24.1363 12.1711 20.0922 14.6461ZM29.1102 13.4437C31.1156 14.6672 31.6469 15.0188 31.5805 15.082C31.534 15.1313 28.9508 16.7203 25.8363 18.6188L20.1785 22.0781L17.6152 20.5102C16.2074 19.6523 15.0586 18.9352 15.0586 18.9141C15.0586 18.8719 26.4141 11.8969 26.5004 11.8898C26.527 11.8828 27.7023 12.5859 29.1102 13.4437ZM35.3523 17.2547C37.9555 18.8508 38.0418 18.907 37.8891 19.0055C37.8027 19.0617 35.2129 20.6508 32.1316 22.5352C27.8551 25.1508 26.5004 25.9453 26.4207 25.8961C26.3609 25.8609 25.159 25.1227 23.7379 24.2578C22.3234 23.393 21.168 22.6688 21.168 22.6406C21.168 22.6125 32.5832 15.6094 32.6363 15.6094C32.643 15.6094 33.8648 16.3477 35.3523 17.2547ZM22.184 24.4336L26.082 26.8102V33.8625V40.9148L24.9398 40.2117C24.309 39.825 21.7059 38.243 19.1625 36.6891L14.5273 33.8625V26.8102V19.7648L16.4066 20.9109C17.4359 21.5367 20.0324 23.1258 22.184 24.4336ZM38.5 21.6141V23.4703L38.2543 23.5195C37.7297 23.625 37.2383 24.0258 37.0457 24.518L36.9594 24.7359L35.8902 24.7641C34.8676 24.7852 34.7945 24.7922 34.4359 24.982C34.0109 25.207 33.6988 25.5445 33.493 26.0086C33.3535 26.325 33.3535 26.4305 33.3203 31.7039L33.2871 37.0687L31.3945 38.2289C30.352 38.8687 28.9441 39.7336 28.2602 40.1555L27.0117 40.9148V33.8625V26.8102L32.7426 23.2945C35.8902 21.3539 38.4734 19.7648 38.4867 19.7648C38.4934 19.7578 38.5 20.5945 38.5 21.6141ZM41.6609 24.7078C41.8336 24.8906 41.8867 25.0031 41.8867 25.207C41.8867 25.4109 41.8336 25.5234 41.6609 25.7063L41.4352 25.9453H39.8613H38.2875L38.0617 25.7063C37.8891 25.5234 37.8359 25.4109 37.8359 25.207C37.8359 25.0031 37.8891 24.8906 38.0617 24.7078L38.2875 24.4688H39.8613H41.4352L41.6609 24.7078ZM37.0789 25.9805C37.225 26.3109 37.6965 26.7469 38.0219 26.8453C38.1945 26.9016 38.852 26.9297 39.9012 26.9297C41.3887 26.9297 41.548 26.9156 41.8203 26.782C42.1922 26.6063 42.4578 26.3461 42.6238 25.9945L42.7566 25.7273L43.7727 25.7484C44.7555 25.7695 44.7953 25.7766 45.0211 25.9594C45.5059 26.3531 45.4793 25.7906 45.4594 34.0594C45.4395 41.4211 45.4395 41.4773 45.3 41.6672C45.227 41.7727 45.0809 41.9273 44.9813 42.0047C44.802 42.1523 44.7422 42.1523 39.8613 42.1523C34.9805 42.1523 34.9207 42.1523 34.7414 42.0047C34.6418 41.9273 34.4957 41.7727 34.4227 41.6672C34.2832 41.4773 34.2832 41.4211 34.2633 34.1508C34.2566 30.1219 34.2633 26.7258 34.2832 26.5992C34.3297 26.318 34.6086 25.9594 34.8809 25.8328C35.0137 25.7695 35.3922 25.7414 36.023 25.7344H36.966L37.0789 25.9805Z" fill="#FFC377"/>
<path d="M35.525 28.7086C35.3855 28.8633 35.3789 28.9336 35.3789 30.2063C35.3789 31.5141 35.3855 31.5492 35.5316 31.6969C35.7441 31.9149 36.4414 31.9219 36.6406 31.711C36.8863 31.4508 36.727 30.8672 36.4082 30.8672C36.3285 30.8672 36.3086 30.7477 36.3086 30.1992V29.5313H36.9395C37.5172 29.5313 37.577 29.5453 37.7297 29.7071C37.9422 29.9321 38.1281 29.9321 38.334 29.7071C38.4602 29.5805 38.5 29.461 38.5 29.2149C38.5 28.9688 38.4602 28.8492 38.334 28.7227C38.1746 28.5469 38.1613 28.5469 36.9195 28.5469C35.6977 28.5469 35.6645 28.5539 35.525 28.7086Z" fill="#FFC377"/>
<path d="M38.4666 29.8125L37.7428 30.5789L37.4573 30.3047C37.1053 29.9602 36.853 29.932 36.6405 30.2133C36.4346 30.4945 36.5143 30.6914 37.0655 31.268C37.7627 31.9992 37.7163 32.0133 38.9116 30.7406C39.6952 29.9109 39.8944 29.6648 39.8944 29.5102C39.8944 29.25 39.6752 29.0391 39.4096 29.0391C39.2237 29.0391 39.0975 29.1445 38.4666 29.8125Z" fill="#FFC377"/>
<path d="M40.6381 29.9039C40.4522 30.1148 40.4522 30.382 40.6448 30.5719C40.7975 30.7195 40.8506 30.7266 42.4112 30.7266H44.0182L44.1776 30.5508C44.2706 30.4594 44.3436 30.3117 44.3436 30.2344C44.3436 30.15 44.2706 30.0094 44.1776 29.918L44.0182 29.7422H42.3979C40.7909 29.7422 40.7776 29.7422 40.6381 29.9039Z" fill="#FFC377"/>
<path d="M35.5249 33.2086C35.3854 33.3633 35.3788 33.4336 35.3788 34.7062C35.3788 36.4781 35.2593 36.3515 36.946 36.3515C38.6194 36.3515 38.4999 36.4781 38.4999 34.6922C38.4999 32.9203 38.6194 33.0468 36.9327 33.0468C35.6975 33.0468 35.6643 33.0539 35.5249 33.2086ZM37.5702 34.6992V35.3672H36.9393H36.3085V34.6992V34.0312H36.9393H37.5702V34.6992Z" fill="#FFC377"/>
<path d="M40.6381 34.4039C40.4522 34.6148 40.4522 34.882 40.6448 35.0719C40.7975 35.2195 40.8506 35.2266 42.4112 35.2266H44.0182L44.1776 35.0508C44.2706 34.9594 44.3436 34.8117 44.3436 34.7344C44.3436 34.657 44.2706 34.5094 44.1776 34.418L44.0182 34.2422H42.3979C40.7909 34.2422 40.7776 34.2422 40.6381 34.4039Z" fill="#FFC377"/>
<path d="M35.5449 37.7227C35.3789 37.8914 35.3789 37.9055 35.3789 39.2203C35.3789 40.5141 35.3855 40.5492 35.5316 40.6969C35.7441 40.9149 36.4414 40.9219 36.6406 40.711C36.8863 40.4508 36.727 39.8672 36.4082 39.8672C36.3285 39.8672 36.3086 39.7477 36.3086 39.1992V38.5313H36.9395C37.4441 38.5313 37.5703 38.5524 37.5703 38.6297C37.5703 38.7633 37.8891 39.0235 38.0484 39.0235C38.1148 39.0235 38.2477 38.9461 38.334 38.8477C38.4734 38.7071 38.5 38.6086 38.5 38.2852C38.5 37.9617 38.4734 37.8633 38.334 37.7227C38.1746 37.5469 38.1613 37.5469 36.9395 37.5469C35.7176 37.5469 35.7043 37.5469 35.5449 37.7227Z" fill="#FFC377"/>
<path d="M38.4733 38.8758L37.7362 39.6492L37.4573 39.368C37.2913 39.2062 37.112 39.0937 37.0124 39.0937C36.7667 39.0937 36.5542 39.3187 36.5542 39.5789C36.5542 39.7687 36.6339 39.8953 37.0456 40.3312C37.7495 41.0836 37.7163 41.0976 38.9183 39.8109C39.9608 38.7 40.0272 38.5664 39.7616 38.2641C39.6753 38.1656 39.5425 38.1094 39.4163 38.1094C39.2437 38.1094 39.0909 38.2289 38.4733 38.8758Z" fill="#FFC377"/>
<path d="M40.6381 38.9039C40.4522 39.1148 40.4522 39.382 40.6448 39.5719C40.7975 39.7195 40.8506 39.7266 42.4112 39.7266H44.0182L44.1776 39.5508C44.2706 39.4594 44.3436 39.3117 44.3436 39.2344C44.3436 39.157 44.2706 39.0094 44.1776 38.918L44.0182 38.7422H42.3979C40.7909 38.7422 40.7776 38.7422 40.6381 38.9039Z" fill="#FFC377"/>
</svg>
