<svg width="25" height="23" viewBox="0 0 25 23" fill="none" xmlns="http://www.w3.org/2000/svg">
<path d="M22.3039 3.0303H18.7745L17.0343 0.340909C16.9675 0.236341 16.8765 0.150471 16.7696 0.0909796C16.6627 0.0314879 16.5431 0.000229431 16.4216 0H8.57843C8.45691 0.000229431 8.33733 0.0314879 8.2304 0.0909796C8.12348 0.150471 8.03252 0.236341 7.96569 0.340909L6.22549 3.0303H2.69608C1.98203 3.03362 1.29814 3.32735 0.793225 3.84757C0.288309 4.36778 0.00322376 5.07239 0 5.80808V19.9495C0.00322376 20.6852 0.288309 21.3898 0.793225 21.91C1.29814 22.4302 1.98203 22.7239 2.69608 22.7273H22.3039C23.018 22.7239 23.7019 22.4302 24.2068 21.91C24.7117 21.3898 24.9968 20.6852 25 19.9495V5.80808C24.9968 5.07239 24.7117 4.36778 24.2068 3.84757C23.7019 3.32735 23.018 3.03362 22.3039 3.0303ZM23.5294 19.9495C23.5294 20.2844 23.4003 20.6055 23.1705 20.8423C22.9407 21.0791 22.6289 21.2121 22.3039 21.2121H2.69608C2.37106 21.2121 2.05935 21.0791 1.82953 20.8423C1.5997 20.6055 1.47059 20.2844 1.47059 19.9495V5.80808C1.47059 5.47321 1.5997 5.15206 1.82953 4.91527C2.05935 4.67848 2.37106 4.54545 2.69608 4.54545H6.61765C6.73917 4.54522 6.85874 4.51397 6.96567 4.45447C7.0726 4.39498 7.16355 4.30911 7.23039 4.20455L8.97059 1.51515H16.0294L17.7696 4.20455C17.8364 4.30911 17.9274 4.39498 18.0343 4.45447C18.1413 4.51397 18.2608 4.54522 18.3824 4.54545H22.3039C22.6289 4.54545 22.9407 4.67848 23.1705 4.91527C23.4003 5.15206 23.5294 5.47321 23.5294 5.80808V19.9495ZM16.4828 15.404C16.5529 15.4735 16.6086 15.5569 16.6467 15.6491C16.6847 15.7413 16.7044 15.8405 16.7044 15.9407C16.7044 16.0409 16.6847 16.14 16.6467 16.2322C16.6086 16.3244 16.5529 16.4078 16.4828 16.4773C15.9603 17.0171 15.3395 17.4454 14.6561 17.7376C13.9727 18.0298 13.24 18.1803 12.5 18.1803C11.76 18.1803 11.0273 18.0298 10.3439 17.7376C9.66045 17.4454 9.03968 17.0171 8.51716 16.4773H8.5049L7.59804 15.4924L7.34069 17.0455C7.31178 17.2216 7.22337 17.3816 7.09106 17.4971C6.95875 17.6127 6.79107 17.6763 6.61765 17.6768H6.4951C6.39954 17.6615 6.30791 17.6267 6.22565 17.5743C6.14338 17.522 6.07215 17.4531 6.01616 17.3719C5.96017 17.2907 5.92056 17.1987 5.89969 17.1014C5.87881 17.0041 5.87708 16.9035 5.89461 16.8056L6.3848 13.7753C6.40876 13.6201 6.47975 13.4766 6.5876 13.3655C6.69546 13.2544 6.83466 13.1812 6.98529 13.1566L9.92647 12.6515C10.1114 12.6333 10.2961 12.6879 10.4436 12.8043C10.591 12.9208 10.6903 13.0904 10.7213 13.2791C10.7524 13.4678 10.7129 13.6616 10.6109 13.8216C10.509 13.9815 10.352 14.0958 10.1716 14.1414L8.60294 14.3939L9.55882 15.4167C9.94553 15.8144 10.4046 16.1296 10.9097 16.3443C11.4149 16.559 11.9561 16.6689 12.5025 16.6677C13.049 16.6665 13.5898 16.5543 14.094 16.3375C14.5983 16.1206 15.0561 15.8034 15.4412 15.404C15.5807 15.2644 15.7675 15.1863 15.962 15.1863C16.1565 15.1863 16.3433 15.2644 16.4828 15.404ZM19.1054 7.95455L18.6152 10.9848C18.5912 11.14 18.5203 11.2835 18.4124 11.3946C18.3045 11.5057 18.1653 11.5788 18.0147 11.6035L15.0735 12.1086H14.951C14.7776 12.1081 14.6099 12.0445 14.4776 11.929C14.3453 11.8134 14.2568 11.6535 14.2279 11.4773C14.2104 11.3793 14.2121 11.2787 14.233 11.1814C14.2539 11.0841 14.2935 10.9922 14.3495 10.9109C14.4055 10.8297 14.4767 10.7609 14.559 10.7085C14.6412 10.6561 14.7329 10.6213 14.8284 10.6061L16.3971 10.3409L15.4412 9.31818C15.0545 8.92044 14.5954 8.60521 14.0903 8.39054C13.5851 8.17587 13.0439 8.06597 12.4975 8.06714C11.951 8.06832 11.4102 8.18054 10.906 8.39737C10.4017 8.61421 9.94392 8.93141 9.55882 9.33081C9.41931 9.47042 9.23248 9.54851 9.03799 9.54851C8.8435 9.54851 8.65667 9.47042 8.51716 9.33081C8.4471 9.26131 8.39138 9.17796 8.35332 9.08576C8.31525 8.99356 8.29563 8.89439 8.29563 8.79419C8.29563 8.69399 8.31525 8.59483 8.35332 8.50262C8.39138 8.41042 8.4471 8.32707 8.51716 8.25758C9.03968 7.71776 9.66045 7.28947 10.3439 6.99724C11.0273 6.70501 11.76 6.55459 12.5 6.55459C13.24 6.55459 13.9727 6.70501 14.6561 6.99724C15.3395 7.28947 15.9603 7.71776 16.4828 8.25758H16.4951L17.402 9.24242L17.6593 7.70202C17.7036 7.51614 17.8145 7.35441 17.9698 7.24934C18.125 7.14427 18.3131 7.10364 18.4963 7.13562C18.6795 7.16761 18.8441 7.26983 18.9571 7.42175C19.0701 7.57367 19.123 7.76402 19.1054 7.95455Z" fill="black"/>
</svg>
