<svg width="53" height="54" viewBox="0 0 53 54" fill="none" xmlns="http://www.w3.org/2000/svg">
<rect width="53" height="54" rx="26.5" fill="#FFFEFE"/>
<path d="M20.0927 18.9509V18.1581C20.0927 14.219 23.2289 11 27.135 11C31.0411 11 34.1773 14.219 34.1773 18.1581V18.9532H38.9848C39.2755 18.9534 39.5558 19.0582 39.7714 19.247C39.9869 19.4359 40.1224 19.6954 40.1514 19.9754L42.2641 40.4206C42.2805 40.5784 42.2626 40.7378 42.2114 40.8886C42.1602 41.0393 42.077 41.178 41.9671 41.2957C41.8572 41.4134 41.723 41.5075 41.5733 41.572C41.4235 41.6365 41.2614 41.6698 41.0975 41.67H13.1726C13.0086 41.6698 12.8465 41.6365 12.6967 41.572C12.547 41.5075 12.4128 41.4134 12.3029 41.2957C12.193 41.178 12.1098 41.0393 12.0586 40.8886C12.0074 40.7378 11.9895 40.5784 12.0059 40.4206L14.1186 19.9754C14.1476 19.6954 14.2831 19.4359 14.4986 19.247C14.7142 19.0582 14.9945 18.9534 15.2852 18.9532H20.0927V18.9509ZM22.4402 18.9509H31.8298V18.1581C31.8298 15.4457 29.7125 13.2717 27.135 13.2717C24.5575 13.2717 22.4402 15.4457 22.4402 18.1581V18.9532V18.9509ZM20.0927 21.2226H16.3486L14.4707 39.396H39.7993L37.919 21.2226H34.1773V24.6301C34.1773 24.9313 34.0536 25.2203 33.8335 25.4333C33.6134 25.6463 33.3148 25.7659 33.0035 25.7659C32.6923 25.7659 32.3937 25.6463 32.1736 25.4333C31.9535 25.2203 31.8298 24.9313 31.8298 24.6301V21.2226H22.4402V24.6301C22.4402 24.9313 22.3165 25.2203 22.0964 25.4333C21.8763 25.6463 21.5777 25.7659 21.2665 25.7659C20.9552 25.7659 20.6566 25.6463 20.4365 25.4333C20.2164 25.2203 20.0927 24.9313 20.0927 24.6301V21.2226Z" fill="#FFACCA"/>
</svg>
