<svg width="29" height="30" viewBox="0 0 29 30" fill="none" xmlns="http://www.w3.org/2000/svg">
<path d="M2.36014 9.6H25.9615L28.3217 30H0L2.36014 9.6ZM7.08042 18H9.44056V13.2H7.08042V18ZM18.8811 18H21.2413V13.2H18.8811V18ZM9.44056 7.2H7.08042C7.08042 5.29044 7.82639 3.45909 9.15423 2.10883C10.4821 0.758569 12.283 0 14.1608 0C16.0387 0 17.8396 0.758569 19.1675 2.10883C20.4953 3.45909 21.2413 5.29044 21.2413 7.2H18.8811C18.8811 5.92696 18.3838 4.70606 17.4986 3.80589C16.6134 2.90571 15.4127 2.4 14.1608 2.4C12.9089 2.4 11.7083 2.90571 10.8231 3.80589C9.93787 4.70606 9.44056 5.92696 9.44056 7.2Z" fill="#BA5D28"/>
</svg>
