<svg width="34" height="34" viewBox="0 0 34 34" fill="none" xmlns="http://www.w3.org/2000/svg">
<path d="M16.3028 0.188251C14.3571 0.518723 12.8297 1.97419 12.3516 3.957C12.252 4.38591 12.2188 4.73747 12.2188 5.532C12.2188 6.53044 12.2122 6.57263 12.0196 6.97341C11.9067 7.19841 11.8204 7.4445 11.8204 7.51481C11.8204 7.59216 11.8071 7.64841 11.7872 7.64841C11.7672 7.64841 11.5747 7.51481 11.3489 7.36013C10.904 7.03669 10.0938 6.67106 9.80826 6.66403C9.60904 6.66403 9.29693 6.93825 9.29693 7.11403C9.29693 7.3531 9.45631 7.57107 9.72193 7.68357C10.7579 8.14763 11.3821 8.61872 11.8204 9.29372C12.2653 9.98981 12.511 10.9601 12.4712 11.9093L12.4512 12.3945L12.3516 12.1625C12.2321 11.8883 11.2692 10.7422 11.0102 10.5734C10.7047 10.3765 10.4458 10.4328 9.52935 10.9179C8.42037 11.5086 7.6567 11.7265 6.50787 11.7758C5.57154 11.8109 5.36568 11.8742 5.1731 12.1554C4.93404 12.514 4.88756 12.4156 4.93404 11.6351C4.98716 10.7843 5.10006 10.3062 5.39224 9.68747C5.69771 9.04763 6.40162 8.31638 7.00592 8.01403C7.76959 7.63435 7.79615 7.62028 7.89576 7.43044C8.02857 7.18435 7.94224 6.9031 7.70318 6.7695C7.52388 6.67106 7.4774 6.67106 7.13873 6.79763C5.95006 7.2406 4.83443 8.33044 4.34967 9.51872C4.09068 10.1515 3.98443 10.7773 3.93795 11.9023C3.90474 12.8867 3.87818 13.0695 3.73873 13.3508C3.27388 14.3351 3.82506 15.5797 4.84771 15.875C5.07349 15.9383 5.1067 15.9734 5.14654 16.2265C5.22623 16.7187 5.62467 17.4781 6.04302 17.9422L6.44146 18.3851V18.8351V19.2922L4.23677 20.1922C3.02154 20.6914 1.89263 21.1765 1.72662 21.275C1.07584 21.6687 0.464899 22.4492 0.179352 23.2437C0.0398987 23.6375 0.0332581 23.7148 0.0133362 28.2781C-0.00658565 32.8625 -0.00658565 32.9047 0.132868 33.214C0.219196 33.3968 0.37193 33.5867 0.518024 33.6781L0.763727 33.8398L8.61295 33.8609C15.2004 33.875 16.502 33.8609 16.7278 33.7765C16.9602 33.6922 17.0399 33.6922 17.2723 33.7765C17.4981 33.8609 18.7997 33.875 25.3872 33.8609L33.2364 33.8398L33.4821 33.6781C33.6215 33.5867 33.7809 33.3968 33.8606 33.214C33.9934 32.9328 34.0001 32.7922 34.0001 30.964V29.0164L33.834 28.8476C33.6415 28.6367 33.409 28.6226 33.1965 28.8054C33.0372 28.939 33.0372 28.9461 33.004 30.8656L32.9708 32.7851L31.9946 32.8062L31.0118 32.8273V28.8617V24.8961L30.859 24.7484C30.6665 24.5586 30.4141 24.5515 30.2083 24.7273L30.0489 24.8609L30.029 28.8406L30.0157 32.8203H28.2227C27.2333 32.8203 26.4297 32.7992 26.4297 32.7781C26.4297 32.757 26.6688 32.4617 26.961 32.1172C27.2532 31.7726 27.5055 31.407 27.5321 31.3015C27.5587 31.182 27.3661 29.7687 27.0141 27.5539C26.5028 24.3476 26.4563 23.989 26.5426 23.8484C26.6356 23.7008 26.6489 23.6937 26.868 23.7922C27.1735 23.9258 27.5653 23.8203 27.7446 23.5531C27.8176 23.4476 28.1231 22.8429 28.4219 22.2031C28.7208 21.5633 28.9731 21.0359 28.9797 21.0289C29.0196 20.9797 31.7157 22.1398 31.9348 22.2945C32.2868 22.5406 32.652 23.0328 32.8247 23.4828C32.9442 23.8133 32.9708 24.0453 32.9973 25.4164C33.0438 27.1742 33.0571 27.2234 33.5087 27.2234C33.688 27.2234 33.7876 27.1742 33.8805 27.0547C34.0067 26.8929 34.0133 26.7945 33.9868 25.2617C33.9602 23.8343 33.9403 23.5953 33.8141 23.2437C33.5419 22.4562 32.9243 21.6687 32.2735 21.275C32.1075 21.1765 30.9786 20.6914 29.77 20.1922L27.5587 19.2922V18.807C27.5587 18.3218 27.5587 18.3218 27.8973 17.9281C28.3223 17.4359 28.5813 16.9508 28.7274 16.3883C28.8204 16.0086 28.8669 15.9383 29.0129 15.8961C29.345 15.8117 29.6704 15.5937 29.9294 15.2843C30.4008 14.7148 30.4805 13.9976 30.1485 13.3015C29.9559 12.9008 29.9493 12.8586 29.9493 11.8601C29.9493 10.1023 29.584 9.09685 28.5547 7.99294C27.6251 7.00153 26.536 6.53044 25.1946 6.52341C24.1985 6.52341 23.1426 6.882 22.4321 7.45856C22.12 7.71169 22.1133 7.71169 22.1133 7.54997C22.1133 7.45856 22.027 7.19841 21.9141 6.97341C21.7215 6.57263 21.7149 6.52341 21.7149 5.58825C21.7149 4.39294 21.6087 3.83044 21.2036 2.93747C20.9446 2.36794 20.8118 2.18513 20.2938 1.63669C19.8024 1.11638 19.5833 0.940598 19.1251 0.708565C18.8129 0.546844 18.3813 0.364033 18.1555 0.307785C17.6575 0.174191 16.7477 0.117939 16.3028 0.188251ZM17.6973 1.28513C19.1118 1.60153 20.2672 2.76169 20.6192 4.23825C20.6723 4.47028 20.7188 4.94841 20.7188 5.3281L20.7122 5.99607L20.5993 5.76403C20.4333 5.4406 19.4172 4.2945 19.1782 4.16091C18.8926 4.00622 18.6337 4.0695 18.0227 4.44216C17.0001 5.06794 15.8977 5.38435 14.543 5.43357C13.7661 5.46169 13.5602 5.532 13.4141 5.82028C13.268 6.10153 13.2149 5.95388 13.2149 5.28591C13.2149 4.06247 13.527 3.23981 14.3106 2.4031C15.2403 1.40466 16.4489 1.01091 17.6973 1.28513ZM19.2512 5.67263L19.6563 6.15778V7.59216C19.6563 8.38669 19.6231 9.21638 19.5833 9.44138C19.3575 10.7351 18.3813 11.6422 17.1462 11.7125C16.2962 11.7617 15.7118 11.5437 15.134 10.9742C14.4169 10.2711 14.2774 9.75075 14.2774 7.88747V6.53747L14.895 6.48825C16.1235 6.38981 17.3387 6.03122 18.295 5.47575C18.554 5.3281 18.7797 5.20153 18.7997 5.1945C18.8196 5.1945 19.0254 5.40544 19.2512 5.67263ZM13.2813 7.78903C13.2813 8.47107 13.2747 8.49216 13.1485 8.42185C12.9758 8.32341 12.8165 7.98591 12.8165 7.71872C12.8165 7.57107 12.8762 7.43044 13.009 7.28982C13.1153 7.17731 13.2215 7.08591 13.2415 7.08591C13.2614 7.08591 13.2813 7.40232 13.2813 7.78903ZM20.9446 7.30388C21.1372 7.54997 21.1637 7.83825 21.0176 8.13357C20.9379 8.30231 20.7985 8.42185 20.679 8.42185C20.6657 8.42185 20.6524 8.1195 20.6524 7.75388C20.6524 7.38825 20.679 7.08591 20.7122 7.08591C20.7454 7.08591 20.8516 7.18435 20.9446 7.30388ZM26.1309 7.68357C27.4325 8.03513 28.5083 9.16013 28.8536 10.5312C28.9133 10.7562 28.9532 11.2273 28.9532 11.6562V12.3945L28.827 12.1133C28.7606 11.9586 28.4219 11.5226 28.07 11.1359L27.4391 10.4398L27.0805 10.475C26.8282 10.5031 26.6024 10.5945 26.2571 10.8054C25.2809 11.4101 23.8864 11.7968 22.6579 11.7968H22.027L21.7747 12.0781C21.6352 12.2328 21.5024 12.3593 21.4825 12.3593C21.4227 12.3593 21.4493 11.1078 21.5223 10.7281C21.5622 10.5242 21.7083 10.0953 21.8544 9.77888C22.2993 8.78747 23.1692 8.0281 24.2051 7.71169C24.7098 7.557 25.6129 7.54294 26.1309 7.68357ZM13.4141 9.91247C13.5403 10.489 13.9387 11.2273 14.3637 11.6703C14.7422 12.0781 14.7422 12.0781 14.7422 12.4929V12.9148L14.2309 13.1258L13.7129 13.3367L13.6001 13.182C13.5004 13.0554 13.4805 12.8726 13.4805 12.1133C13.4805 11.1008 13.4075 10.489 13.2149 9.9195C13.0954 9.56091 13.0954 9.54685 13.2149 9.54685C13.3079 9.54685 13.3544 9.63825 13.4141 9.91247ZM20.6657 10.0531C20.5196 10.5031 20.493 10.714 20.4731 11.7617C20.4465 12.9359 20.3868 13.2734 20.2075 13.2734C20.161 13.2734 19.9286 13.189 19.6895 13.0906L19.2579 12.9078V12.4437C19.2579 11.9797 19.2579 11.9726 19.5833 11.6211C20.0149 11.164 20.3469 10.5664 20.4864 10.0039C20.5727 9.67341 20.6391 9.54685 20.7188 9.54685C20.8184 9.54685 20.8118 9.6031 20.6657 10.0531ZM11.0169 12.05L11.4219 12.5211V13.864C11.4219 15.4672 11.3622 15.9523 11.1032 16.5289C10.2333 18.4625 7.60357 18.6383 6.47467 16.8383C6.08951 16.2265 6.04302 15.9453 6.04302 14.307V12.8515H6.42818C7.46412 12.8515 9.08443 12.4086 9.9942 11.8672C10.2532 11.7195 10.4922 11.5929 10.5387 11.5929C10.5786 11.5859 10.7977 11.7968 11.0169 12.05ZM27.5122 12.0429L27.904 12.5L27.8774 14.2367L27.8575 15.9804L27.645 16.4515C26.7153 18.5328 23.9794 18.6664 22.877 16.6765C22.6047 16.1773 22.5118 15.5726 22.5118 14.1453V12.8726L23.2422 12.8234C24.2583 12.7601 25.3274 12.4648 26.2505 11.9797C26.6622 11.7687 27.0274 11.5929 27.0606 11.5929C27.1004 11.5929 27.2997 11.7968 27.5122 12.0429ZM17.0067 12.7812C17.3254 12.7812 17.7239 12.732 17.9032 12.6758C18.0825 12.6195 18.2352 12.5703 18.2485 12.5703C18.2551 12.5703 18.2618 12.6968 18.2618 12.8515C18.2618 13.1047 18.1954 13.2242 17.6508 13.9343C17.3122 14.3773 17.0133 14.7359 16.9934 14.7289C16.9669 14.7218 16.6747 14.3562 16.3426 13.9203C15.8114 13.2242 15.7383 13.0976 15.7383 12.8586V12.5843L16.0903 12.6828C16.2762 12.732 16.6946 12.7812 17.0067 12.7812ZM12.7965 13.8218C12.8829 14.0468 12.8895 14.1172 12.8098 14.3562C12.7567 14.5039 12.6504 14.6797 12.5708 14.7359L12.418 14.8343V14.1242C12.418 13.4211 12.418 13.407 12.5575 13.4843C12.6305 13.5336 12.7434 13.6812 12.7965 13.8218ZM29.2454 13.7093C29.4579 14.0258 29.3383 14.5672 29.0129 14.75C28.8934 14.8203 28.8868 14.7992 28.8868 14.1172C28.8868 13.4351 28.8934 13.414 29.0129 13.4843C29.086 13.5195 29.1922 13.625 29.2454 13.7093ZM5.04693 14.1523C5.04693 14.5179 5.02037 14.8203 4.98716 14.8203C4.95396 14.8203 4.84771 14.7218 4.75474 14.6023C4.52232 14.314 4.51568 13.8992 4.7481 13.6601C4.83443 13.5617 4.94068 13.4843 4.98052 13.4843C5.02037 13.4843 5.04693 13.7375 5.04693 14.1523ZM21.5157 14.1523C21.5157 14.7992 21.509 14.8203 21.3829 14.75C21.2169 14.6586 21.0508 14.3211 21.0508 14.089C21.0508 13.9203 21.343 13.4843 21.4559 13.4843C21.4891 13.4843 21.5157 13.7867 21.5157 14.1523ZM15.6985 14.75L16.2696 15.4883L16.0837 15.6429C15.7915 15.9031 15.2071 16.3179 15.1805 16.2898C15.1672 16.2758 14.9415 15.8117 14.6825 15.2562C14.2641 14.3773 14.2243 14.2508 14.3239 14.2086C14.3903 14.1875 14.5762 14.1101 14.7422 14.0398C14.9083 13.9765 15.061 13.9414 15.0876 13.9625C15.1141 13.9906 15.3864 14.3422 15.6985 14.75ZM19.6762 14.2086C19.7758 14.2508 19.7294 14.3773 19.311 15.2773C19.0122 15.9031 18.7997 16.2828 18.7465 16.2687C18.7067 16.2476 18.4544 16.0718 18.1954 15.8679L17.7239 15.5093L17.9497 15.214C18.0692 15.0593 18.3415 14.7008 18.554 14.4195L18.9391 13.9133L19.2446 14.0398C19.4172 14.1101 19.6098 14.1875 19.6762 14.2086ZM14.0051 16.2054C14.2575 16.7398 14.5297 17.239 14.6094 17.3164C14.7622 17.464 15.227 17.4992 15.5059 17.3937C15.5989 17.3586 15.6653 17.3867 15.7251 17.4922C15.7915 17.6117 15.7649 17.907 15.5458 19.2922C15.3997 20.2062 15.2669 20.9656 15.2602 20.9797C15.2469 20.9937 14.2907 20.614 13.1286 20.1429L11.0235 19.2851V18.7789C11.0235 18.2937 11.0301 18.2656 11.2294 18.1109C11.6344 17.7945 12.1458 16.8664 12.252 16.2758C12.3051 15.9804 12.3516 15.9312 12.7368 15.8047C12.8895 15.7554 13.1286 15.6078 13.268 15.4812C13.4008 15.3547 13.5204 15.2492 13.527 15.2422C13.5403 15.2422 13.7528 15.6781 14.0051 16.2054ZM20.7122 15.5304C20.8516 15.65 21.0973 15.7836 21.2501 15.8328C21.529 15.9172 21.5422 15.9312 21.695 16.4375C21.8809 17.0351 22.3391 17.8086 22.7176 18.1461C22.97 18.3781 22.9766 18.3992 22.9766 18.8351V19.2851L20.8715 20.1429C19.7094 20.614 18.7532 20.9937 18.7399 20.9797C18.7333 20.9656 18.6004 20.2062 18.4544 19.2922C18.2352 17.907 18.2087 17.6117 18.2751 17.4922C18.3348 17.3867 18.4012 17.3586 18.4942 17.3937C18.5672 17.4218 18.7665 17.45 18.9391 17.45C19.3641 17.457 19.4704 17.3304 19.9883 16.2336C20.2208 15.7273 20.4266 15.3125 20.4399 15.3125C20.4532 15.3125 20.5727 15.4109 20.7122 15.5304ZM17.2856 16.4726C17.6973 16.775 17.5778 17 17.0001 17C16.4223 17 16.3028 16.775 16.7145 16.4726C16.854 16.3742 16.9801 16.2968 17.0001 16.2968C17.02 16.2968 17.1462 16.3742 17.2856 16.4726ZM17.2657 18.1039C17.2657 18.139 17.3919 18.9336 17.5379 19.8758L17.8102 21.5843L17.5512 21.8445C17.4118 21.9851 17.2258 22.189 17.1462 22.3086L17.0001 22.5195L16.854 22.3086C16.7743 22.189 16.5883 21.9851 16.4489 21.8445L16.1899 21.5914L16.4622 19.8617C16.6149 18.9125 16.7344 18.1179 16.7344 18.0968C16.7344 18.0687 16.854 18.0547 17.0001 18.0547C17.1462 18.0547 17.2657 18.0758 17.2657 18.1039ZM8.28756 19.1093C8.7524 19.1867 9.12428 19.1586 9.8481 18.9968C10.0208 18.9547 10.0274 18.9687 10.0274 19.2148C10.0274 19.4328 9.94107 19.5804 9.4231 20.2554C9.09107 20.6914 8.79224 21.05 8.76568 21.064C8.73248 21.0781 8.42701 20.7125 8.07506 20.2554C7.55045 19.5734 7.43756 19.3836 7.43756 19.1867C7.43756 18.9687 7.45084 18.9547 7.62349 18.9968C7.7231 19.0179 8.02193 19.0672 8.28756 19.1093ZM24.7497 19.1164C25.2079 19.1797 25.5001 19.1586 26.3501 18.9968C26.5559 18.9547 26.5626 18.9617 26.5626 19.1797C26.5626 19.3625 26.4364 19.5734 25.9251 20.2484C25.5797 20.7125 25.2676 21.0781 25.2344 21.064C25.2012 21.05 24.909 20.6914 24.577 20.2554C24.059 19.5804 23.9727 19.4328 23.9727 19.2148C23.9727 18.9758 23.986 18.9547 24.1254 18.9968C24.2051 19.0179 24.4907 19.0742 24.7497 19.1164ZM7.39771 21.05C7.70982 21.4578 7.96881 21.8234 7.96881 21.8586C7.96881 21.8867 7.73638 22.0906 7.45748 22.3015L6.93951 22.6883L6.45474 21.6617C6.18912 21.0992 5.97662 20.6281 5.9899 20.6211C6.02974 20.5789 6.67388 20.3117 6.75357 20.3117C6.79342 20.3047 7.0856 20.6422 7.39771 21.05ZM11.1364 20.4523L11.5481 20.607L11.0501 21.6547L10.5587 22.6953L10.0739 22.3297C9.8149 22.1328 9.5692 21.9429 9.53599 21.9148C9.48287 21.8656 10.6051 20.3117 10.6915 20.3047C10.7114 20.3047 10.9106 20.375 11.1364 20.4523ZM23.9329 21.0851C24.2583 21.514 24.4973 21.8867 24.4641 21.9148C24.4309 21.9429 24.1852 22.1328 23.9262 22.3297L23.4415 22.6953L22.9501 21.6547L22.4587 20.614L22.7973 20.4664C22.9899 20.382 23.1891 20.3187 23.2422 20.3117C23.2954 20.3117 23.6075 20.6562 23.9329 21.0851ZM27.6516 20.4523C27.8575 20.5367 28.0235 20.6281 28.0169 20.6492C28.0169 20.6703 27.8044 21.1414 27.5387 21.6898L27.0606 22.6953L26.5161 22.2804L25.9649 21.8726L26.5692 21.0851C26.8946 20.6562 27.1934 20.3047 27.2266 20.3047C27.2532 20.3047 27.4458 20.375 27.6516 20.4523ZM5.61138 22.2804C5.94342 22.9765 6.25552 23.5953 6.31529 23.6515C6.50787 23.8343 6.83326 23.8906 7.11217 23.7922C7.35123 23.7008 7.37115 23.7078 7.45748 23.8484C7.54381 23.982 7.49068 24.3968 6.97935 27.5961C6.32193 31.7375 6.30865 31.2734 7.09224 32.1804C7.35123 32.4898 7.57037 32.757 7.57037 32.7781C7.57037 32.7992 6.76685 32.8203 5.7774 32.8203H3.98443L3.97115 28.8406L3.95123 24.8609L3.79185 24.7273C3.58599 24.5515 3.33365 24.5586 3.14107 24.7484L2.98834 24.8961V28.8617V32.8273L2.01216 32.8062L1.02935 32.7851V28.3554C1.02935 24.2351 1.03599 23.8976 1.14888 23.5531C1.30162 23.1101 1.70006 22.5476 2.05865 22.3015C2.25787 22.1609 4.79459 21.0429 4.98052 21.0148C5.00045 21.0078 5.28599 21.5773 5.61138 22.2804ZM14.2774 21.7461C15.32 22.175 15.6985 22.4351 16.0504 22.9554C16.4754 23.5883 16.4688 23.532 16.4688 28.4047V32.8203H15.5059H14.543L14.5297 28.8406L14.5098 24.8609L14.3504 24.7273C14.1446 24.5515 13.8922 24.5586 13.6997 24.7484L13.5469 24.8961V28.8617V32.8203H11.7075H9.87467L10.034 32.6234C10.1204 32.5179 10.3528 32.2508 10.5454 32.0328C11.1629 31.3297 11.1629 31.6531 10.5254 27.6453C10.2133 25.7187 9.96099 24.0875 9.96099 24.0312C9.96764 23.975 10.0008 23.8695 10.054 23.8062C10.127 23.7008 10.1669 23.7008 10.3926 23.7781C10.6782 23.8836 10.9637 23.8273 11.1762 23.6304C11.2426 23.5601 11.568 22.9414 11.8934 22.2593L12.4844 21.0148L12.8962 21.1765C13.1286 21.2679 13.7462 21.5211 14.2774 21.7461ZM22.1465 22.3297C22.5383 23.1453 22.8106 23.6164 22.9301 23.7078C23.1426 23.8695 23.5809 23.8906 23.7403 23.75C23.8266 23.6726 23.8598 23.6797 23.9395 23.7922C23.9926 23.8625 24.0325 23.975 24.0391 24.0312C24.0391 24.0875 23.7868 25.7117 23.4747 27.6453C22.8372 31.6461 22.8372 31.3226 23.4547 32.0328C23.6473 32.2508 23.8731 32.5179 23.9661 32.6304L24.1321 32.8203H22.2926H20.4532V28.8687V24.9172L20.3071 24.7554C20.1344 24.5586 19.8622 24.5445 19.6497 24.7273L19.4903 24.8609L19.4704 28.8406L19.4571 32.8203H18.4876H17.5247L17.5446 28.264C17.5645 23.75 17.5645 23.7148 17.7106 23.3773C17.8833 22.9906 18.4212 22.3648 18.7465 22.182C19.0852 21.9851 21.4758 21.0148 21.5157 21.057C21.5356 21.0711 21.8212 21.6476 22.1465 22.3297ZM9.04459 22.8359C9.46959 23.1312 9.33677 23.3281 8.7192 23.3281C8.38053 23.3281 8.2942 23.307 8.23443 23.1945C8.17467 23.075 8.20787 23.0258 8.44693 22.8429C8.60631 22.7234 8.74576 22.639 8.76568 22.6461C8.7856 22.6531 8.91178 22.7375 9.04459 22.8359ZM25.5399 22.8429C25.7922 23.0258 25.8254 23.075 25.7657 23.1945C25.7059 23.307 25.6196 23.3281 25.2809 23.3281C24.8825 23.3281 24.7032 23.2508 24.7032 23.082C24.7098 23.0258 25.1348 22.6531 25.2212 22.632C25.2344 22.625 25.3739 22.7234 25.5399 22.8429ZM9.50943 27.582C9.78834 29.3187 10.0208 30.8164 10.0208 30.9008C10.0274 31.0062 9.8149 31.3086 9.38326 31.8078L8.73912 32.5531L8.53326 32.307C8.42701 32.1734 8.13482 31.8218 7.88912 31.5406L7.4442 31.0133L7.96881 27.7156C8.26099 25.9015 8.50006 24.4109 8.50006 24.3968C8.50006 24.3828 8.61295 24.3828 8.7524 24.3968L8.9981 24.4179L9.50943 27.582ZM25.5001 24.4039C25.5001 24.4179 25.7391 25.9086 26.0313 27.7226L26.5559 31.0203L26.3169 31.3015C26.184 31.4633 25.8852 31.8008 25.6594 32.0609L25.2477 32.539L24.5969 31.7937L23.9395 31.0414L24.4641 27.7648C24.7497 25.9648 24.9954 24.4672 25.0153 24.432C25.0419 24.3828 25.5001 24.3547 25.5001 24.4039Z" fill="#FCC4E8"/>
</svg>
