<svg width="34" height="36" viewBox="0 0 34 36" fill="none" xmlns="http://www.w3.org/2000/svg">
<rect x="-10" y="-8" width="53" height="54" rx="26.5" fill="#FFFEFE"/>
<path d="M16.3028 1.18825C14.3571 1.51872 12.8297 2.97419 12.3516 4.957C12.252 5.38591 12.2188 5.73747 12.2188 6.532C12.2188 7.53044 12.2122 7.57263 12.0196 7.97341C11.9067 8.19841 11.8204 8.4445 11.8204 8.51482C11.8204 8.59216 11.8071 8.64841 11.7872 8.64841C11.7672 8.64841 11.5747 8.51482 11.3489 8.36013C10.904 8.03669 10.0938 7.67107 9.80826 7.66403C9.60904 7.66403 9.29693 7.93825 9.29693 8.11403C9.29693 8.3531 9.45631 8.57107 9.72193 8.68357C10.7579 9.14763 11.3821 9.61872 11.8204 10.2937C12.2653 10.9898 12.511 11.9601 12.4712 12.9093L12.4512 13.3945L12.3516 13.1625C12.2321 12.8883 11.2692 11.7422 11.0102 11.5734C10.7047 11.3765 10.4458 11.4328 9.52935 11.9179C8.42037 12.5086 7.6567 12.7265 6.50787 12.7758C5.57154 12.8109 5.36568 12.8742 5.1731 13.1554C4.93404 13.514 4.88756 13.4156 4.93404 12.6351C4.98717 11.7843 5.10006 11.3062 5.39224 10.6875C5.69771 10.0476 6.40162 9.31638 7.00592 9.01403C7.76959 8.63435 7.79615 8.62028 7.89576 8.43044C8.02857 8.18435 7.94224 7.9031 7.70318 7.7695C7.52388 7.67107 7.4774 7.67107 7.13873 7.79763C5.95006 8.2406 4.83443 9.33044 4.34967 10.5187C4.09068 11.1515 3.98443 11.7773 3.93795 12.9023C3.90474 13.8867 3.87818 14.0695 3.73873 14.3508C3.27388 15.3351 3.82506 16.5797 4.84771 16.875C5.07349 16.9383 5.1067 16.9734 5.14654 17.2265C5.22623 17.7187 5.62467 18.4781 6.04302 18.9422L6.44146 19.3851V19.8351V20.2922L4.23677 21.1922C3.02154 21.6914 1.89263 22.1765 1.72662 22.275C1.07584 22.6687 0.464899 23.4492 0.179352 24.2437C0.0398987 24.6375 0.0332581 24.7148 0.0133362 29.2781C-0.00658565 33.8625 -0.00658565 33.9047 0.132868 34.214C0.219196 34.3968 0.37193 34.5867 0.518024 34.6781L0.763727 34.8398L8.61295 34.8609C15.2004 34.875 16.502 34.8609 16.7278 34.7765C16.9602 34.6922 17.0399 34.6922 17.2723 34.7765C17.4981 34.8609 18.7997 34.875 25.3872 34.8609L33.2364 34.8398L33.4821 34.6781C33.6215 34.5867 33.7809 34.3968 33.8606 34.214C33.9934 33.9328 34.0001 33.7922 34.0001 31.964V30.0164L33.834 29.8476C33.6415 29.6367 33.409 29.6226 33.1965 29.8054C33.0372 29.939 33.0372 29.9461 33.004 31.8656L32.9708 33.7851L31.9946 33.8062L31.0118 33.8273V29.8617V25.8961L30.859 25.7484C30.6665 25.5586 30.4141 25.5515 30.2083 25.7273L30.0489 25.8609L30.029 29.8406L30.0157 33.8203H28.2227C27.2333 33.8203 26.4297 33.7992 26.4297 33.7781C26.4297 33.757 26.6688 33.4617 26.961 33.1172C27.2532 32.7726 27.5055 32.407 27.5321 32.3015C27.5587 32.182 27.3661 30.7687 27.0141 28.5539C26.5028 25.3476 26.4563 24.989 26.5426 24.8484C26.6356 24.7008 26.6489 24.6937 26.868 24.7922C27.1735 24.9258 27.5653 24.8203 27.7446 24.5531C27.8176 24.4476 28.1231 23.8429 28.4219 23.2031C28.7208 22.5633 28.9731 22.0359 28.9797 22.0289C29.0196 21.9797 31.7157 23.1398 31.9348 23.2945C32.2868 23.5406 32.652 24.0328 32.8247 24.4828C32.9442 24.8133 32.9708 25.0453 32.9973 26.4164C33.0438 28.1742 33.0571 28.2234 33.5087 28.2234C33.688 28.2234 33.7876 28.1742 33.8805 28.0547C34.0067 27.8929 34.0133 27.7945 33.9868 26.2617C33.9602 24.8343 33.9403 24.5953 33.8141 24.2437C33.5419 23.4562 32.9243 22.6687 32.2735 22.275C32.1075 22.1765 30.9786 21.6914 29.77 21.1922L27.5587 20.2922V19.807C27.5587 19.3218 27.5587 19.3218 27.8973 18.9281C28.3223 18.4359 28.5813 17.9508 28.7274 17.3883C28.8204 17.0086 28.8669 16.9383 29.0129 16.8961C29.345 16.8117 29.6704 16.5937 29.9294 16.2843C30.4008 15.7148 30.4805 14.9976 30.1485 14.3015C29.9559 13.9008 29.9493 13.8586 29.9493 12.8601C29.9493 11.1023 29.584 10.0968 28.5547 8.99294C27.6251 8.00153 26.536 7.53044 25.1946 7.52341C24.1985 7.52341 23.1426 7.882 22.4321 8.45857C22.12 8.71169 22.1133 8.71169 22.1133 8.54997C22.1133 8.45857 22.027 8.19841 21.9141 7.97341C21.7215 7.57263 21.7149 7.52341 21.7149 6.58825C21.7149 5.39294 21.6087 4.83044 21.2036 3.93747C20.9446 3.36794 20.8118 3.18513 20.2938 2.63669C19.8024 2.11638 19.5833 1.9406 19.1251 1.70856C18.8129 1.54685 18.3813 1.36403 18.1555 1.30778C17.6575 1.17419 16.7477 1.11794 16.3028 1.18825ZM17.6973 2.28513C19.1118 2.60153 20.2672 3.76169 20.6192 5.23825C20.6723 5.47028 20.7188 5.94841 20.7188 6.3281L20.7122 6.99607L20.5993 6.76403C20.4333 6.4406 19.4172 5.2945 19.1782 5.16091C18.8926 5.00622 18.6337 5.0695 18.0227 5.44216C17.0001 6.06794 15.8977 6.38435 14.543 6.43357C13.7661 6.46169 13.5602 6.532 13.4141 6.82028C13.268 7.10153 13.2149 6.95388 13.2149 6.28591C13.2149 5.06247 13.527 4.23982 14.3106 3.4031C15.2403 2.40466 16.4489 2.01091 17.6973 2.28513ZM19.2512 6.67263L19.6563 7.15778V8.59216C19.6563 9.38669 19.6231 10.2164 19.5833 10.4414C19.3575 11.7351 18.3813 12.6422 17.1462 12.7125C16.2962 12.7617 15.7118 12.5437 15.134 11.9742C14.4169 11.2711 14.2774 10.7508 14.2774 8.88747V7.53747L14.895 7.48825C16.1235 7.38982 17.3387 7.03122 18.295 6.47575C18.554 6.3281 18.7797 6.20153 18.7997 6.1945C18.8196 6.1945 19.0254 6.40544 19.2512 6.67263ZM13.2813 8.78903C13.2813 9.47107 13.2747 9.49216 13.1485 9.42185C12.9758 9.32341 12.8165 8.98591 12.8165 8.71872C12.8165 8.57107 12.8762 8.43044 13.009 8.28982C13.1153 8.17732 13.2215 8.08591 13.2415 8.08591C13.2614 8.08591 13.2813 8.40232 13.2813 8.78903ZM20.9446 8.30388C21.1372 8.54997 21.1637 8.83825 21.0176 9.13357C20.9379 9.30232 20.7985 9.42185 20.679 9.42185C20.6657 9.42185 20.6524 9.1195 20.6524 8.75388C20.6524 8.38825 20.679 8.08591 20.7122 8.08591C20.7454 8.08591 20.8516 8.18435 20.9446 8.30388ZM26.1309 8.68357C27.4325 9.03513 28.5083 10.1601 28.8536 11.5312C28.9133 11.7562 28.9532 12.2273 28.9532 12.6562V13.3945L28.827 13.1133C28.7606 12.9586 28.4219 12.5226 28.07 12.1359L27.4391 11.4398L27.0805 11.475C26.8282 11.5031 26.6024 11.5945 26.2571 11.8054C25.2809 12.4101 23.8864 12.7968 22.6579 12.7968H22.027L21.7747 13.0781C21.6352 13.2328 21.5024 13.3593 21.4825 13.3593C21.4227 13.3593 21.4493 12.1078 21.5223 11.7281C21.5622 11.5242 21.7083 11.0953 21.8544 10.7789C22.2993 9.78747 23.1692 9.0281 24.2051 8.71169C24.7098 8.557 25.6129 8.54294 26.1309 8.68357ZM13.4141 10.9125C13.5403 11.489 13.9387 12.2273 14.3637 12.6703C14.7422 13.0781 14.7422 13.0781 14.7422 13.4929V13.9148L14.2309 14.1258L13.7129 14.3367L13.6001 14.182C13.5004 14.0554 13.4805 13.8726 13.4805 13.1133C13.4805 12.1008 13.4075 11.489 13.2149 10.9195C13.0954 10.5609 13.0954 10.5468 13.2149 10.5468C13.3079 10.5468 13.3544 10.6383 13.4141 10.9125ZM20.6657 11.0531C20.5196 11.5031 20.493 11.714 20.4731 12.7617C20.4465 13.9359 20.3868 14.2734 20.2075 14.2734C20.161 14.2734 19.9286 14.189 19.6895 14.0906L19.2579 13.9078V13.4437C19.2579 12.9797 19.2579 12.9726 19.5833 12.6211C20.0149 12.164 20.3469 11.5664 20.4864 11.0039C20.5727 10.6734 20.6391 10.5468 20.7188 10.5468C20.8184 10.5468 20.8118 10.6031 20.6657 11.0531ZM11.0169 13.05L11.4219 13.5211V14.864C11.4219 16.4672 11.3622 16.9523 11.1032 17.5289C10.2333 19.4625 7.60357 19.6383 6.47467 17.8383C6.08951 17.2265 6.04302 16.9453 6.04302 15.307V13.8515H6.42818C7.46412 13.8515 9.08443 13.4086 9.9942 12.8672C10.2532 12.7195 10.4922 12.5929 10.5387 12.5929C10.5786 12.5859 10.7977 12.7968 11.0169 13.05ZM27.5122 13.0429L27.904 13.5L27.8774 15.2367L27.8575 16.9804L27.645 17.4515C26.7153 19.5328 23.9794 19.6664 22.877 17.6765C22.6047 17.1773 22.5118 16.5726 22.5118 15.1453V13.8726L23.2422 13.8234C24.2583 13.7601 25.3274 13.4648 26.2504 12.9797C26.6622 12.7687 27.0274 12.5929 27.0606 12.5929C27.1004 12.5929 27.2997 12.7968 27.5122 13.0429ZM17.0067 13.7812C17.3254 13.7812 17.7239 13.732 17.9032 13.6758C18.0825 13.6195 18.2352 13.5703 18.2485 13.5703C18.2551 13.5703 18.2618 13.6968 18.2618 13.8515C18.2618 14.1047 18.1954 14.2242 17.6508 14.9343C17.3122 15.3773 17.0133 15.7359 16.9934 15.7289C16.9669 15.7218 16.6747 15.3562 16.3426 14.9203C15.8114 14.2242 15.7383 14.0976 15.7383 13.8586V13.5843L16.0903 13.6828C16.2762 13.732 16.6946 13.7812 17.0067 13.7812ZM12.7965 14.8218C12.8829 15.0468 12.8895 15.1172 12.8098 15.3562C12.7567 15.5039 12.6504 15.6797 12.5708 15.7359L12.418 15.8343V15.1242C12.418 14.4211 12.418 14.407 12.5575 14.4843C12.6305 14.5336 12.7434 14.6812 12.7965 14.8218ZM29.2454 14.7093C29.4579 15.0258 29.3383 15.5672 29.0129 15.75C28.8934 15.8203 28.8868 15.7992 28.8868 15.1172C28.8868 14.4351 28.8934 14.414 29.0129 14.4843C29.086 14.5195 29.1922 14.625 29.2454 14.7093ZM5.04693 15.1523C5.04693 15.5179 5.02037 15.8203 4.98717 15.8203C4.95396 15.8203 4.84771 15.7218 4.75474 15.6023C4.52232 15.314 4.51568 14.8992 4.7481 14.6601C4.83443 14.5617 4.94068 14.4843 4.98052 14.4843C5.02037 14.4843 5.04693 14.7375 5.04693 15.1523ZM21.5157 15.1523C21.5157 15.7992 21.509 15.8203 21.3829 15.75C21.2169 15.6586 21.0508 15.3211 21.0508 15.089C21.0508 14.9203 21.343 14.4843 21.4559 14.4843C21.4891 14.4843 21.5157 14.7867 21.5157 15.1523ZM15.6985 15.75L16.2696 16.4883L16.0837 16.6429C15.7915 16.9031 15.2071 17.3179 15.1805 17.2898C15.1672 17.2758 14.9415 16.8117 14.6825 16.2562C14.2641 15.3773 14.2243 15.2508 14.3239 15.2086C14.3903 15.1875 14.5762 15.1101 14.7422 15.0398C14.9083 14.9765 15.061 14.9414 15.0876 14.9625C15.1141 14.9906 15.3864 15.3422 15.6985 15.75ZM19.6762 15.2086C19.7758 15.2508 19.7294 15.3773 19.311 16.2773C19.0122 16.9031 18.7997 17.2828 18.7465 17.2687C18.7067 17.2476 18.4544 17.0718 18.1954 16.8679L17.7239 16.5093L17.9497 16.214C18.0692 16.0593 18.3415 15.7008 18.554 15.4195L18.9391 14.9133L19.2446 15.0398C19.4172 15.1101 19.6098 15.1875 19.6762 15.2086ZM14.0051 17.2054C14.2575 17.7398 14.5297 18.239 14.6094 18.3164C14.7622 18.464 15.227 18.4992 15.5059 18.3937C15.5989 18.3586 15.6653 18.3867 15.7251 18.4922C15.7915 18.6117 15.7649 18.907 15.5458 20.2922C15.3997 21.2062 15.2669 21.9656 15.2602 21.9797C15.2469 21.9937 14.2907 21.614 13.1286 21.1429L11.0235 20.2851V19.7789C11.0235 19.2937 11.0301 19.2656 11.2294 19.1109C11.6344 18.7945 12.1458 17.8664 12.252 17.2758C12.3051 16.9804 12.3516 16.9312 12.7368 16.8047C12.8895 16.7554 13.1286 16.6078 13.268 16.4812C13.4008 16.3547 13.5204 16.2492 13.527 16.2422C13.5403 16.2422 13.7528 16.6781 14.0051 17.2054ZM20.7122 16.5304C20.8516 16.65 21.0973 16.7836 21.2501 16.8328C21.529 16.9172 21.5422 16.9312 21.695 17.4375C21.8809 18.0351 22.3391 18.8086 22.7176 19.1461C22.97 19.3781 22.9766 19.3992 22.9766 19.8351V20.2851L20.8715 21.1429C19.7094 21.614 18.7532 21.9937 18.7399 21.9797C18.7333 21.9656 18.6004 21.2062 18.4544 20.2922C18.2352 18.907 18.2087 18.6117 18.2751 18.4922C18.3348 18.3867 18.4012 18.3586 18.4942 18.3937C18.5672 18.4218 18.7665 18.45 18.9391 18.45C19.3641 18.457 19.4704 18.3304 19.9883 17.2336C20.2208 16.7273 20.4266 16.3125 20.4399 16.3125C20.4532 16.3125 20.5727 16.4109 20.7122 16.5304ZM17.2856 17.4726C17.6973 17.775 17.5778 18 17.0001 18C16.4223 18 16.3028 17.775 16.7145 17.4726C16.854 17.3742 16.9801 17.2968 17.0001 17.2968C17.02 17.2968 17.1462 17.3742 17.2856 17.4726ZM17.2657 19.1039C17.2657 19.139 17.3919 19.9336 17.5379 20.8758L17.8102 22.5843L17.5512 22.8445C17.4118 22.9851 17.2258 23.189 17.1462 23.3086L17.0001 23.5195L16.854 23.3086C16.7743 23.189 16.5883 22.9851 16.4489 22.8445L16.1899 22.5914L16.4622 20.8617C16.6149 19.9125 16.7344 19.1179 16.7344 19.0968C16.7344 19.0687 16.854 19.0547 17.0001 19.0547C17.1462 19.0547 17.2657 19.0758 17.2657 19.1039ZM8.28756 20.1093C8.7524 20.1867 9.12428 20.1586 9.8481 19.9968C10.0208 19.9547 10.0274 19.9687 10.0274 20.2148C10.0274 20.4328 9.94107 20.5804 9.4231 21.2554C9.09107 21.6914 8.79224 22.05 8.76568 22.064C8.73248 22.0781 8.42701 21.7125 8.07506 21.2554C7.55045 20.5734 7.43756 20.3836 7.43756 20.1867C7.43756 19.9687 7.45084 19.9547 7.62349 19.9968C7.7231 20.0179 8.02193 20.0672 8.28756 20.1093ZM24.7497 20.1164C25.2079 20.1797 25.5001 20.1586 26.3501 19.9968C26.5559 19.9547 26.5626 19.9617 26.5626 20.1797C26.5626 20.3625 26.4364 20.5734 25.9251 21.2484C25.5797 21.7125 25.2676 22.0781 25.2344 22.064C25.2012 22.05 24.909 21.6914 24.577 21.2554C24.059 20.5804 23.9727 20.4328 23.9727 20.2148C23.9727 19.9758 23.986 19.9547 24.1254 19.9968C24.2051 20.0179 24.4907 20.0742 24.7497 20.1164ZM7.39771 22.05C7.70982 22.4578 7.96881 22.8234 7.96881 22.8586C7.96881 22.8867 7.73638 23.0906 7.45748 23.3015L6.93951 23.6883L6.45474 22.6617C6.18912 22.0992 5.97662 21.6281 5.9899 21.6211C6.02974 21.5789 6.67388 21.3117 6.75357 21.3117C6.79342 21.3047 7.0856 21.6422 7.39771 22.05ZM11.1364 21.4523L11.5481 21.607L11.0501 22.6547L10.5587 23.6953L10.0739 23.3297C9.8149 23.1328 9.5692 22.9429 9.53599 22.9148C9.48287 22.8656 10.6051 21.3117 10.6915 21.3047C10.7114 21.3047 10.9106 21.375 11.1364 21.4523ZM23.9329 22.0851C24.2583 22.514 24.4973 22.8867 24.4641 22.9148C24.4309 22.9429 24.1852 23.1328 23.9262 23.3297L23.4415 23.6953L22.9501 22.6547L22.4587 21.614L22.7973 21.4664C22.9899 21.382 23.1891 21.3187 23.2422 21.3117C23.2954 21.3117 23.6075 21.6562 23.9329 22.0851ZM27.6516 21.4523C27.8575 21.5367 28.0235 21.6281 28.0169 21.6492C28.0169 21.6703 27.8044 22.1414 27.5387 22.6898L27.0606 23.6953L26.5161 23.2804L25.9649 22.8726L26.5692 22.0851C26.8946 21.6562 27.1934 21.3047 27.2266 21.3047C27.2532 21.3047 27.4458 21.375 27.6516 21.4523ZM5.61138 23.2804C5.94342 23.9765 6.25552 24.5953 6.31529 24.6515C6.50787 24.8343 6.83326 24.8906 7.11217 24.7922C7.35123 24.7008 7.37115 24.7078 7.45748 24.8484C7.54381 24.982 7.49068 25.3968 6.97935 28.5961C6.32193 32.7375 6.30865 32.2734 7.09224 33.1804C7.35123 33.4898 7.57037 33.757 7.57037 33.7781C7.57037 33.7992 6.76685 33.8203 5.7774 33.8203H3.98443L3.97115 29.8406L3.95123 25.8609L3.79185 25.7273C3.58599 25.5515 3.33365 25.5586 3.14107 25.7484L2.98834 25.8961V29.8617V33.8273L2.01216 33.8062L1.02935 33.7851V29.3554C1.02935 25.2351 1.03599 24.8976 1.14888 24.5531C1.30162 24.1101 1.70006 23.5476 2.05865 23.3015C2.25787 23.1609 4.79459 22.0429 4.98052 22.0148C5.00045 22.0078 5.28599 22.5773 5.61138 23.2804ZM14.2774 22.7461C15.32 23.175 15.6985 23.4351 16.0504 23.9554C16.4754 24.5883 16.4688 24.532 16.4688 29.4047V33.8203H15.5059H14.543L14.5297 29.8406L14.5098 25.8609L14.3504 25.7273C14.1446 25.5515 13.8922 25.5586 13.6997 25.7484L13.5469 25.8961V29.8617V33.8203H11.7075H9.87467L10.034 33.6234C10.1204 33.5179 10.3528 33.2508 10.5454 33.0328C11.1629 32.3297 11.1629 32.6531 10.5254 28.6453C10.2133 26.7187 9.96099 25.0875 9.96099 25.0312C9.96763 24.975 10.0008 24.8695 10.054 24.8062C10.127 24.7008 10.1669 24.7008 10.3926 24.7781C10.6782 24.8836 10.9637 24.8273 11.1762 24.6304C11.2426 24.5601 11.568 23.9414 11.8934 23.2593L12.4844 22.0148L12.8962 22.1765C13.1286 22.2679 13.7462 22.5211 14.2774 22.7461ZM22.1465 23.3297C22.5383 24.1453 22.8106 24.6164 22.9301 24.7078C23.1426 24.8695 23.5809 24.8906 23.7403 24.75C23.8266 24.6726 23.8598 24.6797 23.9395 24.7922C23.9926 24.8625 24.0325 24.975 24.0391 25.0312C24.0391 25.0875 23.7868 26.7117 23.4747 28.6453C22.8372 32.6461 22.8372 32.3226 23.4547 33.0328C23.6473 33.2508 23.8731 33.5179 23.9661 33.6304L24.1321 33.8203H22.2926H20.4532V29.8687V25.9172L20.3071 25.7554C20.1344 25.5586 19.8622 25.5445 19.6497 25.7273L19.4903 25.8609L19.4704 29.8406L19.4571 33.8203H18.4876H17.5247L17.5446 29.264C17.5645 24.75 17.5645 24.7148 17.7106 24.3773C17.8833 23.9906 18.4212 23.3648 18.7465 23.182C19.0852 22.9851 21.4758 22.0148 21.5157 22.057C21.5356 22.0711 21.8212 22.6476 22.1465 23.3297ZM9.04459 23.8359C9.46959 24.1312 9.33678 24.3281 8.7192 24.3281C8.38053 24.3281 8.2942 24.307 8.23443 24.1945C8.17467 24.075 8.20787 24.0258 8.44693 23.8429C8.60631 23.7234 8.74576 23.639 8.76568 23.6461C8.7856 23.6531 8.91178 23.7375 9.04459 23.8359ZM25.5399 23.8429C25.7922 24.0258 25.8254 24.075 25.7657 24.1945C25.7059 24.307 25.6196 24.3281 25.2809 24.3281C24.8825 24.3281 24.7032 24.2508 24.7032 24.082C24.7098 24.0258 25.1348 23.6531 25.2212 23.632C25.2344 23.625 25.3739 23.7234 25.5399 23.8429ZM9.50943 28.582C9.78834 30.3187 10.0208 31.8164 10.0208 31.9008C10.0274 32.0062 9.8149 32.3086 9.38326 32.8078L8.73912 33.5531L8.53326 33.307C8.42701 33.1734 8.13482 32.8218 7.88912 32.5406L7.4442 32.0133L7.96881 28.7156C8.26099 26.9015 8.50006 25.4109 8.50006 25.3968C8.50006 25.3828 8.61295 25.3828 8.7524 25.3968L8.9981 25.4179L9.50943 28.582ZM25.5001 25.4039C25.5001 25.4179 25.7391 26.9086 26.0313 28.7226L26.5559 32.0203L26.3169 32.3015C26.184 32.4633 25.8852 32.8008 25.6594 33.0609L25.2477 33.539L24.5969 32.7937L23.9395 32.0414L24.4641 28.7648C24.7497 26.9648 24.9954 25.4672 25.0153 25.432C25.0419 25.3828 25.5001 25.3547 25.5001 25.4039Z" fill="#FCC4E8"/>
</svg>
