<svg width="33" height="33" viewBox="0 0 33 33" fill="none" xmlns="http://www.w3.org/2000/svg">
<rect width="33" height="33" rx="16.5" fill="#FFFEFE"/>
<path d="M24.83 24.5243H8.17C8.0765 24.5243 8 24.648 8 24.7993V26.7249C8 26.8762 8.0765 27 8.17 27H24.83C24.9235 27 25 26.8762 25 26.7249V24.7993C25 24.648 24.9235 24.5243 24.83 24.5243ZM9.14112 20.2192L9.98475 21.5774C10.0506 21.684 10.159 21.684 10.2249 21.5774L15.2122 13.5347L17.2863 16.8804C17.414 17.0852 17.5866 17.2002 17.7665 17.2002C17.9464 17.2002 18.119 17.0852 18.2468 16.8804L23.861 7.83013C23.9269 7.72353 23.9269 7.54817 23.861 7.44157L23.0174 6.07991C22.9854 6.02872 22.9423 6 22.8973 6C22.8523 6 22.8092 6.02872 22.7773 6.07991L17.7686 14.1605L15.6925 10.8148C15.5647 10.6099 15.3921 10.495 15.2122 10.495C15.0324 10.495 14.8598 10.6099 14.732 10.8148L9.14112 19.8306C9.12523 19.856 9.11261 19.8863 9.104 19.9196C9.09538 19.953 9.09095 19.9888 9.09095 20.0249C9.09095 20.0611 9.09538 20.0968 9.104 20.1302C9.11261 20.1635 9.12523 20.1938 9.14112 20.2192Z" fill="#87CFFF"/>
</svg>
