<svg width="414" height="150" viewBox="0 0 414 150" fill="none" xmlns="http://www.w3.org/2000/svg">
<rect width="414" height="150" fill="#CCCCCC"/>
<path d="M195.9 71.85V66.05C195.9 66.4346 195.747 66.8034 195.475 67.0753C195.203 67.3472 194.835 67.5 194.45 67.5C194.065 67.5 193.697 67.3472 193.425 67.0753C193.153 66.8034 193 66.4346 193 66.05V63.15C193 62.7654 193.153 62.3966 193.425 62.1247C193.697 61.8528 194.065 61.7 194.45 61.7C194.835 61.7 195.203 61.8528 195.475 62.1247C195.747 62.3966 195.9 62.7654 195.9 63.15V57.35C195.9 57.7346 195.747 58.1034 195.475 58.3753C195.203 58.6472 194.835 58.8 194.45 58.8C194.065 58.8 193.697 58.6472 193.425 58.3753C193.153 58.1034 193 57.7346 193 57.35C193 56.1963 193.458 55.0899 194.274 54.2741C195.09 53.4583 196.196 53 197.35 53C197.735 53 198.103 53.1528 198.375 53.4247C198.647 53.6966 198.8 54.0654 198.8 54.45C198.8 54.8346 198.647 55.2034 198.375 55.4753C198.103 55.7472 197.735 55.9 197.35 55.9H203.15C202.765 55.9 202.397 55.7472 202.125 55.4753C201.853 55.2034 201.7 54.8346 201.7 54.45C201.7 54.0654 201.853 53.6966 202.125 53.4247C202.397 53.1528 202.765 53 203.15 53H207.5C207.885 53 208.253 53.1528 208.525 53.4247C208.797 53.6966 208.95 54.0654 208.95 54.45C208.95 54.8346 208.797 55.2034 208.525 55.4753C208.253 55.7472 207.885 55.9 207.5 55.9H213.3C212.915 55.9 212.547 55.7472 212.275 55.4753C212.003 55.2034 211.85 54.8346 211.85 54.45C211.85 54.0654 212.003 53.6966 212.275 53.4247C212.547 53.1528 212.915 53 213.3 53H217.65C218.804 53 219.91 53.4583 220.726 54.2741C221.542 55.0899 222 56.1963 222 57.35V71.85C222 73.0037 221.542 74.1101 220.726 74.9259C219.91 75.7417 218.804 76.2 217.65 76.2H197.35C196.196 76.2 195.09 75.7417 194.274 74.9259C193.458 74.1101 193 73.0037 193 71.85C193 71.4654 193.153 71.0966 193.425 70.8247C193.697 70.5528 194.065 70.4 194.45 70.4C194.835 70.4 195.203 70.5528 195.475 70.8247C195.747 71.0966 195.9 71.4654 195.9 71.85V71.85ZM219.1 65.3294V57.35C219.1 56.9654 218.947 56.5966 218.675 56.3247C218.403 56.0528 218.035 55.9 217.65 55.9H197.35C196.965 55.9 196.597 56.0528 196.325 56.3247C196.053 56.5966 195.9 56.9654 195.9 57.35V71.85C195.9 72.2346 196.053 72.6034 196.325 72.8753C196.597 73.1472 196.965 73.3 197.35 73.3H202.431L208.796 62.6831C209.136 62.1168 209.6 61.6352 210.154 61.275C210.707 60.9147 211.336 60.6853 211.991 60.6039C212.646 60.5226 213.312 60.5916 213.936 60.8056C214.561 61.0196 215.129 61.3731 215.597 61.8392L219.1 65.3294ZM219.1 69.4227L213.549 63.8924C213.393 63.7372 213.204 63.6195 212.996 63.5484C212.787 63.4772 212.566 63.4544 212.347 63.4816C212.129 63.5089 211.92 63.5855 211.735 63.7056C211.551 63.8258 211.396 63.9864 211.283 64.1752L205.812 73.3H217.65C218.035 73.3 218.403 73.1472 218.675 72.8753C218.947 72.6034 219.1 72.2346 219.1 71.85V69.4227ZM201.7 66.05C200.546 66.05 199.44 65.5917 198.624 64.7759C197.808 63.9601 197.35 62.8537 197.35 61.7C197.35 60.5463 197.808 59.4399 198.624 58.6241C199.44 57.8083 200.546 57.35 201.7 57.35C202.854 57.35 203.96 57.8083 204.776 58.6241C205.592 59.4399 206.05 60.5463 206.05 61.7C206.05 62.8537 205.592 63.9601 204.776 64.7759C203.96 65.5917 202.854 66.05 201.7 66.05ZM201.7 63.15C202.085 63.15 202.453 62.9972 202.725 62.7253C202.997 62.4534 203.15 62.0846 203.15 61.7C203.15 61.3154 202.997 60.9466 202.725 60.6747C202.453 60.4028 202.085 60.25 201.7 60.25C201.315 60.25 200.947 60.4028 200.675 60.6747C200.403 60.9466 200.25 61.3154 200.25 61.7C200.25 62.0846 200.403 62.4534 200.675 62.7253C200.947 62.9972 201.315 63.15 201.7 63.15Z" fill="#F1F1F1"/>
<path d="M161.697 87.6602V88.7734H158.064V87.6602H161.697ZM159.037 86.1016H160.59V92.1719C160.59 92.3594 160.615 92.5039 160.666 92.6055C160.717 92.707 160.793 92.7754 160.895 92.8105C160.996 92.8457 161.117 92.8633 161.258 92.8633C161.359 92.8633 161.453 92.8574 161.539 92.8457C161.625 92.834 161.697 92.8223 161.756 92.8105L161.762 93.9707C161.633 94.0137 161.486 94.0488 161.322 94.0762C161.162 94.1035 160.98 94.1172 160.777 94.1172C160.43 94.1172 160.125 94.0586 159.863 93.9414C159.602 93.8203 159.398 93.627 159.254 93.3613C159.109 93.0918 159.037 92.7363 159.037 92.2949V86.1016ZM165.576 94.1172C165.096 94.1172 164.664 94.0391 164.281 93.8828C163.898 93.7266 163.572 93.5098 163.303 93.2324C163.037 92.9512 162.832 92.625 162.688 92.2539C162.547 91.8789 162.477 91.4766 162.477 91.0469V90.8125C162.477 90.3242 162.547 89.8809 162.688 89.4824C162.828 89.0801 163.027 88.7344 163.285 88.4453C163.543 88.1562 163.852 87.9336 164.211 87.7773C164.57 87.6211 164.967 87.543 165.4 87.543C165.85 87.543 166.246 87.6191 166.59 87.7715C166.934 87.9199 167.221 88.1309 167.451 88.4043C167.682 88.6777 167.855 89.0059 167.973 89.3887C168.09 89.7676 168.148 90.1875 168.148 90.6484V91.2988H163.18V90.2324H166.625V90.1152C166.617 89.8691 166.57 89.6445 166.484 89.4414C166.398 89.2344 166.266 89.0703 166.086 88.9492C165.906 88.8242 165.674 88.7617 165.389 88.7617C165.158 88.7617 164.957 88.8125 164.785 88.9141C164.617 89.0117 164.477 89.1523 164.363 89.3359C164.254 89.5156 164.172 89.7305 164.117 89.9805C164.062 90.2305 164.035 90.5078 164.035 90.8125V91.0469C164.035 91.3125 164.07 91.5586 164.141 91.7852C164.215 92.0117 164.322 92.209 164.463 92.377C164.607 92.541 164.779 92.6699 164.979 92.7637C165.182 92.8535 165.412 92.8984 165.67 92.8984C165.994 92.8984 166.287 92.8359 166.549 92.7109C166.814 92.582 167.045 92.3926 167.24 92.1426L168.02 92.9512C167.887 93.1465 167.707 93.334 167.48 93.5137C167.258 93.6934 166.988 93.8398 166.672 93.9531C166.355 94.0625 165.99 94.1172 165.576 94.1172ZM170.732 84.9941V94H169.186V84.9941H170.732ZM174.705 87.6602L171.945 90.7598L170.451 92.2773L169.959 91.0762L171.113 89.623L172.836 87.6602H174.705ZM173.123 94L171.16 91.0469L172.191 90.0449L174.916 94H173.123ZM179.018 92.6523V89.7285C179.018 89.5137 178.98 89.3281 178.906 89.1719C178.832 89.0156 178.719 88.8945 178.566 88.8086C178.414 88.7227 178.221 88.6797 177.986 88.6797C177.779 88.6797 177.598 88.7148 177.441 88.7852C177.289 88.8555 177.172 88.9551 177.09 89.084C177.008 89.209 176.967 89.3535 176.967 89.5176H175.414C175.414 89.2559 175.477 89.0078 175.602 88.7734C175.727 88.5352 175.904 88.3242 176.135 88.1406C176.369 87.9531 176.648 87.8066 176.973 87.7012C177.301 87.5957 177.668 87.543 178.074 87.543C178.555 87.543 178.982 87.625 179.357 87.7891C179.736 87.9492 180.033 88.1914 180.248 88.5156C180.467 88.8398 180.576 89.248 180.576 89.7402V92.5059C180.576 92.8223 180.596 93.0938 180.635 93.3203C180.678 93.543 180.74 93.7363 180.822 93.9004V94H179.246C179.172 93.8398 179.115 93.6367 179.076 93.3906C179.037 93.1406 179.018 92.8945 179.018 92.6523ZM179.234 90.1387L179.246 91.0586H178.268C178.025 91.0586 177.812 91.084 177.629 91.1348C177.445 91.1816 177.295 91.252 177.178 91.3457C177.061 91.4355 176.973 91.5449 176.914 91.6738C176.855 91.7988 176.826 91.9414 176.826 92.1016C176.826 92.2578 176.861 92.3984 176.932 92.5234C177.006 92.6484 177.111 92.748 177.248 92.8223C177.389 92.8926 177.553 92.9277 177.74 92.9277C178.014 92.9277 178.252 92.873 178.455 92.7637C178.658 92.6504 178.816 92.5137 178.93 92.3535C179.043 92.1934 179.104 92.041 179.111 91.8965L179.557 92.5645C179.502 92.7246 179.42 92.8945 179.311 93.0742C179.201 93.2539 179.061 93.4219 178.889 93.5781C178.717 93.7344 178.51 93.8633 178.268 93.9648C178.025 94.0664 177.744 94.1172 177.424 94.1172C177.014 94.1172 176.646 94.0352 176.322 93.8711C175.998 93.707 175.742 93.4824 175.555 93.1973C175.367 92.9121 175.273 92.5879 175.273 92.2246C175.273 91.8887 175.336 91.5918 175.461 91.334C175.586 91.0762 175.771 90.8594 176.018 90.6836C176.264 90.5039 176.568 90.3691 176.932 90.2793C177.299 90.1855 177.719 90.1387 178.191 90.1387H179.234ZM183.488 89.0137V94H181.941V87.6602H183.395L183.488 89.0137ZM183.242 90.6016H182.785C182.789 90.1406 182.852 89.7227 182.973 89.3477C183.094 88.9727 183.264 88.6504 183.482 88.3809C183.705 88.1113 183.969 87.9043 184.273 87.7598C184.578 87.6152 184.918 87.543 185.293 87.543C185.598 87.543 185.873 87.5859 186.119 87.6719C186.365 87.7578 186.576 87.8945 186.752 88.082C186.932 88.2695 187.068 88.5156 187.162 88.8203C187.26 89.1211 187.309 89.4922 187.309 89.9336V94H185.75V89.9219C185.75 89.6328 185.707 89.4043 185.621 89.2363C185.539 89.0684 185.418 88.9492 185.258 88.8789C185.102 88.8086 184.908 88.7734 184.678 88.7734C184.439 88.7734 184.23 88.8223 184.051 88.9199C183.875 89.0137 183.727 89.1445 183.605 89.3125C183.488 89.4805 183.398 89.6738 183.336 89.8926C183.273 90.1113 183.242 90.3477 183.242 90.6016ZM195.436 92.4941V87.6602H196.994V94H195.529L195.436 92.4941ZM195.635 91.1816L196.115 91.1699C196.115 91.5957 196.068 91.9883 195.975 92.3477C195.881 92.707 195.734 93.0195 195.535 93.2852C195.34 93.5469 195.092 93.752 194.791 93.9004C194.49 94.0449 194.135 94.1172 193.725 94.1172C193.412 94.1172 193.127 94.0742 192.869 93.9883C192.611 93.8984 192.389 93.7598 192.201 93.5723C192.018 93.3809 191.875 93.1367 191.773 92.8398C191.672 92.5391 191.621 92.1777 191.621 91.7559V87.6602H193.168V91.7676C193.168 91.9785 193.191 92.1543 193.238 92.2949C193.289 92.4355 193.357 92.5508 193.443 92.6406C193.533 92.7266 193.637 92.7891 193.754 92.8281C193.875 92.8633 194.004 92.8809 194.141 92.8809C194.516 92.8809 194.811 92.8066 195.025 92.6582C195.244 92.5059 195.4 92.3027 195.494 92.0488C195.588 91.791 195.635 91.502 195.635 91.1816ZM199.883 89.0137V94H198.336V87.6602H199.789L199.883 89.0137ZM199.637 90.6016H199.18C199.184 90.1406 199.246 89.7227 199.367 89.3477C199.488 88.9727 199.658 88.6504 199.877 88.3809C200.1 88.1113 200.363 87.9043 200.668 87.7598C200.973 87.6152 201.312 87.543 201.688 87.543C201.992 87.543 202.268 87.5859 202.514 87.6719C202.76 87.7578 202.971 87.8945 203.146 88.082C203.326 88.2695 203.463 88.5156 203.557 88.8203C203.654 89.1211 203.703 89.4922 203.703 89.9336V94H202.145V89.9219C202.145 89.6328 202.102 89.4043 202.016 89.2363C201.934 89.0684 201.812 88.9492 201.652 88.8789C201.496 88.8086 201.303 88.7734 201.072 88.7734C200.834 88.7734 200.625 88.8223 200.445 88.9199C200.27 89.0137 200.121 89.1445 200 89.3125C199.883 89.4805 199.793 89.6738 199.73 89.8926C199.668 90.1113 199.637 90.3477 199.637 90.6016ZM208.068 87.6602V88.7734H204.436V87.6602H208.068ZM205.408 86.1016H206.961V92.1719C206.961 92.3594 206.986 92.5039 207.037 92.6055C207.088 92.707 207.164 92.7754 207.266 92.8105C207.367 92.8457 207.488 92.8633 207.629 92.8633C207.73 92.8633 207.824 92.8574 207.91 92.8457C207.996 92.834 208.068 92.8223 208.127 92.8105L208.133 93.9707C208.004 94.0137 207.857 94.0488 207.693 94.0762C207.533 94.1035 207.352 94.1172 207.148 94.1172C206.801 94.1172 206.496 94.0586 206.234 93.9414C205.973 93.8203 205.77 93.627 205.625 93.3613C205.48 93.0918 205.408 92.7363 205.408 92.2949V86.1016ZM212.873 92.4941V87.6602H214.432V94H212.967L212.873 92.4941ZM213.072 91.1816L213.553 91.1699C213.553 91.5957 213.506 91.9883 213.412 92.3477C213.318 92.707 213.172 93.0195 212.973 93.2852C212.777 93.5469 212.529 93.752 212.229 93.9004C211.928 94.0449 211.572 94.1172 211.162 94.1172C210.85 94.1172 210.564 94.0742 210.307 93.9883C210.049 93.8984 209.826 93.7598 209.639 93.5723C209.455 93.3809 209.312 93.1367 209.211 92.8398C209.109 92.5391 209.059 92.1777 209.059 91.7559V87.6602H210.605V91.7676C210.605 91.9785 210.629 92.1543 210.676 92.2949C210.727 92.4355 210.795 92.5508 210.881 92.6406C210.971 92.7266 211.074 92.7891 211.191 92.8281C211.312 92.8633 211.441 92.8809 211.578 92.8809C211.953 92.8809 212.248 92.8066 212.463 92.6582C212.682 92.5059 212.838 92.3027 212.932 92.0488C213.025 91.791 213.072 91.502 213.072 91.1816ZM217.35 84.9941V94H215.803V84.9941H217.35ZM221.322 87.6602L218.562 90.7598L217.068 92.2773L216.576 91.0762L217.73 89.623L219.453 87.6602H221.322ZM219.74 94L217.777 91.0469L218.809 90.0449L221.533 94H219.74ZM226.678 88.9551V94H225.131V87.6602H226.596L226.678 88.9551ZM228.605 87.6191L228.582 89.0605C228.496 89.0449 228.398 89.0332 228.289 89.0254C228.184 89.0176 228.084 89.0137 227.99 89.0137C227.752 89.0137 227.543 89.0469 227.363 89.1133C227.184 89.1758 227.033 89.2676 226.912 89.3887C226.795 89.5098 226.705 89.6582 226.643 89.834C226.58 90.0059 226.545 90.2012 226.537 90.4199L226.203 90.3789C226.203 89.9766 226.244 89.6035 226.326 89.2598C226.408 88.916 226.527 88.6152 226.684 88.3574C226.84 88.0996 227.035 87.9004 227.27 87.7598C227.508 87.6152 227.781 87.543 228.09 87.543C228.176 87.543 228.268 87.5508 228.365 87.5664C228.467 87.5781 228.547 87.5957 228.605 87.6191ZM233.229 92.4941V87.6602H234.787V94H233.322L233.229 92.4941ZM233.428 91.1816L233.908 91.1699C233.908 91.5957 233.861 91.9883 233.768 92.3477C233.674 92.707 233.527 93.0195 233.328 93.2852C233.133 93.5469 232.885 93.752 232.584 93.9004C232.283 94.0449 231.928 94.1172 231.518 94.1172C231.205 94.1172 230.92 94.0742 230.662 93.9883C230.404 93.8984 230.182 93.7598 229.994 93.5723C229.811 93.3809 229.668 93.1367 229.566 92.8398C229.465 92.5391 229.414 92.1777 229.414 91.7559V87.6602H230.961V91.7676C230.961 91.9785 230.984 92.1543 231.031 92.2949C231.082 92.4355 231.15 92.5508 231.236 92.6406C231.326 92.7266 231.43 92.7891 231.547 92.8281C231.668 92.8633 231.797 92.8809 231.934 92.8809C232.309 92.8809 232.604 92.8066 232.818 92.6582C233.037 92.5059 233.193 92.3027 233.287 92.0488C233.381 91.791 233.428 91.502 233.428 91.1816ZM236.152 85H237.705V92.5996L237.553 94H236.152V85ZM241.783 90.7656V90.8887C241.783 91.3613 241.73 91.7949 241.625 92.1895C241.523 92.584 241.369 92.9258 241.162 93.2148C240.955 93.5 240.697 93.7227 240.389 93.8828C240.084 94.0391 239.727 94.1172 239.316 94.1172C238.926 94.1172 238.586 94.041 238.297 93.8887C238.012 93.7363 237.771 93.5215 237.576 93.2441C237.381 92.9629 237.225 92.6328 237.107 92.2539C236.99 91.8711 236.902 91.4531 236.844 91V90.666C236.902 90.209 236.99 89.791 237.107 89.4121C237.225 89.0332 237.381 88.7031 237.576 88.4219C237.771 88.1406 238.012 87.9238 238.297 87.7715C238.582 87.6191 238.918 87.543 239.305 87.543C239.719 87.543 240.08 87.623 240.389 87.7832C240.701 87.9395 240.959 88.1621 241.162 88.4512C241.369 88.7363 241.523 89.0762 241.625 89.4707C241.73 89.8613 241.783 90.293 241.783 90.7656ZM240.23 90.8887V90.7656C240.23 90.4961 240.209 90.2422 240.166 90.0039C240.123 89.7617 240.053 89.5488 239.955 89.3652C239.857 89.1816 239.725 89.0371 239.557 88.9316C239.389 88.8262 239.178 88.7734 238.924 88.7734C238.682 88.7734 238.475 88.8145 238.303 88.8965C238.135 88.9785 237.994 89.0918 237.881 89.2363C237.771 89.3809 237.686 89.5508 237.623 89.7461C237.564 89.9414 237.525 90.1523 237.506 90.3789V91.293C237.533 91.5938 237.598 91.8652 237.699 92.1074C237.801 92.3457 237.951 92.5352 238.15 92.6758C238.354 92.8164 238.615 92.8867 238.936 92.8867C239.186 92.8867 239.395 92.8379 239.562 92.7402C239.73 92.6387 239.863 92.498 239.961 92.3184C240.059 92.1348 240.127 91.9219 240.166 91.6797C240.209 91.4375 240.23 91.1738 240.23 90.8887ZM246.4 92.6523V89.7285C246.4 89.5137 246.363 89.3281 246.289 89.1719C246.215 89.0156 246.102 88.8945 245.949 88.8086C245.797 88.7227 245.604 88.6797 245.369 88.6797C245.162 88.6797 244.98 88.7148 244.824 88.7852C244.672 88.8555 244.555 88.9551 244.473 89.084C244.391 89.209 244.35 89.3535 244.35 89.5176H242.797C242.797 89.2559 242.859 89.0078 242.984 88.7734C243.109 88.5352 243.287 88.3242 243.518 88.1406C243.752 87.9531 244.031 87.8066 244.355 87.7012C244.684 87.5957 245.051 87.543 245.457 87.543C245.938 87.543 246.365 87.625 246.74 87.7891C247.119 87.9492 247.416 88.1914 247.631 88.5156C247.85 88.8398 247.959 89.248 247.959 89.7402V92.5059C247.959 92.8223 247.979 93.0938 248.018 93.3203C248.061 93.543 248.123 93.7363 248.205 93.9004V94H246.629C246.555 93.8398 246.498 93.6367 246.459 93.3906C246.42 93.1406 246.4 92.8945 246.4 92.6523ZM246.617 90.1387L246.629 91.0586H245.65C245.408 91.0586 245.195 91.084 245.012 91.1348C244.828 91.1816 244.678 91.252 244.561 91.3457C244.443 91.4355 244.355 91.5449 244.297 91.6738C244.238 91.7988 244.209 91.9414 244.209 92.1016C244.209 92.2578 244.244 92.3984 244.314 92.5234C244.389 92.6484 244.494 92.748 244.631 92.8223C244.771 92.8926 244.936 92.9277 245.123 92.9277C245.396 92.9277 245.635 92.873 245.838 92.7637C246.041 92.6504 246.199 92.5137 246.312 92.3535C246.426 92.1934 246.486 92.041 246.494 91.8965L246.939 92.5645C246.885 92.7246 246.803 92.8945 246.693 93.0742C246.584 93.2539 246.443 93.4219 246.271 93.5781C246.1 93.7344 245.893 93.8633 245.65 93.9648C245.408 94.0664 245.127 94.1172 244.807 94.1172C244.396 94.1172 244.029 94.0352 243.705 93.8711C243.381 93.707 243.125 93.4824 242.938 93.1973C242.75 92.9121 242.656 92.5879 242.656 92.2246C242.656 91.8887 242.719 91.5918 242.844 91.334C242.969 91.0762 243.154 90.8594 243.4 90.6836C243.646 90.5039 243.951 90.3691 244.314 90.2793C244.682 90.1855 245.102 90.1387 245.574 90.1387H246.617ZM250.871 85V94H249.318V85H250.871ZM250.625 90.6016H250.168C250.168 90.1602 250.227 89.7539 250.344 89.3828C250.461 89.0117 250.627 88.6895 250.842 88.416C251.057 88.1387 251.312 87.9238 251.609 87.7715C251.91 87.6191 252.242 87.543 252.605 87.543C252.918 87.543 253.201 87.5879 253.455 87.6777C253.713 87.7637 253.934 87.9023 254.117 88.0938C254.301 88.2852 254.441 88.5352 254.539 88.8438C254.641 89.1484 254.691 89.5195 254.691 89.957V94H253.133V89.9453C253.133 89.6523 253.09 89.4219 253.004 89.2539C252.918 89.082 252.795 88.959 252.635 88.8848C252.479 88.8105 252.285 88.7734 252.055 88.7734C251.805 88.7734 251.59 88.8223 251.41 88.9199C251.23 89.0137 251.082 89.1445 250.965 89.3125C250.852 89.4805 250.766 89.6738 250.707 89.8926C250.652 90.1113 250.625 90.3477 250.625 90.6016Z" fill="#F1F1F1"/>
</svg>
